%TF.GenerationSoftware,KiCad,Pcbnew,9.0.6-1.fc43*%
%TF.CreationDate,2026-01-15T13:12:57-05:00*%
%TF.ProjectId,Left,4c656674-2e6b-4696-9361-645f70636258,rev?*%
%TF.SameCoordinates,Original*%
%TF.FileFunction,Copper,L2,Bot*%
%TF.FilePolarity,Positive*%
%FSLAX46Y46*%
G04 Gerber Fmt 4.6, Leading zero omitted, Abs format (unit mm)*
G04 Created by KiCad (PCBNEW 9.0.6-1.fc43) date 2026-01-15 13:12:57*
%MOMM*%
%LPD*%
G01*
G04 APERTURE LIST*
G04 Aperture macros list*
%AMRoundRect*
0 Rectangle with rounded corners*
0 $1 Rounding radius*
0 $2 $3 $4 $5 $6 $7 $8 $9 X,Y pos of 4 corners*
0 Add a 4 corners polygon primitive as box body*
4,1,4,$2,$3,$4,$5,$6,$7,$8,$9,$2,$3,0*
0 Add four circle primitives for the rounded corners*
1,1,$1+$1,$2,$3*
1,1,$1+$1,$4,$5*
1,1,$1+$1,$6,$7*
1,1,$1+$1,$8,$9*
0 Add four rect primitives between the rounded corners*
20,1,$1+$1,$2,$3,$4,$5,0*
20,1,$1+$1,$4,$5,$6,$7,0*
20,1,$1+$1,$6,$7,$8,$9,0*
20,1,$1+$1,$8,$9,$2,$3,0*%
%AMHorizOval*
0 Thick line with rounded ends*
0 $1 width*
0 $2 $3 position (X,Y) of the first rounded end (center of the circle)*
0 $4 $5 position (X,Y) of the second rounded end (center of the circle)*
0 Add line between two ends*
20,1,$1,$2,$3,$4,$5,0*
0 Add two circle primitives to create the rounded ends*
1,1,$1,$2,$3*
1,1,$1,$4,$5*%
%AMRotRect*
0 Rectangle, with rotation*
0 The origin of the aperture is its center*
0 $1 length*
0 $2 width*
0 $3 Rotation angle, in degrees counterclockwise*
0 Add horizontal line*
21,1,$1,$2,0,0,$3*%
G04 Aperture macros list end*
%TA.AperFunction,SMDPad,CuDef*%
%ADD10RoundRect,0.250000X-1.108255X-0.906860X0.933944X-1.085529X1.108255X0.906860X-0.933944X1.085529X0*%
%TD*%
%TA.AperFunction,SMDPad,CuDef*%
%ADD11RoundRect,0.250000X-1.183076X-0.806818X0.835780X-1.162797X1.183076X0.806818X-0.835780X1.162797X0*%
%TD*%
%TA.AperFunction,SMDPad,CuDef*%
%ADD12RoundRect,0.250000X-1.025000X-1.000000X1.025000X-1.000000X1.025000X1.000000X-1.025000X1.000000X0*%
%TD*%
%TA.AperFunction,ComponentPad*%
%ADD13RotRect,1.600000X1.600000X176.000000*%
%TD*%
%TA.AperFunction,ComponentPad*%
%ADD14HorizOval,1.600000X0.000000X0.000000X0.000000X0.000000X0*%
%TD*%
%TA.AperFunction,ComponentPad*%
%ADD15R,2.250000X2.250000*%
%TD*%
%TA.AperFunction,ComponentPad*%
%ADD16C,2.250000*%
%TD*%
%TA.AperFunction,ComponentPad*%
%ADD17C,2.800000*%
%TD*%
%TA.AperFunction,ComponentPad*%
%ADD18RotRect,2.000000X2.000000X350.000000*%
%TD*%
%TA.AperFunction,ComponentPad*%
%ADD19C,2.000000*%
%TD*%
%TA.AperFunction,ComponentPad*%
%ADD20RotRect,3.200000X2.000000X350.000000*%
%TD*%
%TA.AperFunction,ViaPad*%
%ADD21C,0.600000*%
%TD*%
%TA.AperFunction,Conductor*%
%ADD22C,0.200000*%
%TD*%
G04 APERTURE END LIST*
D10*
%TO.P,S12,1,1*%
%TO.N,5 Column*%
X243557182Y-89238430D03*
%TO.P,S12,2,2*%
%TO.N,Net-(D12-A)*%
X255319776Y-92475927D03*
%TD*%
D11*
%TO.P,S20,1,1*%
%TO.N,5 Column*%
X259095062Y-127983385D03*
%TO.P,S20,2,2*%
%TO.N,Net-(D20-A)*%
X270530729Y-132233740D03*
%TD*%
D10*
%TO.P,S17,1,1*%
%TO.N,4 Column*%
X224536253Y-104717787D03*
%TO.P,S17,2,2*%
%TO.N,Net-(D17-A)*%
X236298847Y-107955284D03*
%TD*%
D12*
%TO.P,S10,1,1*%
%TO.N,3 Column*%
X205000000Y-72500000D03*
%TO.P,S10,2,2*%
%TO.N,Net-(D10-A)*%
X217000000Y-74700000D03*
%TD*%
D10*
%TO.P,S5,1,1*%
%TO.N,4 Column*%
X227792292Y-71004993D03*
%TO.P,S5,2,2*%
%TO.N,Net-(D5-A)*%
X239554886Y-74242490D03*
%TD*%
D12*
%TO.P,S1,1,1*%
%TO.N,0 Column*%
X151000000Y-69500000D03*
%TO.P,S1,2,2*%
%TO.N,Net-(D1-A)*%
X163000000Y-71700000D03*
%TD*%
D10*
%TO.P,S11,1,1*%
%TO.N,4 Column*%
X226057182Y-88238430D03*
%TO.P,S11,2,2*%
%TO.N,Net-(D11-A)*%
X237819776Y-91475927D03*
%TD*%
D11*
%TO.P,S19,1,1*%
%TO.N,4 Column*%
X241817699Y-124983385D03*
%TO.P,S19,2,2*%
%TO.N,Net-(D19-A)*%
X253253366Y-129233740D03*
%TD*%
D13*
%TO.P,U1,1,TX0/PD3*%
%TO.N,Serial*%
X260000000Y-75398562D03*
D14*
%TO.P,U1,2,RX1/PD2*%
%TO.N,unconnected-(U1-RX1{slash}PD2-Pad2)*%
X259822819Y-77932375D03*
%TO.P,U1,3,GND*%
%TO.N,GND*%
X259645638Y-80466186D03*
%TO.P,U1,4,GND*%
X259468457Y-83000000D03*
%TO.P,U1,5,2/PD1*%
%TO.N,unconnected-(U1-2{slash}PD1-Pad5)*%
X259291275Y-85533812D03*
%TO.P,U1,6,3/PD0*%
%TO.N,unconnected-(U1-3{slash}PD0-Pad6)*%
X259114094Y-88067624D03*
%TO.P,U1,7,4/PD4*%
%TO.N,Net-(U1-4{slash}PD4)*%
X258936913Y-90601439D03*
%TO.P,U1,8,5/PC6*%
%TO.N,Net-(U1-5{slash}PC6)*%
X258759731Y-93135251D03*
%TO.P,U1,9,6/PD7*%
%TO.N,5 Column*%
X258582548Y-95669063D03*
%TO.P,U1,10,7/PE6*%
%TO.N,4 Column*%
X258405367Y-98202876D03*
%TO.P,U1,11,8/PB4*%
%TO.N,3 Column*%
X258228186Y-100736689D03*
%TO.P,U1,12,9/PB5*%
%TO.N,2 Column*%
X258051005Y-103270500D03*
%TO.P,U1,13,10/PB6*%
%TO.N,unconnected-(U1-10{slash}PB6-Pad13)*%
X273253881Y-104333590D03*
%TO.P,U1,14,16/PB2*%
%TO.N,0 Column*%
X273431063Y-101799777D03*
%TO.P,U1,15,14/PB3*%
%TO.N,1 Column*%
X273608243Y-99265965D03*
%TO.P,U1,16,15/PB1*%
%TO.N,3 Row*%
X273785425Y-96732152D03*
%TO.P,U1,17,A0/PF7*%
%TO.N,2 Row*%
X273962605Y-94198339D03*
%TO.P,U1,18,A1/PF6*%
%TO.N,1 Row*%
X274139789Y-91664526D03*
%TO.P,U1,19,A2/PF5*%
%TO.N,0 Row*%
X274316971Y-89130714D03*
%TO.P,U1,20,A3/PF4*%
%TO.N,Net-(U1-A3{slash}PF4)*%
X274494151Y-86596901D03*
%TO.P,U1,21,VCC*%
%TO.N,VCC*%
X274671333Y-84063088D03*
%TO.P,U1,22,RST*%
%TO.N,RST*%
X274848513Y-81529276D03*
%TO.P,U1,23,GND*%
%TO.N,GND*%
X275025695Y-78995463D03*
%TO.P,U1,24,RAW*%
%TO.N,unconnected-(U1-RAW-Pad24)*%
X275202877Y-76461651D03*
%TD*%
D12*
%TO.P,S8,1,1*%
%TO.N,1 Column*%
X169000000Y-86000000D03*
%TO.P,S8,2,2*%
%TO.N,Net-(D8-A)*%
X181000000Y-88200000D03*
%TD*%
%TO.P,S4,1,1*%
%TO.N,3 Column*%
X205000000Y-54700000D03*
%TO.P,S4,2,2*%
%TO.N,Net-(D4-A)*%
X217000000Y-56900000D03*
%TD*%
D15*
%TO.P,SW2,1,1*%
%TO.N,GND*%
X227000000Y-60000000D03*
D16*
%TO.P,SW2,2,2*%
%TO.N,RST*%
X233500000Y-60000000D03*
%TD*%
D10*
%TO.P,S6,1,1*%
%TO.N,5 Column*%
X245536253Y-72717787D03*
%TO.P,S6,2,2*%
%TO.N,Net-(D6-A)*%
X257298847Y-75955284D03*
%TD*%
D12*
%TO.P,S13,1,1*%
%TO.N,0 Column*%
X151225000Y-103050000D03*
%TO.P,S13,2,2*%
%TO.N,Net-(D13-A)*%
X163225000Y-105250000D03*
%TD*%
%TO.P,S15,1,1*%
%TO.N,2 Column*%
X187000000Y-95000000D03*
%TO.P,S15,2,2*%
%TO.N,Net-(D15-A)*%
X199000000Y-97200000D03*
%TD*%
%TO.P,S3,1,1*%
%TO.N,2 Column*%
X187500000Y-61500000D03*
%TO.P,S3,2,2*%
%TO.N,Net-(D3-A)*%
X199500000Y-63700000D03*
%TD*%
D17*
%TO.P,J1,R*%
%TO.N,Serial*%
X282444051Y-82620270D03*
%TO.P,J1,S*%
%TO.N,VCC*%
X281000000Y-74600000D03*
%TO.P,J1,T*%
%TO.N,GND*%
X282827713Y-77133667D03*
%TD*%
D12*
%TO.P,S9,1,1*%
%TO.N,2 Column*%
X187000000Y-78500000D03*
%TO.P,S9,2,2*%
%TO.N,Net-(D9-A)*%
X199000000Y-80700000D03*
%TD*%
%TO.P,S7,1,1*%
%TO.N,0 Column*%
X151000000Y-86000000D03*
%TO.P,S7,2,2*%
%TO.N,Net-(D7-A)*%
X163000000Y-88200000D03*
%TD*%
%TO.P,S14,1,1*%
%TO.N,1 Column*%
X169000000Y-103000000D03*
%TO.P,S14,2,2*%
%TO.N,Net-(D14-A)*%
X181000000Y-105200000D03*
%TD*%
%TO.P,S2,1,1*%
%TO.N,1 Column*%
X169000000Y-69000000D03*
%TO.P,S2,2,2*%
%TO.N,Net-(D2-A)*%
X181000000Y-71200000D03*
%TD*%
D18*
%TO.P,SW1,A,A*%
%TO.N,Net-(U1-4{slash}PD4)*%
X258794265Y-111779031D03*
D19*
%TO.P,SW1,B,B*%
%TO.N,Net-(U1-5{slash}PC6)*%
X257926024Y-116703070D03*
%TO.P,SW1,C,C*%
%TO.N,GND*%
X258360145Y-114241050D03*
D20*
%TO.P,SW1,MP,MP*%
X266718632Y-110028488D03*
X264773773Y-121058335D03*
D19*
%TO.P,SW1,S1,S1*%
%TO.N,Net-(U1-A3{slash}PF4)*%
X272205737Y-119220968D03*
%TO.P,SW1,S2,S2*%
%TO.N,GND*%
X273073977Y-114296930D03*
%TD*%
D12*
%TO.P,S16,1,1*%
%TO.N,3 Column*%
X205000000Y-89000000D03*
%TO.P,S16,2,2*%
%TO.N,Net-(D16-A)*%
X217000000Y-91200000D03*
%TD*%
D10*
%TO.P,S18,1,1*%
%TO.N,5 Column*%
X242057182Y-106238430D03*
%TO.P,S18,2,2*%
%TO.N,Net-(D18-A)*%
X253819776Y-109475927D03*
%TD*%
D21*
%TO.N,Net-(D1-A)*%
X155150000Y-80500000D03*
%TO.N,Net-(D2-A)*%
X173150000Y-80000000D03*
%TO.N,Net-(D3-A)*%
X191650000Y-72000000D03*
%TO.N,Net-(D4-A)*%
X209150000Y-65500000D03*
%TO.N,Net-(D5-A)*%
X231650000Y-82000000D03*
%TO.N,Net-(D6-A)*%
X254500000Y-83000000D03*
%TO.N,1 Row*%
X269500000Y-89000000D03*
X267000000Y-83000000D03*
X256000000Y-85032812D03*
X257500000Y-81500000D03*
%TO.N,Net-(D7-A)*%
X155150000Y-96500000D03*
%TO.N,Net-(D8-A)*%
X173150000Y-96500000D03*
%TO.N,Net-(D9-A)*%
X191150000Y-89000000D03*
%TO.N,Net-(D10-A)*%
X209150000Y-82500000D03*
%TO.N,Net-(D11-A)*%
X230650000Y-99000000D03*
%TO.N,Net-(D12-A)*%
X249500000Y-100500000D03*
%TO.N,Net-(D13-A)*%
X155650000Y-113500000D03*
%TO.N,2 Row*%
X266000000Y-92500000D03*
X257081548Y-107000000D03*
X258000000Y-105000000D03*
X261500000Y-103000000D03*
%TO.N,Net-(D14-A)*%
X173650000Y-113500000D03*
%TO.N,Net-(D15-A)*%
X191150000Y-105500000D03*
%TO.N,Net-(D16-A)*%
X209150000Y-99500000D03*
%TO.N,Net-(D17-A)*%
X229150000Y-115500000D03*
%TO.N,Net-(D18-A)*%
X248000000Y-117000000D03*
%TO.N,3 Row*%
X274500000Y-128500000D03*
%TO.N,Net-(D19-A)*%
X247000000Y-136000000D03*
%TO.N,Net-(D20-A)*%
X263150000Y-139000000D03*
%TO.N,0 Column*%
X151225000Y-103050000D03*
%TO.N,2 Column*%
X267000000Y-88500000D03*
X200500000Y-53524000D03*
X263500000Y-83500000D03*
%TO.N,3 Column*%
X247000000Y-118500000D03*
X250500000Y-122000000D03*
X258260729Y-106412202D03*
X208000000Y-103500000D03*
X257081548Y-112174265D03*
%TO.N,4 Column*%
X258792274Y-108500000D03*
X246000000Y-122000000D03*
X261100000Y-94500000D03*
X260500000Y-108500000D03*
X257500000Y-108500000D03*
%TO.N,5 Column*%
X260500000Y-101000000D03*
X256500000Y-86500000D03*
X250500000Y-97500000D03*
%TO.N,Net-(U1-A3{slash}PF4)*%
X269884205Y-110115795D03*
X270000000Y-113000000D03*
%TO.N,RST*%
X271000000Y-81500000D03*
X270500000Y-78000000D03*
%TO.N,VCC*%
X278000000Y-78000000D03*
X278500000Y-75000000D03*
%TO.N,Serial*%
X262000000Y-76000000D03*
X268000000Y-72500000D03*
X266500000Y-79500000D03*
%TD*%
D22*
%TO.N,Net-(D1-A)*%
X163000000Y-71700000D02*
X163000000Y-74339892D01*
X163000000Y-74339892D02*
X156839892Y-80500000D01*
X156839892Y-80500000D02*
X155150000Y-80500000D01*
%TO.N,Net-(D2-A)*%
X175000000Y-80000000D02*
X173150000Y-80000000D01*
X181000000Y-74000000D02*
X175000000Y-80000000D01*
X181000000Y-71200000D02*
X181000000Y-74000000D01*
%TO.N,Net-(D3-A)*%
X199500000Y-66339892D02*
X193839892Y-72000000D01*
X193839892Y-72000000D02*
X191650000Y-72000000D01*
X199500000Y-63700000D02*
X199500000Y-66339892D01*
%TO.N,Net-(D4-A)*%
X217000000Y-56900000D02*
X217000000Y-59539892D01*
X217000000Y-59539892D02*
X211039892Y-65500000D01*
X211039892Y-65500000D02*
X209150000Y-65500000D01*
%TO.N,Net-(D5-A)*%
X239554886Y-76286679D02*
X233841565Y-82000000D01*
X239554886Y-74242490D02*
X239554886Y-76286679D01*
X233841565Y-82000000D02*
X231650000Y-82000000D01*
%TO.N,Net-(D6-A)*%
X257298847Y-80201153D02*
X254500000Y-83000000D01*
X257298847Y-75955284D02*
X257298847Y-80201153D01*
%TO.N,1 Row*%
X256000000Y-83000000D02*
X257500000Y-81500000D01*
X267000000Y-83000000D02*
X267000000Y-86500000D01*
X267000000Y-86500000D02*
X269500000Y-89000000D01*
X256000000Y-85032812D02*
X256000000Y-83000000D01*
%TO.N,Net-(D7-A)*%
X163000000Y-88200000D02*
X163000000Y-90839892D01*
X163000000Y-90839892D02*
X157339892Y-96500000D01*
X157339892Y-96500000D02*
X155150000Y-96500000D01*
%TO.N,Net-(D8-A)*%
X175339892Y-96500000D02*
X173150000Y-96500000D01*
X181000000Y-88200000D02*
X181000000Y-90839892D01*
X181000000Y-90839892D02*
X175339892Y-96500000D01*
%TO.N,Net-(D9-A)*%
X199000000Y-80700000D02*
X196501000Y-83199000D01*
X195461108Y-83199000D02*
X191150000Y-87510108D01*
X196501000Y-83199000D02*
X195461108Y-83199000D01*
X191150000Y-87510108D02*
X191150000Y-89000000D01*
%TO.N,Net-(D10-A)*%
X211839892Y-82500000D02*
X209150000Y-82500000D01*
X217000000Y-74700000D02*
X217000000Y-77339892D01*
X217000000Y-77339892D02*
X211839892Y-82500000D01*
%TO.N,Net-(D11-A)*%
X232339892Y-99000000D02*
X230650000Y-99000000D01*
X237819776Y-93520116D02*
X232339892Y-99000000D01*
X237819776Y-91475927D02*
X237819776Y-93520116D01*
%TO.N,Net-(D12-A)*%
X255319776Y-94680224D02*
X249500000Y-100500000D01*
X255319776Y-92475927D02*
X255319776Y-94680224D01*
%TO.N,Net-(D13-A)*%
X157614892Y-113500000D02*
X155650000Y-113500000D01*
X163225000Y-107889892D02*
X157614892Y-113500000D01*
X163225000Y-105250000D02*
X163225000Y-107889892D01*
%TO.N,2 Row*%
X257081548Y-105918452D02*
X258000000Y-105000000D01*
X257081548Y-107000000D02*
X257081548Y-105918452D01*
X266000000Y-93880707D02*
X266000000Y-92500000D01*
X266317632Y-94198339D02*
X266000000Y-93880707D01*
X266317632Y-98182368D02*
X266317632Y-94198339D01*
X261500000Y-103000000D02*
X266317632Y-98182368D01*
%TO.N,Net-(D14-A)*%
X173650000Y-111510108D02*
X173650000Y-113500000D01*
X178501000Y-107699000D02*
X177461108Y-107699000D01*
X181000000Y-105200000D02*
X178501000Y-107699000D01*
X177461108Y-107699000D02*
X173650000Y-111510108D01*
%TO.N,Net-(D15-A)*%
X193339892Y-105500000D02*
X191150000Y-105500000D01*
X199000000Y-99839892D02*
X193339892Y-105500000D01*
X199000000Y-97200000D02*
X199000000Y-99839892D01*
%TO.N,Net-(D16-A)*%
X211339892Y-99500000D02*
X209150000Y-99500000D01*
X217000000Y-93839892D02*
X211339892Y-99500000D01*
X217000000Y-91200000D02*
X217000000Y-93839892D01*
%TO.N,Net-(D17-A)*%
X236298847Y-107955284D02*
X236298847Y-109999473D01*
X236298847Y-109999473D02*
X230798320Y-115500000D01*
X230798320Y-115500000D02*
X229150000Y-115500000D01*
%TO.N,Net-(D18-A)*%
X253819776Y-111680224D02*
X248500000Y-117000000D01*
X248500000Y-117000000D02*
X248000000Y-117000000D01*
X253819776Y-109475927D02*
X253819776Y-111680224D01*
%TO.N,3 Row*%
X276000000Y-99415184D02*
X273316968Y-96732152D01*
X274500000Y-128500000D02*
X276000000Y-127000000D01*
X276000000Y-127000000D02*
X276000000Y-99415184D01*
%TO.N,Net-(D19-A)*%
X253253366Y-129233740D02*
X253253366Y-130680671D01*
X253253366Y-130680671D02*
X247934037Y-136000000D01*
X247934037Y-136000000D02*
X247000000Y-136000000D01*
%TO.N,Net-(D20-A)*%
X270530729Y-133680671D02*
X265211400Y-139000000D01*
X270530729Y-132233740D02*
X270530729Y-133680671D01*
X265211400Y-139000000D02*
X263150000Y-139000000D01*
%TO.N,0 Column*%
X151000000Y-69500000D02*
X151000000Y-102825000D01*
X151000000Y-102825000D02*
X151225000Y-103050000D01*
%TO.N,1 Column*%
X276399000Y-76002082D02*
X275948459Y-75551541D01*
X273139786Y-99265965D02*
X270285205Y-96411384D01*
X276399000Y-81535839D02*
X276399000Y-76002082D01*
X262128709Y-74371291D02*
X244257418Y-56500000D01*
X275304563Y-82630276D02*
X276399000Y-81535839D01*
X200076000Y-52924000D02*
X196500000Y-56500000D01*
X274768209Y-74371291D02*
X262128709Y-74371291D01*
X276236420Y-75839501D02*
X275948459Y-75551541D01*
X275595151Y-87052951D02*
X275595151Y-86095151D01*
X275595151Y-86095151D02*
X274995901Y-85495901D01*
X272924694Y-83629588D02*
X273924006Y-82630276D01*
X273569644Y-85495901D02*
X272924694Y-84850951D01*
X244257418Y-56500000D02*
X220500000Y-56500000D01*
X181500000Y-56500000D02*
X169000000Y-69000000D01*
X273569644Y-87697901D02*
X274950201Y-87697901D01*
X220500000Y-56500000D02*
X216924000Y-52924000D01*
X272924694Y-84850951D02*
X272924694Y-83629588D01*
X275948459Y-75551541D02*
X274768209Y-74371291D01*
X270285205Y-90982340D02*
X273569644Y-87697901D01*
X216924000Y-52924000D02*
X200076000Y-52924000D01*
X273924006Y-82630276D02*
X275304563Y-82630276D01*
X169000000Y-69000000D02*
X169000000Y-103000000D01*
X196500000Y-56500000D02*
X181500000Y-56500000D01*
X274995901Y-85495901D02*
X273569644Y-85495901D01*
X270285205Y-96411384D02*
X270285205Y-90982340D01*
X274950201Y-87697901D02*
X275595151Y-87052951D01*
%TO.N,2 Column*%
X263500000Y-85000000D02*
X267000000Y-88500000D01*
X187500000Y-61500000D02*
X192099000Y-56901000D01*
X197123000Y-56901000D02*
X200500000Y-53524000D01*
X263500000Y-83500000D02*
X263500000Y-85000000D01*
X187500000Y-94500000D02*
X187000000Y-95000000D01*
X187500000Y-61500000D02*
X187500000Y-94500000D01*
X192099000Y-56901000D02*
X197123000Y-56901000D01*
%TO.N,3 Column*%
X258260729Y-106412202D02*
X258260729Y-106889328D01*
X208000000Y-103500000D02*
X205000000Y-100500000D01*
X256899000Y-108251057D02*
X256899000Y-111991717D01*
X250500000Y-122000000D02*
X247000000Y-118500000D01*
X256899000Y-111991717D02*
X257081548Y-112174265D01*
X205000000Y-54700000D02*
X205000000Y-89000000D01*
X205000000Y-100500000D02*
X205000000Y-89000000D01*
X258260729Y-106889328D02*
X256899000Y-108251057D01*
%TO.N,4 Column*%
X257500000Y-108500000D02*
X258860729Y-107139271D01*
X241817699Y-124983385D02*
X234643779Y-124983385D01*
X234643779Y-124983385D02*
X224536253Y-114875859D01*
X227792292Y-87707708D02*
X227261570Y-88238430D01*
X258860729Y-107139271D02*
X258792274Y-107207726D01*
X258792274Y-107207726D02*
X258792274Y-108500000D01*
X245301084Y-121500000D02*
X245500000Y-121500000D01*
X241817699Y-124983385D02*
X245301084Y-121500000D01*
X226057182Y-88238430D02*
X226057182Y-103196858D01*
X260500000Y-101849943D02*
X261100000Y-101249943D01*
X227261570Y-88238430D02*
X226057182Y-88238430D01*
X226057182Y-103196858D02*
X224536253Y-104717787D01*
X245500000Y-121500000D02*
X246000000Y-122000000D01*
X260500000Y-108500000D02*
X260500000Y-101849943D01*
X227792292Y-71004993D02*
X227792292Y-87707708D01*
X261100000Y-101249943D02*
X261100000Y-94500000D01*
X224536253Y-114875859D02*
X224536253Y-104717787D01*
%TO.N,5 Column*%
X250500000Y-96563807D02*
X250500000Y-97500000D01*
X242057182Y-106238430D02*
X242057182Y-115266979D01*
X245536253Y-86463747D02*
X245159148Y-86840852D01*
X242057182Y-115266979D02*
X254773588Y-127983385D01*
X256500000Y-86500000D02*
X256634812Y-86634812D01*
X260500000Y-87896480D02*
X260500000Y-101000000D01*
X259238332Y-86634812D02*
X260500000Y-87896480D01*
X254773588Y-127983385D02*
X259095062Y-127983385D01*
X256634812Y-86634812D02*
X259238332Y-86634812D01*
X245536253Y-86463747D02*
X239740858Y-92259142D01*
X245536253Y-72717787D02*
X245536253Y-86463747D01*
X239740858Y-103922106D02*
X242057182Y-106238430D01*
X239740858Y-92259142D02*
X239740858Y-103922106D01*
X245159148Y-91222955D02*
X250500000Y-96563807D01*
X245159148Y-86840852D02*
X245159148Y-91222955D01*
%TO.N,GND*%
X261154856Y-78488511D02*
X261154856Y-74531638D01*
X262506070Y-114241050D02*
X266718632Y-110028488D01*
X261154856Y-74531638D02*
X260295838Y-73672620D01*
X266718632Y-90718632D02*
X266718632Y-110028488D01*
X259177181Y-80466186D02*
X261154856Y-78488511D01*
X259827380Y-73672620D02*
X247580761Y-61426000D01*
X264773773Y-121058335D02*
X266718632Y-119113476D01*
X259000000Y-83000000D02*
X266718632Y-90718632D01*
X247580761Y-61426000D02*
X228426000Y-61426000D01*
X259177181Y-80466186D02*
X273086515Y-80466186D01*
X268805535Y-110028488D02*
X266718632Y-110028488D01*
X258360145Y-114241050D02*
X262506070Y-114241050D01*
X266718632Y-119113476D02*
X266718632Y-110028488D01*
X259177181Y-82822819D02*
X259000000Y-83000000D01*
X273073977Y-114296930D02*
X268805535Y-110028488D01*
X259177181Y-80466186D02*
X259177181Y-82822819D01*
X228426000Y-61426000D02*
X227000000Y-60000000D01*
X273086515Y-80466186D02*
X274557238Y-78995463D01*
X260295838Y-73672620D02*
X259827380Y-73672620D01*
%TO.N,Net-(U1-5{slash}PC6)*%
X257926024Y-116703070D02*
X256481548Y-115258594D01*
X256481548Y-115258594D02*
X256481548Y-94944977D01*
X256481548Y-94944977D02*
X258291274Y-93135251D01*
%TO.N,Net-(U1-A3{slash}PF4)*%
X269884205Y-110115795D02*
X269884205Y-90738390D01*
X270000000Y-117015231D02*
X270000000Y-113000000D01*
X272205737Y-119220968D02*
X270000000Y-117015231D01*
X269884205Y-90738390D02*
X274025694Y-86596901D01*
%TO.N,Net-(U1-4{slash}PD4)*%
X259860731Y-91993714D02*
X259860731Y-110712565D01*
X259860731Y-110712565D02*
X258794265Y-111779031D01*
X258468456Y-90601439D02*
X259860731Y-91993714D01*
%TO.N,RST*%
X274409332Y-81500000D02*
X271000000Y-81500000D01*
X247190318Y-60000000D02*
X233500000Y-60000000D01*
X270500000Y-78000000D02*
X265190318Y-78000000D01*
X265190318Y-78000000D02*
X247190318Y-60000000D01*
%TO.N,VCC*%
X274250032Y-84015932D02*
X274202876Y-84063088D01*
X281000000Y-74600000D02*
X278900000Y-74600000D01*
X278000000Y-78000000D02*
X278000000Y-80734421D01*
X278000000Y-80734421D02*
X274671333Y-84063088D01*
X278900000Y-74600000D02*
X278500000Y-75000000D01*
%TO.N,Serial*%
X282444051Y-80444051D02*
X274500000Y-72500000D01*
X266000000Y-79000000D02*
X265000000Y-79000000D01*
X274500000Y-72500000D02*
X268000000Y-72500000D01*
X266500000Y-79500000D02*
X266000000Y-79000000D01*
X265000000Y-79000000D02*
X262000000Y-76000000D01*
X282444051Y-82620270D02*
X282444051Y-80444051D01*
%TD*%
M02*
