%TF.GenerationSoftware,KiCad,Pcbnew,9.0.6-1.fc43*%
%TF.CreationDate,2026-01-15T13:21:32-05:00*%
%TF.ProjectId,Left,4c656674-2e6b-4696-9361-645f70636258,rev?*%
%TF.SameCoordinates,Original*%
%TF.FileFunction,Paste,Bot*%
%TF.FilePolarity,Positive*%
%FSLAX46Y46*%
G04 Gerber Fmt 4.6, Leading zero omitted, Abs format (unit mm)*
G04 Created by KiCad (PCBNEW 9.0.6-1.fc43) date 2026-01-15 13:21:32*
%MOMM*%
%LPD*%
G01*
G04 APERTURE LIST*
G04 Aperture macros list*
%AMRoundRect*
0 Rectangle with rounded corners*
0 $1 Rounding radius*
0 $2 $3 $4 $5 $6 $7 $8 $9 X,Y pos of 4 corners*
0 Add a 4 corners polygon primitive as box body*
4,1,4,$2,$3,$4,$5,$6,$7,$8,$9,$2,$3,0*
0 Add four circle primitives for the rounded corners*
1,1,$1+$1,$2,$3*
1,1,$1+$1,$4,$5*
1,1,$1+$1,$6,$7*
1,1,$1+$1,$8,$9*
0 Add four rect primitives between the rounded corners*
20,1,$1+$1,$2,$3,$4,$5,0*
20,1,$1+$1,$4,$5,$6,$7,0*
20,1,$1+$1,$6,$7,$8,$9,0*
20,1,$1+$1,$8,$9,$2,$3,0*%
G04 Aperture macros list end*
%ADD10RoundRect,0.250000X-1.108255X-0.906860X0.933944X-1.085529X1.108255X0.906860X-0.933944X1.085529X0*%
%ADD11RoundRect,0.250000X-1.183076X-0.806818X0.835780X-1.162797X1.183076X0.806818X-0.835780X1.162797X0*%
%ADD12RoundRect,0.250000X-1.025000X-1.000000X1.025000X-1.000000X1.025000X1.000000X-1.025000X1.000000X0*%
G04 APERTURE END LIST*
D10*
%TO.C,S12*%
X243557182Y-89238430D03*
X255319776Y-92475927D03*
%TD*%
D11*
%TO.C,S20*%
X259095062Y-127983385D03*
X270530729Y-132233740D03*
%TD*%
D10*
%TO.C,S17*%
X224536253Y-104717787D03*
X236298847Y-107955284D03*
%TD*%
D12*
%TO.C,S10*%
X205000000Y-72500000D03*
X217000000Y-74700000D03*
%TD*%
D10*
%TO.C,S5*%
X227792292Y-71004993D03*
X239554886Y-74242490D03*
%TD*%
D12*
%TO.C,S1*%
X151000000Y-69500000D03*
X163000000Y-71700000D03*
%TD*%
D10*
%TO.C,S11*%
X226057182Y-88238430D03*
X237819776Y-91475927D03*
%TD*%
D11*
%TO.C,S19*%
X241817699Y-124983385D03*
X253253366Y-129233740D03*
%TD*%
D12*
%TO.C,S8*%
X169000000Y-86000000D03*
X181000000Y-88200000D03*
%TD*%
%TO.C,S4*%
X205000000Y-54700000D03*
X217000000Y-56900000D03*
%TD*%
D10*
%TO.C,S6*%
X245536253Y-72717787D03*
X257298847Y-75955284D03*
%TD*%
D12*
%TO.C,S13*%
X151225000Y-103050000D03*
X163225000Y-105250000D03*
%TD*%
%TO.C,S15*%
X187000000Y-95000000D03*
X199000000Y-97200000D03*
%TD*%
%TO.C,S3*%
X187500000Y-61500000D03*
X199500000Y-63700000D03*
%TD*%
%TO.C,S9*%
X187000000Y-78500000D03*
X199000000Y-80700000D03*
%TD*%
%TO.C,S7*%
X151000000Y-86000000D03*
X163000000Y-88200000D03*
%TD*%
%TO.C,S14*%
X169000000Y-103000000D03*
X181000000Y-105200000D03*
%TD*%
%TO.C,S2*%
X169000000Y-69000000D03*
X181000000Y-71200000D03*
%TD*%
%TO.C,S16*%
X205000000Y-89000000D03*
X217000000Y-91200000D03*
%TD*%
D10*
%TO.C,S18*%
X242057182Y-106238430D03*
X253819776Y-109475927D03*
%TD*%
M02*
