%TF.GenerationSoftware,KiCad,Pcbnew,9.0.6-1.fc43*%
%TF.CreationDate,2026-01-15T13:21:33-05:00*%
%TF.ProjectId,Left,4c656674-2e6b-4696-9361-645f70636258,rev?*%
%TF.SameCoordinates,Original*%
%TF.FileFunction,Soldermask,Bot*%
%TF.FilePolarity,Negative*%
%FSLAX46Y46*%
G04 Gerber Fmt 4.6, Leading zero omitted, Abs format (unit mm)*
G04 Created by KiCad (PCBNEW 9.0.6-1.fc43) date 2026-01-15 13:21:33*
%MOMM*%
%LPD*%
G01*
G04 APERTURE LIST*
G04 Aperture macros list*
%AMRoundRect*
0 Rectangle with rounded corners*
0 $1 Rounding radius*
0 $2 $3 $4 $5 $6 $7 $8 $9 X,Y pos of 4 corners*
0 Add a 4 corners polygon primitive as box body*
4,1,4,$2,$3,$4,$5,$6,$7,$8,$9,$2,$3,0*
0 Add four circle primitives for the rounded corners*
1,1,$1+$1,$2,$3*
1,1,$1+$1,$4,$5*
1,1,$1+$1,$6,$7*
1,1,$1+$1,$8,$9*
0 Add four rect primitives between the rounded corners*
20,1,$1+$1,$2,$3,$4,$5,0*
20,1,$1+$1,$4,$5,$6,$7,0*
20,1,$1+$1,$6,$7,$8,$9,0*
20,1,$1+$1,$8,$9,$2,$3,0*%
%AMHorizOval*
0 Thick line with rounded ends*
0 $1 width*
0 $2 $3 position (X,Y) of the first rounded end (center of the circle)*
0 $4 $5 position (X,Y) of the second rounded end (center of the circle)*
0 Add line between two ends*
20,1,$1,$2,$3,$4,$5,0*
0 Add two circle primitives to create the rounded ends*
1,1,$1,$2,$3*
1,1,$1,$4,$5*%
%AMRotRect*
0 Rectangle, with rotation*
0 The origin of the aperture is its center*
0 $1 length*
0 $2 width*
0 $3 Rotation angle, in degrees counterclockwise*
0 Add horizontal line*
21,1,$1,$2,0,0,$3*%
G04 Aperture macros list end*
%ADD10C,1.900000*%
%ADD11C,3.050000*%
%ADD12C,3.450000*%
%ADD13RoundRect,0.250000X-1.108255X-0.906860X0.933944X-1.085529X1.108255X0.906860X-0.933944X1.085529X0*%
%ADD14RoundRect,0.250000X-1.183076X-0.806818X0.835780X-1.162797X1.183076X0.806818X-0.835780X1.162797X0*%
%ADD15RoundRect,0.250000X-1.025000X-1.000000X1.025000X-1.000000X1.025000X1.000000X-1.025000X1.000000X0*%
%ADD16RotRect,1.600000X1.600000X176.000000*%
%ADD17HorizOval,1.600000X0.000000X0.000000X0.000000X0.000000X0*%
%ADD18R,2.250000X2.250000*%
%ADD19C,2.250000*%
%ADD20C,2.800000*%
%ADD21RotRect,2.000000X2.000000X350.000000*%
%ADD22C,2.000000*%
%ADD23RotRect,3.200000X2.000000X350.000000*%
G04 APERTURE END LIST*
D10*
%TO.C,S12*%
X241041858Y-95041286D03*
D11*
X247035148Y-89643094D03*
D12*
X246520929Y-95520643D03*
D11*
X251833094Y-92170882D03*
D10*
X252000000Y-96000000D03*
D13*
X243557182Y-89238430D03*
X255319776Y-92475927D03*
%TD*%
D10*
%TO.C,S20*%
X256083557Y-133544935D03*
D11*
X262524524Y-128689634D03*
D12*
X261500000Y-134500000D03*
D11*
X267083902Y-131625971D03*
D10*
X266916443Y-135455065D03*
D14*
X259095062Y-127983385D03*
X270530729Y-132233740D03*
%TD*%
D10*
%TO.C,S17*%
X222020929Y-110520643D03*
D11*
X228014219Y-105122451D03*
D12*
X227500000Y-111000000D03*
D11*
X232812165Y-107650239D03*
D10*
X232979071Y-111479357D03*
D13*
X224536253Y-104717787D03*
X236298847Y-107955284D03*
%TD*%
D10*
%TO.C,S10*%
X203000000Y-78500000D03*
D11*
X208500000Y-72600000D03*
D12*
X208500000Y-78500000D03*
D11*
X213500000Y-74700000D03*
D10*
X214000000Y-78500000D03*
D15*
X205000000Y-72500000D03*
X217000000Y-74700000D03*
%TD*%
D10*
%TO.C,S5*%
X225276968Y-76807849D03*
D11*
X231270258Y-71409657D03*
D12*
X230756039Y-77287206D03*
D11*
X236068204Y-73937445D03*
D10*
X236235110Y-77766563D03*
D13*
X227792292Y-71004993D03*
X239554886Y-74242490D03*
%TD*%
D10*
%TO.C,S1*%
X149000000Y-75500000D03*
D11*
X154500000Y-69600000D03*
D12*
X154500000Y-75500000D03*
D11*
X159500000Y-71700000D03*
D10*
X160000000Y-75500000D03*
D15*
X151000000Y-69500000D03*
X163000000Y-71700000D03*
%TD*%
D10*
%TO.C,S11*%
X223541858Y-94041286D03*
D11*
X229535148Y-88643094D03*
D12*
X229020929Y-94520643D03*
D11*
X234333094Y-91170882D03*
D10*
X234500000Y-95000000D03*
D13*
X226057182Y-88238430D03*
X237819776Y-91475927D03*
%TD*%
D10*
%TO.C,S19*%
X238806194Y-130544935D03*
D11*
X245247161Y-125689634D03*
D12*
X244222637Y-131500000D03*
D11*
X249806539Y-128625971D03*
D10*
X249639080Y-132455065D03*
D14*
X241817699Y-124983385D03*
X253253366Y-129233740D03*
%TD*%
D16*
%TO.C,U1*%
X260000000Y-75398562D03*
D17*
X259822819Y-77932375D03*
X259645638Y-80466186D03*
X259468457Y-83000000D03*
X259291275Y-85533812D03*
X259114094Y-88067624D03*
X258936913Y-90601439D03*
X258759731Y-93135251D03*
X258582548Y-95669063D03*
X258405367Y-98202876D03*
X258228186Y-100736689D03*
X258051005Y-103270500D03*
X273253881Y-104333590D03*
X273431063Y-101799777D03*
X273608243Y-99265965D03*
X273785425Y-96732152D03*
X273962605Y-94198339D03*
X274139789Y-91664526D03*
X274316971Y-89130714D03*
X274494151Y-86596901D03*
X274671333Y-84063088D03*
X274848513Y-81529276D03*
X275025695Y-78995463D03*
X275202877Y-76461651D03*
%TD*%
D10*
%TO.C,S8*%
X167000000Y-92000000D03*
D11*
X172500000Y-86100000D03*
D12*
X172500000Y-92000000D03*
D11*
X177500000Y-88200000D03*
D10*
X178000000Y-92000000D03*
D15*
X169000000Y-86000000D03*
X181000000Y-88200000D03*
%TD*%
D10*
%TO.C,S4*%
X203000000Y-60700000D03*
D11*
X208500000Y-54800000D03*
D12*
X208500000Y-60700000D03*
D11*
X213500000Y-56900000D03*
D10*
X214000000Y-60700000D03*
D15*
X205000000Y-54700000D03*
X217000000Y-56900000D03*
%TD*%
D18*
%TO.C,SW2*%
X227000000Y-60000000D03*
D19*
X233500000Y-60000000D03*
%TD*%
D10*
%TO.C,S6*%
X243020929Y-78520643D03*
D11*
X249014219Y-73122451D03*
D12*
X248500000Y-79000000D03*
D11*
X253812165Y-75650239D03*
D10*
X253979071Y-79479357D03*
D13*
X245536253Y-72717787D03*
X257298847Y-75955284D03*
%TD*%
D10*
%TO.C,S13*%
X149225000Y-109050000D03*
D11*
X154725000Y-103150000D03*
D12*
X154725000Y-109050000D03*
D11*
X159725000Y-105250000D03*
D10*
X160225000Y-109050000D03*
D15*
X151225000Y-103050000D03*
X163225000Y-105250000D03*
%TD*%
D10*
%TO.C,S15*%
X185000000Y-101000000D03*
D11*
X190500000Y-95100000D03*
D12*
X190500000Y-101000000D03*
D11*
X195500000Y-97200000D03*
D10*
X196000000Y-101000000D03*
D15*
X187000000Y-95000000D03*
X199000000Y-97200000D03*
%TD*%
D10*
%TO.C,S3*%
X185500000Y-67500000D03*
D11*
X191000000Y-61600000D03*
D12*
X191000000Y-67500000D03*
D11*
X196000000Y-63700000D03*
D10*
X196500000Y-67500000D03*
D15*
X187500000Y-61500000D03*
X199500000Y-63700000D03*
%TD*%
D20*
%TO.C,J1*%
X282444051Y-82620270D03*
X281000000Y-74600000D03*
X282827713Y-77133667D03*
%TD*%
D10*
%TO.C,S9*%
X185000000Y-84500000D03*
D11*
X190500000Y-78600000D03*
D12*
X190500000Y-84500000D03*
D11*
X195500000Y-80700000D03*
D10*
X196000000Y-84500000D03*
D15*
X187000000Y-78500000D03*
X199000000Y-80700000D03*
%TD*%
D10*
%TO.C,S7*%
X149000000Y-92000000D03*
D11*
X154500000Y-86100000D03*
D12*
X154500000Y-92000000D03*
D11*
X159500000Y-88200000D03*
D10*
X160000000Y-92000000D03*
D15*
X151000000Y-86000000D03*
X163000000Y-88200000D03*
%TD*%
D10*
%TO.C,S14*%
X167000000Y-109000000D03*
D11*
X172500000Y-103100000D03*
D12*
X172500000Y-109000000D03*
D11*
X177500000Y-105200000D03*
D10*
X178000000Y-109000000D03*
D15*
X169000000Y-103000000D03*
X181000000Y-105200000D03*
%TD*%
D10*
%TO.C,S2*%
X167000000Y-75000000D03*
D11*
X172500000Y-69100000D03*
D12*
X172500000Y-75000000D03*
D11*
X177500000Y-71200000D03*
D10*
X178000000Y-75000000D03*
D15*
X169000000Y-69000000D03*
X181000000Y-71200000D03*
%TD*%
D21*
%TO.C,SW1*%
X258794265Y-111779031D03*
D22*
X257926024Y-116703070D03*
X258360145Y-114241050D03*
D23*
X266718632Y-110028488D03*
X264773773Y-121058335D03*
D22*
X272205737Y-119220968D03*
X273073977Y-114296930D03*
%TD*%
D10*
%TO.C,S16*%
X203000000Y-95000000D03*
D11*
X208500000Y-89100000D03*
D12*
X208500000Y-95000000D03*
D11*
X213500000Y-91200000D03*
D10*
X214000000Y-95000000D03*
D15*
X205000000Y-89000000D03*
X217000000Y-91200000D03*
%TD*%
D10*
%TO.C,S18*%
X239541858Y-112041286D03*
D11*
X245535148Y-106643094D03*
D12*
X245020929Y-112520643D03*
D11*
X250333094Y-109170882D03*
D10*
X250500000Y-113000000D03*
D13*
X242057182Y-106238430D03*
X253819776Y-109475927D03*
%TD*%
M02*
