%TF.GenerationSoftware,KiCad,Pcbnew,9.0.6-1.fc43*%
%TF.CreationDate,2026-01-15T13:21:32-05:00*%
%TF.ProjectId,Left,4c656674-2e6b-4696-9361-645f70636258,rev?*%
%TF.SameCoordinates,Original*%
%TF.FileFunction,Paste,Top*%
%TF.FilePolarity,Positive*%
%FSLAX46Y46*%
G04 Gerber Fmt 4.6, Leading zero omitted, Abs format (unit mm)*
G04 Created by KiCad (PCBNEW 9.0.6-1.fc43) date 2026-01-15 13:21:32*
%MOMM*%
%LPD*%
G01*
G04 APERTURE LIST*
G04 Aperture macros list*
%AMRoundRect*
0 Rectangle with rounded corners*
0 $1 Rounding radius*
0 $2 $3 $4 $5 $6 $7 $8 $9 X,Y pos of 4 corners*
0 Add a 4 corners polygon primitive as box body*
4,1,4,$2,$3,$4,$5,$6,$7,$8,$9,$2,$3,0*
0 Add four circle primitives for the rounded corners*
1,1,$1+$1,$2,$3*
1,1,$1+$1,$4,$5*
1,1,$1+$1,$6,$7*
1,1,$1+$1,$8,$9*
0 Add four rect primitives between the rounded corners*
20,1,$1+$1,$2,$3,$4,$5,0*
20,1,$1+$1,$4,$5,$6,$7,0*
20,1,$1+$1,$6,$7,$8,$9,0*
20,1,$1+$1,$8,$9,$2,$3,0*%
G04 Aperture macros list end*
%ADD10RoundRect,0.225000X-0.225000X-0.375000X0.225000X-0.375000X0.225000X0.375000X-0.225000X0.375000X0*%
G04 APERTURE END LIST*
D10*
%TO.C,D5*%
X228350000Y-82000000D03*
X231650000Y-82000000D03*
%TD*%
%TO.C,D10*%
X205850000Y-82500000D03*
X209150000Y-82500000D03*
%TD*%
%TO.C,D7*%
X151850000Y-96500000D03*
X155150000Y-96500000D03*
%TD*%
%TO.C,D16*%
X205850000Y-99500000D03*
X209150000Y-99500000D03*
%TD*%
%TO.C,D3*%
X188350000Y-72000000D03*
X191650000Y-72000000D03*
%TD*%
%TO.C,D6*%
X246350000Y-83500000D03*
X249650000Y-83500000D03*
%TD*%
%TO.C,D15*%
X187850000Y-105500000D03*
X191150000Y-105500000D03*
%TD*%
%TO.C,D11*%
X227350000Y-99000000D03*
X230650000Y-99000000D03*
%TD*%
%TO.C,D18*%
X243350000Y-117000000D03*
X246650000Y-117000000D03*
%TD*%
%TO.C,D8*%
X169850000Y-96500000D03*
X173150000Y-96500000D03*
%TD*%
%TO.C,D14*%
X170350000Y-113500000D03*
X173650000Y-113500000D03*
%TD*%
%TO.C,D13*%
X152350000Y-113500000D03*
X155650000Y-113500000D03*
%TD*%
%TO.C,D20*%
X259850000Y-139000000D03*
X263150000Y-139000000D03*
%TD*%
%TO.C,D2*%
X169850000Y-80000000D03*
X173150000Y-80000000D03*
%TD*%
%TO.C,D4*%
X205850000Y-65500000D03*
X209150000Y-65500000D03*
%TD*%
%TO.C,D17*%
X225850000Y-115500000D03*
X229150000Y-115500000D03*
%TD*%
%TO.C,D9*%
X187850000Y-89000000D03*
X191150000Y-89000000D03*
%TD*%
%TO.C,D1*%
X151850000Y-80500000D03*
X155150000Y-80500000D03*
%TD*%
%TO.C,D12*%
X244350000Y-100500000D03*
X247650000Y-100500000D03*
%TD*%
%TO.C,D19*%
X242350000Y-136000000D03*
X245650000Y-136000000D03*
%TD*%
M02*
