M48
; DRILL file {KiCad 9.0.6-1.fc43} date 2026-01-15T13:13:47-0500
; FORMAT={-:-/ absolute / metric / decimal}
; #@! TF.CreationDate,2026-01-15T13:13:47-05:00
; #@! TF.GenerationSoftware,Kicad,Pcbnew,9.0.6-1.fc43
; #@! TF.FileFunction,Plated,1,2,PTH
FMAT,2
METRIC
; #@! TA.AperFunction,Plated,PTH,ViaDrill
T1C0.300
; #@! TA.AperFunction,Plated,PTH,ComponentDrill
T2C0.800
; #@! TA.AperFunction,Plated,PTH,ComponentDrill
T3C1.000
; #@! TA.AperFunction,Plated,PTH,ComponentDrill
T4C1.300
; #@! TA.AperFunction,Plated,PTH,ComponentDrill
T5C1.500
; #@! TA.AperFunction,Plated,PTH,ComponentDrill
T6C2.000
%
G90
G05
T1
X151.225Y-103.05
X155.15Y-80.5
X155.15Y-96.5
X155.65Y-113.5
X173.15Y-80.0
X173.15Y-96.5
X173.65Y-113.5
X191.15Y-89.0
X191.15Y-105.5
X191.65Y-72.0
X200.5Y-53.524
X208.0Y-103.5
X209.15Y-65.5
X209.15Y-82.5
X209.15Y-99.5
X229.15Y-115.5
X230.65Y-99.0
X231.65Y-82.0
X246.0Y-122.0
X247.0Y-118.5
X247.0Y-136.0
X248.0Y-117.0
X249.5Y-100.5
X250.5Y-97.5
X250.5Y-122.0
X254.5Y-83.0
X256.0Y-85.033
X256.5Y-86.5
X257.082Y-107.0
X257.082Y-112.174
X257.5Y-81.5
X257.5Y-108.5
X258.0Y-105.0
X258.261Y-106.412
X258.792Y-108.5
X260.5Y-101.0
X260.5Y-108.5
X261.1Y-94.5
X261.5Y-103.0
X262.0Y-76.0
X263.15Y-139.0
X263.5Y-83.5
X266.0Y-92.5
X266.5Y-79.5
X267.0Y-83.0
X267.0Y-88.5
X268.0Y-72.5
X269.5Y-89.0
X269.884Y-110.116
X270.0Y-113.0
X270.5Y-78.0
X271.0Y-81.5
X274.5Y-128.5
X278.0Y-78.0
X278.5Y-75.0
T2
X258.051Y-103.27
X258.228Y-100.737
X258.405Y-98.203
X258.583Y-95.669
X258.76Y-93.135
X258.937Y-90.601
X259.114Y-88.068
X259.291Y-85.534
X259.468Y-83.0
X259.646Y-80.466
X259.823Y-77.932
X260.0Y-75.399
X273.254Y-104.334
X273.431Y-101.8
X273.608Y-99.266
X273.785Y-96.732
X273.963Y-94.198
X274.14Y-91.665
X274.317Y-89.131
X274.494Y-86.597
X274.671Y-84.063
X274.849Y-81.529
X275.026Y-78.995
X275.203Y-76.462
T3
X257.926Y-116.703
X258.36Y-114.241
X258.794Y-111.779
X272.206Y-119.221
X273.074Y-114.297
T4
X227.0Y-60.0
X233.5Y-60.0
T6
X281.0Y-74.6
X282.444Y-82.62
X282.828Y-77.134
T5
G00X264.134Y-120.945
M15
G01X265.414Y-121.171
M16
G05
G00X266.079Y-109.916
M15
G01X267.359Y-110.141
M16
G05
M30
