%TF.GenerationSoftware,KiCad,Pcbnew,9.0.6-1.fc43*%
%TF.CreationDate,2026-01-15T13:21:32-05:00*%
%TF.ProjectId,Left,4c656674-2e6b-4696-9361-645f70636258,rev?*%
%TF.SameCoordinates,Original*%
%TF.FileFunction,Copper,L1,Top*%
%TF.FilePolarity,Positive*%
%FSLAX46Y46*%
G04 Gerber Fmt 4.6, Leading zero omitted, Abs format (unit mm)*
G04 Created by KiCad (PCBNEW 9.0.6-1.fc43) date 2026-01-15 13:21:32*
%MOMM*%
%LPD*%
G01*
G04 APERTURE LIST*
G04 Aperture macros list*
%AMRoundRect*
0 Rectangle with rounded corners*
0 $1 Rounding radius*
0 $2 $3 $4 $5 $6 $7 $8 $9 X,Y pos of 4 corners*
0 Add a 4 corners polygon primitive as box body*
4,1,4,$2,$3,$4,$5,$6,$7,$8,$9,$2,$3,0*
0 Add four circle primitives for the rounded corners*
1,1,$1+$1,$2,$3*
1,1,$1+$1,$4,$5*
1,1,$1+$1,$6,$7*
1,1,$1+$1,$8,$9*
0 Add four rect primitives between the rounded corners*
20,1,$1+$1,$2,$3,$4,$5,0*
20,1,$1+$1,$4,$5,$6,$7,0*
20,1,$1+$1,$6,$7,$8,$9,0*
20,1,$1+$1,$8,$9,$2,$3,0*%
%AMHorizOval*
0 Thick line with rounded ends*
0 $1 width*
0 $2 $3 position (X,Y) of the first rounded end (center of the circle)*
0 $4 $5 position (X,Y) of the second rounded end (center of the circle)*
0 Add line between two ends*
20,1,$1,$2,$3,$4,$5,0*
0 Add two circle primitives to create the rounded ends*
1,1,$1,$2,$3*
1,1,$1,$4,$5*%
%AMRotRect*
0 Rectangle, with rotation*
0 The origin of the aperture is its center*
0 $1 length*
0 $2 width*
0 $3 Rotation angle, in degrees counterclockwise*
0 Add horizontal line*
21,1,$1,$2,0,0,$3*%
G04 Aperture macros list end*
%TA.AperFunction,SMDPad,CuDef*%
%ADD10RoundRect,0.225000X-0.225000X-0.375000X0.225000X-0.375000X0.225000X0.375000X-0.225000X0.375000X0*%
%TD*%
%TA.AperFunction,ComponentPad*%
%ADD11RotRect,1.600000X1.600000X176.000000*%
%TD*%
%TA.AperFunction,ComponentPad*%
%ADD12HorizOval,1.600000X0.000000X0.000000X0.000000X0.000000X0*%
%TD*%
%TA.AperFunction,ComponentPad*%
%ADD13R,2.250000X2.250000*%
%TD*%
%TA.AperFunction,ComponentPad*%
%ADD14C,2.250000*%
%TD*%
%TA.AperFunction,ComponentPad*%
%ADD15C,2.800000*%
%TD*%
%TA.AperFunction,ComponentPad*%
%ADD16RotRect,2.000000X2.000000X350.000000*%
%TD*%
%TA.AperFunction,ComponentPad*%
%ADD17C,2.000000*%
%TD*%
%TA.AperFunction,ComponentPad*%
%ADD18RotRect,3.200000X2.000000X350.000000*%
%TD*%
%TA.AperFunction,ViaPad*%
%ADD19C,0.600000*%
%TD*%
%TA.AperFunction,Conductor*%
%ADD20C,0.200000*%
%TD*%
G04 APERTURE END LIST*
D10*
%TO.P,D5,1,K*%
%TO.N,0 Row*%
X228350000Y-82000000D03*
%TO.P,D5,2,A*%
%TO.N,Net-(D5-A)*%
X231650000Y-82000000D03*
%TD*%
%TO.P,D10,1,K*%
%TO.N,1 Row*%
X205850000Y-82500000D03*
%TO.P,D10,2,A*%
%TO.N,Net-(D10-A)*%
X209150000Y-82500000D03*
%TD*%
%TO.P,D7,1,K*%
%TO.N,1 Row*%
X151850000Y-96500000D03*
%TO.P,D7,2,A*%
%TO.N,Net-(D7-A)*%
X155150000Y-96500000D03*
%TD*%
%TO.P,D16,1,K*%
%TO.N,2 Row*%
X205850000Y-99500000D03*
%TO.P,D16,2,A*%
%TO.N,Net-(D16-A)*%
X209150000Y-99500000D03*
%TD*%
%TO.P,D3,1,K*%
%TO.N,0 Row*%
X188350000Y-72000000D03*
%TO.P,D3,2,A*%
%TO.N,Net-(D3-A)*%
X191650000Y-72000000D03*
%TD*%
%TO.P,D6,1,K*%
%TO.N,0 Row*%
X246350000Y-83500000D03*
%TO.P,D6,2,A*%
%TO.N,Net-(D6-A)*%
X249650000Y-83500000D03*
%TD*%
%TO.P,D15,1,K*%
%TO.N,2 Row*%
X187850000Y-105500000D03*
%TO.P,D15,2,A*%
%TO.N,Net-(D15-A)*%
X191150000Y-105500000D03*
%TD*%
%TO.P,D11,1,K*%
%TO.N,1 Row*%
X227350000Y-99000000D03*
%TO.P,D11,2,A*%
%TO.N,Net-(D11-A)*%
X230650000Y-99000000D03*
%TD*%
%TO.P,D18,1,K*%
%TO.N,2 Row*%
X243350000Y-117000000D03*
%TO.P,D18,2,A*%
%TO.N,Net-(D18-A)*%
X246650000Y-117000000D03*
%TD*%
%TO.P,D8,1,K*%
%TO.N,1 Row*%
X169850000Y-96500000D03*
%TO.P,D8,2,A*%
%TO.N,Net-(D8-A)*%
X173150000Y-96500000D03*
%TD*%
%TO.P,D14,1,K*%
%TO.N,2 Row*%
X170350000Y-113500000D03*
%TO.P,D14,2,A*%
%TO.N,Net-(D14-A)*%
X173650000Y-113500000D03*
%TD*%
D11*
%TO.P,U1,1,TX0/PD3*%
%TO.N,Serial*%
X260000000Y-75398562D03*
D12*
%TO.P,U1,2,RX1/PD2*%
%TO.N,unconnected-(U1-RX1{slash}PD2-Pad2)*%
X259822819Y-77932375D03*
%TO.P,U1,3,GND*%
%TO.N,GND*%
X259645638Y-80466186D03*
%TO.P,U1,4,GND*%
X259468457Y-83000000D03*
%TO.P,U1,5,2/PD1*%
%TO.N,unconnected-(U1-2{slash}PD1-Pad5)*%
X259291275Y-85533812D03*
%TO.P,U1,6,3/PD0*%
%TO.N,unconnected-(U1-3{slash}PD0-Pad6)*%
X259114094Y-88067624D03*
%TO.P,U1,7,4/PD4*%
%TO.N,Net-(U1-4{slash}PD4)*%
X258936913Y-90601439D03*
%TO.P,U1,8,5/PC6*%
%TO.N,Net-(U1-5{slash}PC6)*%
X258759731Y-93135251D03*
%TO.P,U1,9,6/PD7*%
%TO.N,5 Column*%
X258582548Y-95669063D03*
%TO.P,U1,10,7/PE6*%
%TO.N,4 Column*%
X258405367Y-98202876D03*
%TO.P,U1,11,8/PB4*%
%TO.N,3 Column*%
X258228186Y-100736689D03*
%TO.P,U1,12,9/PB5*%
%TO.N,2 Column*%
X258051005Y-103270500D03*
%TO.P,U1,13,10/PB6*%
%TO.N,unconnected-(U1-10{slash}PB6-Pad13)*%
X273253881Y-104333590D03*
%TO.P,U1,14,16/PB2*%
%TO.N,0 Column*%
X273431063Y-101799777D03*
%TO.P,U1,15,14/PB3*%
%TO.N,1 Column*%
X273608243Y-99265965D03*
%TO.P,U1,16,15/PB1*%
%TO.N,3 Row*%
X273785425Y-96732152D03*
%TO.P,U1,17,A0/PF7*%
%TO.N,2 Row*%
X273962605Y-94198339D03*
%TO.P,U1,18,A1/PF6*%
%TO.N,1 Row*%
X274139789Y-91664526D03*
%TO.P,U1,19,A2/PF5*%
%TO.N,0 Row*%
X274316971Y-89130714D03*
%TO.P,U1,20,A3/PF4*%
%TO.N,Net-(U1-A3{slash}PF4)*%
X274494151Y-86596901D03*
%TO.P,U1,21,VCC*%
%TO.N,VCC*%
X274671333Y-84063088D03*
%TO.P,U1,22,RST*%
%TO.N,RST*%
X274848513Y-81529276D03*
%TO.P,U1,23,GND*%
%TO.N,GND*%
X275025695Y-78995463D03*
%TO.P,U1,24,RAW*%
%TO.N,unconnected-(U1-RAW-Pad24)*%
X275202877Y-76461651D03*
%TD*%
D10*
%TO.P,D13,1,K*%
%TO.N,2 Row*%
X152350000Y-113500000D03*
%TO.P,D13,2,A*%
%TO.N,Net-(D13-A)*%
X155650000Y-113500000D03*
%TD*%
%TO.P,D20,1,K*%
%TO.N,3 Row*%
X259850000Y-139000000D03*
%TO.P,D20,2,A*%
%TO.N,Net-(D20-A)*%
X263150000Y-139000000D03*
%TD*%
D13*
%TO.P,SW2,1,1*%
%TO.N,GND*%
X227000000Y-60000000D03*
D14*
%TO.P,SW2,2,2*%
%TO.N,RST*%
X233500000Y-60000000D03*
%TD*%
D10*
%TO.P,D2,1,K*%
%TO.N,0 Row*%
X169850000Y-80000000D03*
%TO.P,D2,2,A*%
%TO.N,Net-(D2-A)*%
X173150000Y-80000000D03*
%TD*%
%TO.P,D4,1,K*%
%TO.N,0 Row*%
X205850000Y-65500000D03*
%TO.P,D4,2,A*%
%TO.N,Net-(D4-A)*%
X209150000Y-65500000D03*
%TD*%
%TO.P,D17,1,K*%
%TO.N,2 Row*%
X225850000Y-115500000D03*
%TO.P,D17,2,A*%
%TO.N,Net-(D17-A)*%
X229150000Y-115500000D03*
%TD*%
%TO.P,D9,1,K*%
%TO.N,1 Row*%
X187850000Y-89000000D03*
%TO.P,D9,2,A*%
%TO.N,Net-(D9-A)*%
X191150000Y-89000000D03*
%TD*%
%TO.P,D1,1,K*%
%TO.N,0 Row*%
X151850000Y-80500000D03*
%TO.P,D1,2,A*%
%TO.N,Net-(D1-A)*%
X155150000Y-80500000D03*
%TD*%
D15*
%TO.P,J1,R*%
%TO.N,Serial*%
X282444051Y-82620270D03*
%TO.P,J1,S*%
%TO.N,VCC*%
X281000000Y-74600000D03*
%TO.P,J1,T*%
%TO.N,GND*%
X282827713Y-77133667D03*
%TD*%
D10*
%TO.P,D12,1,K*%
%TO.N,1 Row*%
X244350000Y-100500000D03*
%TO.P,D12,2,A*%
%TO.N,Net-(D12-A)*%
X247650000Y-100500000D03*
%TD*%
%TO.P,D19,1,K*%
%TO.N,3 Row*%
X242350000Y-136000000D03*
%TO.P,D19,2,A*%
%TO.N,Net-(D19-A)*%
X245650000Y-136000000D03*
%TD*%
D16*
%TO.P,SW1,A,A*%
%TO.N,Net-(U1-4{slash}PD4)*%
X258794265Y-111779031D03*
D17*
%TO.P,SW1,B,B*%
%TO.N,Net-(U1-5{slash}PC6)*%
X257926024Y-116703070D03*
%TO.P,SW1,C,C*%
%TO.N,GND*%
X258360145Y-114241050D03*
D18*
%TO.P,SW1,MP,MP*%
X266718632Y-110028488D03*
X264773773Y-121058335D03*
D17*
%TO.P,SW1,S1,S1*%
%TO.N,Net-(U1-A3{slash}PF4)*%
X272205737Y-119220968D03*
%TO.P,SW1,S2,S2*%
%TO.N,GND*%
X273073977Y-114296930D03*
%TD*%
D19*
%TO.N,Net-(D1-A)*%
X155150000Y-80500000D03*
%TO.N,Net-(D2-A)*%
X173150000Y-80000000D03*
%TO.N,Net-(D3-A)*%
X191650000Y-72000000D03*
%TO.N,Net-(D4-A)*%
X209150000Y-65500000D03*
%TO.N,Net-(D5-A)*%
X231650000Y-82000000D03*
%TO.N,Net-(D6-A)*%
X254500000Y-83000000D03*
%TO.N,1 Row*%
X269500000Y-89000000D03*
X267000000Y-83000000D03*
X256000000Y-85032812D03*
X257500000Y-81500000D03*
%TO.N,Net-(D7-A)*%
X155150000Y-96500000D03*
%TO.N,Net-(D8-A)*%
X173150000Y-96500000D03*
%TO.N,Net-(D9-A)*%
X191150000Y-89000000D03*
%TO.N,Net-(D10-A)*%
X209150000Y-82500000D03*
%TO.N,Net-(D11-A)*%
X230650000Y-99000000D03*
%TO.N,Net-(D12-A)*%
X249500000Y-100500000D03*
%TO.N,Net-(D13-A)*%
X155650000Y-113500000D03*
%TO.N,2 Row*%
X266000000Y-92500000D03*
X257081548Y-107000000D03*
X258000000Y-105000000D03*
X261500000Y-103000000D03*
%TO.N,Net-(D14-A)*%
X173650000Y-113500000D03*
%TO.N,Net-(D15-A)*%
X191150000Y-105500000D03*
%TO.N,Net-(D16-A)*%
X209150000Y-99500000D03*
%TO.N,Net-(D17-A)*%
X229150000Y-115500000D03*
%TO.N,Net-(D18-A)*%
X248000000Y-117000000D03*
%TO.N,3 Row*%
X274500000Y-128500000D03*
%TO.N,Net-(D19-A)*%
X247000000Y-136000000D03*
%TO.N,Net-(D20-A)*%
X263150000Y-139000000D03*
%TO.N,0 Column*%
X151225000Y-103050000D03*
%TO.N,2 Column*%
X267000000Y-88500000D03*
X200500000Y-53524000D03*
X263500000Y-83500000D03*
%TO.N,3 Column*%
X247000000Y-118500000D03*
X250500000Y-122000000D03*
X258260729Y-106412202D03*
X208000000Y-103500000D03*
X257081548Y-112174265D03*
%TO.N,4 Column*%
X258792274Y-108500000D03*
X246000000Y-122000000D03*
X261100000Y-94500000D03*
X260500000Y-108500000D03*
X257500000Y-108500000D03*
%TO.N,5 Column*%
X260500000Y-101000000D03*
X256500000Y-86500000D03*
X250500000Y-97500000D03*
%TO.N,Net-(U1-A3{slash}PF4)*%
X269884205Y-110115795D03*
X270000000Y-113000000D03*
%TO.N,RST*%
X271000000Y-81500000D03*
X270500000Y-78000000D03*
%TO.N,VCC*%
X278000000Y-78000000D03*
X278500000Y-75000000D03*
%TO.N,Serial*%
X262000000Y-76000000D03*
X268000000Y-72500000D03*
X266500000Y-79500000D03*
%TD*%
D20*
%TO.N,0 Row*%
X200401000Y-71099000D02*
X189251000Y-71099000D01*
X229850000Y-83500000D02*
X228350000Y-82000000D01*
X152751000Y-79599000D02*
X151850000Y-80500000D01*
X169850000Y-80000000D02*
X169449000Y-79599000D01*
X269150612Y-84432812D02*
X273848514Y-89130714D01*
X179449000Y-80901000D02*
X170751000Y-80901000D01*
X213324000Y-72824000D02*
X206000000Y-65500000D01*
X219174000Y-72824000D02*
X213324000Y-72824000D01*
X246350000Y-83500000D02*
X247282812Y-84432812D01*
X189251000Y-71099000D02*
X188350000Y-72000000D01*
X170751000Y-80901000D02*
X169850000Y-80000000D01*
X246350000Y-83500000D02*
X229850000Y-83500000D01*
X247282812Y-84432812D02*
X269150612Y-84432812D01*
X169449000Y-79599000D02*
X152751000Y-79599000D01*
X228350000Y-82000000D02*
X219174000Y-72824000D01*
X188350000Y-72000000D02*
X179449000Y-80901000D01*
X206000000Y-65500000D02*
X200401000Y-71099000D01*
%TO.N,Net-(D6-A)*%
X254000000Y-83500000D02*
X249650000Y-83500000D01*
X254500000Y-83000000D02*
X254000000Y-83500000D01*
%TO.N,1 Row*%
X257500000Y-81500000D02*
X257567186Y-81567186D01*
X151850000Y-96500000D02*
X152751000Y-95599000D01*
X188751000Y-88099000D02*
X200251000Y-88099000D01*
X227350000Y-99000000D02*
X228850000Y-100500000D01*
X244350000Y-100500000D02*
X246179288Y-100500000D01*
X168949000Y-95599000D02*
X169850000Y-96500000D01*
X257567186Y-81567186D02*
X265567186Y-81567186D01*
X169850000Y-96500000D02*
X170751000Y-97401000D01*
X228850000Y-100500000D02*
X244350000Y-100500000D01*
X249556094Y-91227717D02*
X255750999Y-85032812D01*
X269500000Y-89000000D02*
X272164526Y-91664526D01*
X272164526Y-91664526D02*
X273671332Y-91664526D01*
X255750999Y-85032812D02*
X256000000Y-85032812D01*
X207453065Y-82500000D02*
X223953065Y-99000000D01*
X179449000Y-97401000D02*
X187850000Y-89000000D01*
X187850000Y-89000000D02*
X188751000Y-88099000D01*
X200251000Y-88099000D02*
X205850000Y-82500000D01*
X246179288Y-100500000D02*
X249556094Y-97123194D01*
X249556094Y-97123194D02*
X249556094Y-91227717D01*
X152751000Y-95599000D02*
X168949000Y-95599000D01*
X223953065Y-99000000D02*
X227350000Y-99000000D01*
X170751000Y-97401000D02*
X179449000Y-97401000D01*
X205850000Y-82500000D02*
X207453065Y-82500000D01*
X265567186Y-81567186D02*
X267000000Y-83000000D01*
%TO.N,Net-(D12-A)*%
X249500000Y-100500000D02*
X247650000Y-100500000D01*
%TO.N,2 Row*%
X243350000Y-117000000D02*
X227350000Y-117000000D01*
X180751000Y-112599000D02*
X171251000Y-112599000D01*
X243350000Y-117000000D02*
X244660108Y-117000000D01*
X169449000Y-114401000D02*
X153251000Y-114401000D01*
X187850000Y-105500000D02*
X180751000Y-112599000D01*
X189350000Y-107000000D02*
X187850000Y-105500000D01*
X225850000Y-115500000D02*
X221850000Y-115500000D01*
X267698339Y-94198339D02*
X273494148Y-94198339D01*
X244660108Y-117000000D02*
X250160108Y-111500000D01*
X153251000Y-114401000D02*
X152350000Y-113500000D01*
X170350000Y-113500000D02*
X169449000Y-114401000D01*
X221850000Y-115500000D02*
X205850000Y-99500000D01*
X198350000Y-107000000D02*
X189350000Y-107000000D01*
X250160108Y-111500000D02*
X252581548Y-111500000D01*
X266000000Y-92500000D02*
X267698339Y-94198339D01*
X171251000Y-112599000D02*
X170350000Y-113500000D01*
X259500000Y-105000000D02*
X261500000Y-103000000D01*
X258000000Y-105000000D02*
X259500000Y-105000000D01*
X205850000Y-99500000D02*
X198350000Y-107000000D01*
X227350000Y-117000000D02*
X225850000Y-115500000D01*
X252581548Y-111500000D02*
X257081548Y-107000000D01*
%TO.N,Net-(D18-A)*%
X248000000Y-117000000D02*
X246650000Y-117000000D01*
%TO.N,3 Row*%
X245350000Y-139000000D02*
X259850000Y-139000000D01*
X271498029Y-133501971D02*
X266998029Y-133501971D01*
X274500000Y-130500000D02*
X271498029Y-133501971D01*
X274500000Y-128500000D02*
X274500000Y-130500000D01*
X261500000Y-139000000D02*
X259850000Y-139000000D01*
X266998029Y-133501971D02*
X261500000Y-139000000D01*
X242350000Y-136000000D02*
X245350000Y-139000000D01*
%TO.N,Net-(D19-A)*%
X247000000Y-136000000D02*
X245650000Y-136000000D01*
%TO.N,0 Column*%
X272962606Y-101799777D02*
X266863383Y-107899000D01*
X225601000Y-119101000D02*
X225500000Y-119000000D01*
X205500000Y-102000000D02*
X203917100Y-102000000D01*
X266863383Y-107899000D02*
X257251057Y-107899000D01*
X151225000Y-113725110D02*
X151225000Y-103050000D01*
X247248943Y-119101000D02*
X225601000Y-119101000D01*
X257251057Y-107899000D02*
X256899000Y-108251057D01*
X198516100Y-107401000D02*
X186516100Y-107401000D01*
X186516100Y-107401000D02*
X180917100Y-113000000D01*
X256899000Y-109450943D02*
X247248943Y-119101000D01*
X180917100Y-113000000D02*
X179000000Y-113000000D01*
X179000000Y-113000000D02*
X177198000Y-114802000D01*
X256899000Y-108251057D02*
X256899000Y-109450943D01*
X177198000Y-114802000D02*
X152301890Y-114802000D01*
X225500000Y-119000000D02*
X222500000Y-119000000D01*
X203917100Y-102000000D02*
X198516100Y-107401000D01*
X152301890Y-114802000D02*
X151225000Y-113725110D01*
X222500000Y-119000000D02*
X205500000Y-102000000D01*
%TO.N,2 Column*%
X235394451Y-71246451D02*
X253357652Y-71246451D01*
X267601000Y-83248943D02*
X267248943Y-83601000D01*
X211624000Y-57677065D02*
X213345935Y-59399000D01*
X258509672Y-107013202D02*
X258011786Y-107013202D01*
X262101000Y-103421874D02*
X258509672Y-107013202D01*
X256998000Y-105999416D02*
X256998000Y-103855048D01*
X223547000Y-59399000D02*
X235394451Y-71246451D01*
X267601000Y-82751057D02*
X267601000Y-83248943D01*
X267248943Y-83601000D02*
X263601000Y-83601000D01*
X256998000Y-103855048D02*
X257582548Y-103270500D01*
X253357652Y-71246451D02*
X258664619Y-76553418D01*
X261403361Y-76553418D02*
X267601000Y-82751057D01*
X263601000Y-83601000D02*
X263500000Y-83500000D01*
X213345935Y-59399000D02*
X223547000Y-59399000D01*
X200500000Y-53524000D02*
X204653065Y-57677065D01*
X262101000Y-93399000D02*
X262101000Y-103421874D01*
X258664619Y-76553418D02*
X261403361Y-76553418D01*
X204653065Y-57677065D02*
X211624000Y-57677065D01*
X267000000Y-88500000D02*
X262101000Y-93399000D01*
X258011786Y-107013202D02*
X256998000Y-105999416D01*
%TO.N,3 Column*%
X257081548Y-112174265D02*
X256733018Y-112174265D01*
X259152005Y-104197938D02*
X258950943Y-104399000D01*
X223000000Y-118500000D02*
X208000000Y-103500000D01*
X257399000Y-104751057D02*
X257399000Y-105550473D01*
X257399000Y-105550473D02*
X258260729Y-106412202D01*
X258228186Y-100736689D02*
X259152005Y-101660508D01*
X247000000Y-118500000D02*
X223000000Y-118500000D01*
X256733018Y-112174265D02*
X250500000Y-118407283D01*
X257751057Y-104399000D02*
X257399000Y-104751057D01*
X259152005Y-101660508D02*
X259152005Y-104197938D01*
X250500000Y-118407283D02*
X250500000Y-122000000D01*
X258950943Y-104399000D02*
X257751057Y-104399000D01*
%TO.N,4 Column*%
X258194561Y-94500000D02*
X257481548Y-95213013D01*
X246000000Y-122000000D02*
X257500000Y-110500000D01*
X258792274Y-108500000D02*
X260500000Y-108500000D01*
X257500000Y-110500000D02*
X257500000Y-108500000D01*
X257481548Y-97279057D02*
X258405367Y-98202876D01*
X257481548Y-95213013D02*
X257481548Y-97279057D01*
X261100000Y-94500000D02*
X258194561Y-94500000D01*
%TO.N,5 Column*%
X254850911Y-86500000D02*
X256500000Y-86500000D01*
X249957094Y-91393817D02*
X254850911Y-86500000D01*
X259506367Y-99069453D02*
X259506367Y-97061339D01*
X250500000Y-97500000D02*
X249957094Y-96957094D01*
X249957094Y-96957094D02*
X249957094Y-91393817D01*
X259037910Y-99537910D02*
X259506367Y-99069453D01*
X259506367Y-97061339D02*
X258114091Y-95669063D01*
X260500000Y-101000000D02*
X259037910Y-99537910D01*
%TO.N,GND*%
X280965917Y-78995463D02*
X275025695Y-78995463D01*
X282827713Y-77133667D02*
X280965917Y-78995463D01*
%TO.N,Net-(U1-A3{slash}PF4)*%
X270000000Y-110231590D02*
X269884205Y-110115795D01*
X270000000Y-113000000D02*
X270000000Y-110231590D01*
%TO.N,RST*%
X271000000Y-78500000D02*
X270500000Y-78000000D01*
X271000000Y-81500000D02*
X271000000Y-78500000D01*
%TO.N,VCC*%
X278000000Y-75500000D02*
X278000000Y-78000000D01*
X278500000Y-75000000D02*
X278000000Y-75500000D01*
%TO.N,Serial*%
X262000000Y-76000000D02*
X261398562Y-75398562D01*
X282379730Y-82620270D02*
X282000000Y-83000000D01*
X282444051Y-82620270D02*
X282379730Y-82620270D01*
X261398562Y-75398562D02*
X260000000Y-75398562D01*
X268000000Y-78000000D02*
X266500000Y-79500000D01*
X268000000Y-72500000D02*
X268000000Y-78000000D01*
%TD*%
M02*
