%TF.GenerationSoftware,KiCad,Pcbnew,9.0.6-1.fc43*%
%TF.CreationDate,2026-01-15T13:12:57-05:00*%
%TF.ProjectId,Left,4c656674-2e6b-4696-9361-645f70636258,rev?*%
%TF.SameCoordinates,Original*%
%TF.FileFunction,Legend,Top*%
%TF.FilePolarity,Positive*%
%FSLAX46Y46*%
G04 Gerber Fmt 4.6, Leading zero omitted, Abs format (unit mm)*
G04 Created by KiCad (PCBNEW 9.0.6-1.fc43) date 2026-01-15 13:12:57*
%MOMM*%
%LPD*%
G01*
G04 APERTURE LIST*
%ADD10C,0.150000*%
%ADD11C,0.120000*%
G04 APERTURE END LIST*
D10*
X229261905Y-80454819D02*
X229261905Y-79454819D01*
X229261905Y-79454819D02*
X229500000Y-79454819D01*
X229500000Y-79454819D02*
X229642857Y-79502438D01*
X229642857Y-79502438D02*
X229738095Y-79597676D01*
X229738095Y-79597676D02*
X229785714Y-79692914D01*
X229785714Y-79692914D02*
X229833333Y-79883390D01*
X229833333Y-79883390D02*
X229833333Y-80026247D01*
X229833333Y-80026247D02*
X229785714Y-80216723D01*
X229785714Y-80216723D02*
X229738095Y-80311961D01*
X229738095Y-80311961D02*
X229642857Y-80407200D01*
X229642857Y-80407200D02*
X229500000Y-80454819D01*
X229500000Y-80454819D02*
X229261905Y-80454819D01*
X230738095Y-79454819D02*
X230261905Y-79454819D01*
X230261905Y-79454819D02*
X230214286Y-79931009D01*
X230214286Y-79931009D02*
X230261905Y-79883390D01*
X230261905Y-79883390D02*
X230357143Y-79835771D01*
X230357143Y-79835771D02*
X230595238Y-79835771D01*
X230595238Y-79835771D02*
X230690476Y-79883390D01*
X230690476Y-79883390D02*
X230738095Y-79931009D01*
X230738095Y-79931009D02*
X230785714Y-80026247D01*
X230785714Y-80026247D02*
X230785714Y-80264342D01*
X230785714Y-80264342D02*
X230738095Y-80359580D01*
X230738095Y-80359580D02*
X230690476Y-80407200D01*
X230690476Y-80407200D02*
X230595238Y-80454819D01*
X230595238Y-80454819D02*
X230357143Y-80454819D01*
X230357143Y-80454819D02*
X230261905Y-80407200D01*
X230261905Y-80407200D02*
X230214286Y-80359580D01*
X206285714Y-80954819D02*
X206285714Y-79954819D01*
X206285714Y-79954819D02*
X206523809Y-79954819D01*
X206523809Y-79954819D02*
X206666666Y-80002438D01*
X206666666Y-80002438D02*
X206761904Y-80097676D01*
X206761904Y-80097676D02*
X206809523Y-80192914D01*
X206809523Y-80192914D02*
X206857142Y-80383390D01*
X206857142Y-80383390D02*
X206857142Y-80526247D01*
X206857142Y-80526247D02*
X206809523Y-80716723D01*
X206809523Y-80716723D02*
X206761904Y-80811961D01*
X206761904Y-80811961D02*
X206666666Y-80907200D01*
X206666666Y-80907200D02*
X206523809Y-80954819D01*
X206523809Y-80954819D02*
X206285714Y-80954819D01*
X207809523Y-80954819D02*
X207238095Y-80954819D01*
X207523809Y-80954819D02*
X207523809Y-79954819D01*
X207523809Y-79954819D02*
X207428571Y-80097676D01*
X207428571Y-80097676D02*
X207333333Y-80192914D01*
X207333333Y-80192914D02*
X207238095Y-80240533D01*
X208428571Y-79954819D02*
X208523809Y-79954819D01*
X208523809Y-79954819D02*
X208619047Y-80002438D01*
X208619047Y-80002438D02*
X208666666Y-80050057D01*
X208666666Y-80050057D02*
X208714285Y-80145295D01*
X208714285Y-80145295D02*
X208761904Y-80335771D01*
X208761904Y-80335771D02*
X208761904Y-80573866D01*
X208761904Y-80573866D02*
X208714285Y-80764342D01*
X208714285Y-80764342D02*
X208666666Y-80859580D01*
X208666666Y-80859580D02*
X208619047Y-80907200D01*
X208619047Y-80907200D02*
X208523809Y-80954819D01*
X208523809Y-80954819D02*
X208428571Y-80954819D01*
X208428571Y-80954819D02*
X208333333Y-80907200D01*
X208333333Y-80907200D02*
X208285714Y-80859580D01*
X208285714Y-80859580D02*
X208238095Y-80764342D01*
X208238095Y-80764342D02*
X208190476Y-80573866D01*
X208190476Y-80573866D02*
X208190476Y-80335771D01*
X208190476Y-80335771D02*
X208238095Y-80145295D01*
X208238095Y-80145295D02*
X208285714Y-80050057D01*
X208285714Y-80050057D02*
X208333333Y-80002438D01*
X208333333Y-80002438D02*
X208428571Y-79954819D01*
X246036457Y-86852634D02*
X246174620Y-86912523D01*
X246174620Y-86912523D02*
X246411810Y-86933274D01*
X246411810Y-86933274D02*
X246510836Y-86894137D01*
X246510836Y-86894137D02*
X246562424Y-86850849D01*
X246562424Y-86850849D02*
X246618162Y-86760124D01*
X246618162Y-86760124D02*
X246626463Y-86665248D01*
X246626463Y-86665248D02*
X246587325Y-86566222D01*
X246587325Y-86566222D02*
X246544038Y-86514634D01*
X246544038Y-86514634D02*
X246453312Y-86458896D01*
X246453312Y-86458896D02*
X246267711Y-86394857D01*
X246267711Y-86394857D02*
X246176986Y-86339118D01*
X246176986Y-86339118D02*
X246133698Y-86287530D01*
X246133698Y-86287530D02*
X246094561Y-86188504D01*
X246094561Y-86188504D02*
X246102862Y-86093628D01*
X246102862Y-86093628D02*
X246158600Y-86002903D01*
X246158600Y-86002903D02*
X246210188Y-85959615D01*
X246210188Y-85959615D02*
X246309214Y-85920478D01*
X246309214Y-85920478D02*
X246546403Y-85941230D01*
X246546403Y-85941230D02*
X246684567Y-86001118D01*
X247550318Y-87032881D02*
X246981064Y-86983077D01*
X247265691Y-87007979D02*
X247352847Y-86011784D01*
X247352847Y-86011784D02*
X247245520Y-86145797D01*
X247245520Y-86145797D02*
X247142344Y-86232372D01*
X247142344Y-86232372D02*
X247043318Y-86271510D01*
X248008676Y-86164764D02*
X248060264Y-86121476D01*
X248060264Y-86121476D02*
X248159290Y-86082339D01*
X248159290Y-86082339D02*
X248396479Y-86103090D01*
X248396479Y-86103090D02*
X248487205Y-86158829D01*
X248487205Y-86158829D02*
X248530492Y-86210417D01*
X248530492Y-86210417D02*
X248569629Y-86309443D01*
X248569629Y-86309443D02*
X248561329Y-86404318D01*
X248561329Y-86404318D02*
X248501440Y-86542482D01*
X248501440Y-86542482D02*
X247882383Y-87061932D01*
X247882383Y-87061932D02*
X248499075Y-87115886D01*
X152761905Y-94954819D02*
X152761905Y-93954819D01*
X152761905Y-93954819D02*
X153000000Y-93954819D01*
X153000000Y-93954819D02*
X153142857Y-94002438D01*
X153142857Y-94002438D02*
X153238095Y-94097676D01*
X153238095Y-94097676D02*
X153285714Y-94192914D01*
X153285714Y-94192914D02*
X153333333Y-94383390D01*
X153333333Y-94383390D02*
X153333333Y-94526247D01*
X153333333Y-94526247D02*
X153285714Y-94716723D01*
X153285714Y-94716723D02*
X153238095Y-94811961D01*
X153238095Y-94811961D02*
X153142857Y-94907200D01*
X153142857Y-94907200D02*
X153000000Y-94954819D01*
X153000000Y-94954819D02*
X152761905Y-94954819D01*
X153666667Y-93954819D02*
X154333333Y-93954819D01*
X154333333Y-93954819D02*
X153904762Y-94954819D01*
X206285714Y-97954819D02*
X206285714Y-96954819D01*
X206285714Y-96954819D02*
X206523809Y-96954819D01*
X206523809Y-96954819D02*
X206666666Y-97002438D01*
X206666666Y-97002438D02*
X206761904Y-97097676D01*
X206761904Y-97097676D02*
X206809523Y-97192914D01*
X206809523Y-97192914D02*
X206857142Y-97383390D01*
X206857142Y-97383390D02*
X206857142Y-97526247D01*
X206857142Y-97526247D02*
X206809523Y-97716723D01*
X206809523Y-97716723D02*
X206761904Y-97811961D01*
X206761904Y-97811961D02*
X206666666Y-97907200D01*
X206666666Y-97907200D02*
X206523809Y-97954819D01*
X206523809Y-97954819D02*
X206285714Y-97954819D01*
X207809523Y-97954819D02*
X207238095Y-97954819D01*
X207523809Y-97954819D02*
X207523809Y-96954819D01*
X207523809Y-96954819D02*
X207428571Y-97097676D01*
X207428571Y-97097676D02*
X207333333Y-97192914D01*
X207333333Y-97192914D02*
X207238095Y-97240533D01*
X208666666Y-96954819D02*
X208476190Y-96954819D01*
X208476190Y-96954819D02*
X208380952Y-97002438D01*
X208380952Y-97002438D02*
X208333333Y-97050057D01*
X208333333Y-97050057D02*
X208238095Y-97192914D01*
X208238095Y-97192914D02*
X208190476Y-97383390D01*
X208190476Y-97383390D02*
X208190476Y-97764342D01*
X208190476Y-97764342D02*
X208238095Y-97859580D01*
X208238095Y-97859580D02*
X208285714Y-97907200D01*
X208285714Y-97907200D02*
X208380952Y-97954819D01*
X208380952Y-97954819D02*
X208571428Y-97954819D01*
X208571428Y-97954819D02*
X208666666Y-97907200D01*
X208666666Y-97907200D02*
X208714285Y-97859580D01*
X208714285Y-97859580D02*
X208761904Y-97764342D01*
X208761904Y-97764342D02*
X208761904Y-97526247D01*
X208761904Y-97526247D02*
X208714285Y-97431009D01*
X208714285Y-97431009D02*
X208666666Y-97383390D01*
X208666666Y-97383390D02*
X208571428Y-97335771D01*
X208571428Y-97335771D02*
X208380952Y-97335771D01*
X208380952Y-97335771D02*
X208285714Y-97383390D01*
X208285714Y-97383390D02*
X208238095Y-97431009D01*
X208238095Y-97431009D02*
X208190476Y-97526247D01*
X261772839Y-125822750D02*
X261905256Y-125894453D01*
X261905256Y-125894453D02*
X262139734Y-125935798D01*
X262139734Y-125935798D02*
X262241795Y-125905440D01*
X262241795Y-125905440D02*
X262296959Y-125866813D01*
X262296959Y-125866813D02*
X262360393Y-125781291D01*
X262360393Y-125781291D02*
X262376931Y-125687500D01*
X262376931Y-125687500D02*
X262346573Y-125585440D01*
X262346573Y-125585440D02*
X262307946Y-125530275D01*
X262307946Y-125530275D02*
X262222424Y-125466842D01*
X262222424Y-125466842D02*
X262043111Y-125386870D01*
X262043111Y-125386870D02*
X261957588Y-125323437D01*
X261957588Y-125323437D02*
X261918962Y-125268272D01*
X261918962Y-125268272D02*
X261888604Y-125166212D01*
X261888604Y-125166212D02*
X261905142Y-125072421D01*
X261905142Y-125072421D02*
X261968575Y-124986898D01*
X261968575Y-124986898D02*
X262023740Y-124948272D01*
X262023740Y-124948272D02*
X262125800Y-124917914D01*
X262125800Y-124917914D02*
X262360278Y-124959259D01*
X262360278Y-124959259D02*
X262492696Y-125030961D01*
X262859592Y-125144009D02*
X262914757Y-125105382D01*
X262914757Y-125105382D02*
X263016817Y-125075024D01*
X263016817Y-125075024D02*
X263251295Y-125116369D01*
X263251295Y-125116369D02*
X263336817Y-125179803D01*
X263336817Y-125179803D02*
X263375444Y-125234967D01*
X263375444Y-125234967D02*
X263405801Y-125337027D01*
X263405801Y-125337027D02*
X263389264Y-125430819D01*
X263389264Y-125430819D02*
X263317561Y-125563236D01*
X263317561Y-125563236D02*
X262655586Y-126026756D01*
X262655586Y-126026756D02*
X263265229Y-126134253D01*
X264048520Y-125256941D02*
X264142311Y-125273479D01*
X264142311Y-125273479D02*
X264227834Y-125336913D01*
X264227834Y-125336913D02*
X264266460Y-125392077D01*
X264266460Y-125392077D02*
X264296818Y-125494138D01*
X264296818Y-125494138D02*
X264310638Y-125689989D01*
X264310638Y-125689989D02*
X264269293Y-125924467D01*
X264269293Y-125924467D02*
X264189322Y-126103781D01*
X264189322Y-126103781D02*
X264125888Y-126189303D01*
X264125888Y-126189303D02*
X264070723Y-126227929D01*
X264070723Y-126227929D02*
X263968663Y-126258287D01*
X263968663Y-126258287D02*
X263874872Y-126241749D01*
X263874872Y-126241749D02*
X263789350Y-126178316D01*
X263789350Y-126178316D02*
X263750723Y-126123151D01*
X263750723Y-126123151D02*
X263720365Y-126021091D01*
X263720365Y-126021091D02*
X263706546Y-125825240D01*
X263706546Y-125825240D02*
X263747891Y-125590761D01*
X263747891Y-125590761D02*
X263827862Y-125411448D01*
X263827862Y-125411448D02*
X263891295Y-125325926D01*
X263891295Y-125325926D02*
X263946460Y-125287299D01*
X263946460Y-125287299D02*
X264048520Y-125256941D01*
X189261905Y-70454819D02*
X189261905Y-69454819D01*
X189261905Y-69454819D02*
X189500000Y-69454819D01*
X189500000Y-69454819D02*
X189642857Y-69502438D01*
X189642857Y-69502438D02*
X189738095Y-69597676D01*
X189738095Y-69597676D02*
X189785714Y-69692914D01*
X189785714Y-69692914D02*
X189833333Y-69883390D01*
X189833333Y-69883390D02*
X189833333Y-70026247D01*
X189833333Y-70026247D02*
X189785714Y-70216723D01*
X189785714Y-70216723D02*
X189738095Y-70311961D01*
X189738095Y-70311961D02*
X189642857Y-70407200D01*
X189642857Y-70407200D02*
X189500000Y-70454819D01*
X189500000Y-70454819D02*
X189261905Y-70454819D01*
X190166667Y-69454819D02*
X190785714Y-69454819D01*
X190785714Y-69454819D02*
X190452381Y-69835771D01*
X190452381Y-69835771D02*
X190595238Y-69835771D01*
X190595238Y-69835771D02*
X190690476Y-69883390D01*
X190690476Y-69883390D02*
X190738095Y-69931009D01*
X190738095Y-69931009D02*
X190785714Y-70026247D01*
X190785714Y-70026247D02*
X190785714Y-70264342D01*
X190785714Y-70264342D02*
X190738095Y-70359580D01*
X190738095Y-70359580D02*
X190690476Y-70407200D01*
X190690476Y-70407200D02*
X190595238Y-70454819D01*
X190595238Y-70454819D02*
X190309524Y-70454819D01*
X190309524Y-70454819D02*
X190214286Y-70407200D01*
X190214286Y-70407200D02*
X190166667Y-70359580D01*
X247261905Y-81954819D02*
X247261905Y-80954819D01*
X247261905Y-80954819D02*
X247500000Y-80954819D01*
X247500000Y-80954819D02*
X247642857Y-81002438D01*
X247642857Y-81002438D02*
X247738095Y-81097676D01*
X247738095Y-81097676D02*
X247785714Y-81192914D01*
X247785714Y-81192914D02*
X247833333Y-81383390D01*
X247833333Y-81383390D02*
X247833333Y-81526247D01*
X247833333Y-81526247D02*
X247785714Y-81716723D01*
X247785714Y-81716723D02*
X247738095Y-81811961D01*
X247738095Y-81811961D02*
X247642857Y-81907200D01*
X247642857Y-81907200D02*
X247500000Y-81954819D01*
X247500000Y-81954819D02*
X247261905Y-81954819D01*
X248690476Y-80954819D02*
X248500000Y-80954819D01*
X248500000Y-80954819D02*
X248404762Y-81002438D01*
X248404762Y-81002438D02*
X248357143Y-81050057D01*
X248357143Y-81050057D02*
X248261905Y-81192914D01*
X248261905Y-81192914D02*
X248214286Y-81383390D01*
X248214286Y-81383390D02*
X248214286Y-81764342D01*
X248214286Y-81764342D02*
X248261905Y-81859580D01*
X248261905Y-81859580D02*
X248309524Y-81907200D01*
X248309524Y-81907200D02*
X248404762Y-81954819D01*
X248404762Y-81954819D02*
X248595238Y-81954819D01*
X248595238Y-81954819D02*
X248690476Y-81907200D01*
X248690476Y-81907200D02*
X248738095Y-81859580D01*
X248738095Y-81859580D02*
X248785714Y-81764342D01*
X248785714Y-81764342D02*
X248785714Y-81526247D01*
X248785714Y-81526247D02*
X248738095Y-81431009D01*
X248738095Y-81431009D02*
X248690476Y-81383390D01*
X248690476Y-81383390D02*
X248595238Y-81335771D01*
X248595238Y-81335771D02*
X248404762Y-81335771D01*
X248404762Y-81335771D02*
X248309524Y-81383390D01*
X248309524Y-81383390D02*
X248261905Y-81431009D01*
X248261905Y-81431009D02*
X248214286Y-81526247D01*
X188285714Y-103954819D02*
X188285714Y-102954819D01*
X188285714Y-102954819D02*
X188523809Y-102954819D01*
X188523809Y-102954819D02*
X188666666Y-103002438D01*
X188666666Y-103002438D02*
X188761904Y-103097676D01*
X188761904Y-103097676D02*
X188809523Y-103192914D01*
X188809523Y-103192914D02*
X188857142Y-103383390D01*
X188857142Y-103383390D02*
X188857142Y-103526247D01*
X188857142Y-103526247D02*
X188809523Y-103716723D01*
X188809523Y-103716723D02*
X188761904Y-103811961D01*
X188761904Y-103811961D02*
X188666666Y-103907200D01*
X188666666Y-103907200D02*
X188523809Y-103954819D01*
X188523809Y-103954819D02*
X188285714Y-103954819D01*
X189809523Y-103954819D02*
X189238095Y-103954819D01*
X189523809Y-103954819D02*
X189523809Y-102954819D01*
X189523809Y-102954819D02*
X189428571Y-103097676D01*
X189428571Y-103097676D02*
X189333333Y-103192914D01*
X189333333Y-103192914D02*
X189238095Y-103240533D01*
X190714285Y-102954819D02*
X190238095Y-102954819D01*
X190238095Y-102954819D02*
X190190476Y-103431009D01*
X190190476Y-103431009D02*
X190238095Y-103383390D01*
X190238095Y-103383390D02*
X190333333Y-103335771D01*
X190333333Y-103335771D02*
X190571428Y-103335771D01*
X190571428Y-103335771D02*
X190666666Y-103383390D01*
X190666666Y-103383390D02*
X190714285Y-103431009D01*
X190714285Y-103431009D02*
X190761904Y-103526247D01*
X190761904Y-103526247D02*
X190761904Y-103764342D01*
X190761904Y-103764342D02*
X190714285Y-103859580D01*
X190714285Y-103859580D02*
X190666666Y-103907200D01*
X190666666Y-103907200D02*
X190571428Y-103954819D01*
X190571428Y-103954819D02*
X190333333Y-103954819D01*
X190333333Y-103954819D02*
X190238095Y-103907200D01*
X190238095Y-103907200D02*
X190190476Y-103859580D01*
X227015528Y-102331991D02*
X227153691Y-102391880D01*
X227153691Y-102391880D02*
X227390881Y-102412631D01*
X227390881Y-102412631D02*
X227489907Y-102373494D01*
X227489907Y-102373494D02*
X227541495Y-102330206D01*
X227541495Y-102330206D02*
X227597233Y-102239481D01*
X227597233Y-102239481D02*
X227605534Y-102144605D01*
X227605534Y-102144605D02*
X227566396Y-102045579D01*
X227566396Y-102045579D02*
X227523109Y-101993991D01*
X227523109Y-101993991D02*
X227432383Y-101938253D01*
X227432383Y-101938253D02*
X227246782Y-101874214D01*
X227246782Y-101874214D02*
X227156057Y-101818475D01*
X227156057Y-101818475D02*
X227112769Y-101766887D01*
X227112769Y-101766887D02*
X227073632Y-101667861D01*
X227073632Y-101667861D02*
X227081933Y-101572985D01*
X227081933Y-101572985D02*
X227137671Y-101482260D01*
X227137671Y-101482260D02*
X227189259Y-101438972D01*
X227189259Y-101438972D02*
X227288285Y-101399835D01*
X227288285Y-101399835D02*
X227525474Y-101420587D01*
X227525474Y-101420587D02*
X227663638Y-101480475D01*
X228529389Y-102512238D02*
X227960135Y-102462434D01*
X228244762Y-102487336D02*
X228331918Y-101491141D01*
X228331918Y-101491141D02*
X228224591Y-101625154D01*
X228224591Y-101625154D02*
X228121415Y-101711729D01*
X228121415Y-101711729D02*
X228022389Y-101750867D01*
X228948610Y-101545095D02*
X229612739Y-101603199D01*
X229612739Y-101603199D02*
X229098643Y-102562041D01*
X207261905Y-69907200D02*
X207404762Y-69954819D01*
X207404762Y-69954819D02*
X207642857Y-69954819D01*
X207642857Y-69954819D02*
X207738095Y-69907200D01*
X207738095Y-69907200D02*
X207785714Y-69859580D01*
X207785714Y-69859580D02*
X207833333Y-69764342D01*
X207833333Y-69764342D02*
X207833333Y-69669104D01*
X207833333Y-69669104D02*
X207785714Y-69573866D01*
X207785714Y-69573866D02*
X207738095Y-69526247D01*
X207738095Y-69526247D02*
X207642857Y-69478628D01*
X207642857Y-69478628D02*
X207452381Y-69431009D01*
X207452381Y-69431009D02*
X207357143Y-69383390D01*
X207357143Y-69383390D02*
X207309524Y-69335771D01*
X207309524Y-69335771D02*
X207261905Y-69240533D01*
X207261905Y-69240533D02*
X207261905Y-69145295D01*
X207261905Y-69145295D02*
X207309524Y-69050057D01*
X207309524Y-69050057D02*
X207357143Y-69002438D01*
X207357143Y-69002438D02*
X207452381Y-68954819D01*
X207452381Y-68954819D02*
X207690476Y-68954819D01*
X207690476Y-68954819D02*
X207833333Y-69002438D01*
X208785714Y-69954819D02*
X208214286Y-69954819D01*
X208500000Y-69954819D02*
X208500000Y-68954819D01*
X208500000Y-68954819D02*
X208404762Y-69097676D01*
X208404762Y-69097676D02*
X208309524Y-69192914D01*
X208309524Y-69192914D02*
X208214286Y-69240533D01*
X209404762Y-68954819D02*
X209500000Y-68954819D01*
X209500000Y-68954819D02*
X209595238Y-69002438D01*
X209595238Y-69002438D02*
X209642857Y-69050057D01*
X209642857Y-69050057D02*
X209690476Y-69145295D01*
X209690476Y-69145295D02*
X209738095Y-69335771D01*
X209738095Y-69335771D02*
X209738095Y-69573866D01*
X209738095Y-69573866D02*
X209690476Y-69764342D01*
X209690476Y-69764342D02*
X209642857Y-69859580D01*
X209642857Y-69859580D02*
X209595238Y-69907200D01*
X209595238Y-69907200D02*
X209500000Y-69954819D01*
X209500000Y-69954819D02*
X209404762Y-69954819D01*
X209404762Y-69954819D02*
X209309524Y-69907200D01*
X209309524Y-69907200D02*
X209261905Y-69859580D01*
X209261905Y-69859580D02*
X209214286Y-69764342D01*
X209214286Y-69764342D02*
X209166667Y-69573866D01*
X209166667Y-69573866D02*
X209166667Y-69335771D01*
X209166667Y-69335771D02*
X209214286Y-69145295D01*
X209214286Y-69145295D02*
X209261905Y-69050057D01*
X209261905Y-69050057D02*
X209309524Y-69002438D01*
X209309524Y-69002438D02*
X209404762Y-68954819D01*
X227785714Y-97454819D02*
X227785714Y-96454819D01*
X227785714Y-96454819D02*
X228023809Y-96454819D01*
X228023809Y-96454819D02*
X228166666Y-96502438D01*
X228166666Y-96502438D02*
X228261904Y-96597676D01*
X228261904Y-96597676D02*
X228309523Y-96692914D01*
X228309523Y-96692914D02*
X228357142Y-96883390D01*
X228357142Y-96883390D02*
X228357142Y-97026247D01*
X228357142Y-97026247D02*
X228309523Y-97216723D01*
X228309523Y-97216723D02*
X228261904Y-97311961D01*
X228261904Y-97311961D02*
X228166666Y-97407200D01*
X228166666Y-97407200D02*
X228023809Y-97454819D01*
X228023809Y-97454819D02*
X227785714Y-97454819D01*
X229309523Y-97454819D02*
X228738095Y-97454819D01*
X229023809Y-97454819D02*
X229023809Y-96454819D01*
X229023809Y-96454819D02*
X228928571Y-96597676D01*
X228928571Y-96597676D02*
X228833333Y-96692914D01*
X228833333Y-96692914D02*
X228738095Y-96740533D01*
X230261904Y-97454819D02*
X229690476Y-97454819D01*
X229976190Y-97454819D02*
X229976190Y-96454819D01*
X229976190Y-96454819D02*
X229880952Y-96597676D01*
X229880952Y-96597676D02*
X229785714Y-96692914D01*
X229785714Y-96692914D02*
X229690476Y-96740533D01*
X243785714Y-115454819D02*
X243785714Y-114454819D01*
X243785714Y-114454819D02*
X244023809Y-114454819D01*
X244023809Y-114454819D02*
X244166666Y-114502438D01*
X244166666Y-114502438D02*
X244261904Y-114597676D01*
X244261904Y-114597676D02*
X244309523Y-114692914D01*
X244309523Y-114692914D02*
X244357142Y-114883390D01*
X244357142Y-114883390D02*
X244357142Y-115026247D01*
X244357142Y-115026247D02*
X244309523Y-115216723D01*
X244309523Y-115216723D02*
X244261904Y-115311961D01*
X244261904Y-115311961D02*
X244166666Y-115407200D01*
X244166666Y-115407200D02*
X244023809Y-115454819D01*
X244023809Y-115454819D02*
X243785714Y-115454819D01*
X245309523Y-115454819D02*
X244738095Y-115454819D01*
X245023809Y-115454819D02*
X245023809Y-114454819D01*
X245023809Y-114454819D02*
X244928571Y-114597676D01*
X244928571Y-114597676D02*
X244833333Y-114692914D01*
X244833333Y-114692914D02*
X244738095Y-114740533D01*
X245880952Y-114883390D02*
X245785714Y-114835771D01*
X245785714Y-114835771D02*
X245738095Y-114788152D01*
X245738095Y-114788152D02*
X245690476Y-114692914D01*
X245690476Y-114692914D02*
X245690476Y-114645295D01*
X245690476Y-114645295D02*
X245738095Y-114550057D01*
X245738095Y-114550057D02*
X245785714Y-114502438D01*
X245785714Y-114502438D02*
X245880952Y-114454819D01*
X245880952Y-114454819D02*
X246071428Y-114454819D01*
X246071428Y-114454819D02*
X246166666Y-114502438D01*
X246166666Y-114502438D02*
X246214285Y-114550057D01*
X246214285Y-114550057D02*
X246261904Y-114645295D01*
X246261904Y-114645295D02*
X246261904Y-114692914D01*
X246261904Y-114692914D02*
X246214285Y-114788152D01*
X246214285Y-114788152D02*
X246166666Y-114835771D01*
X246166666Y-114835771D02*
X246071428Y-114883390D01*
X246071428Y-114883390D02*
X245880952Y-114883390D01*
X245880952Y-114883390D02*
X245785714Y-114931009D01*
X245785714Y-114931009D02*
X245738095Y-114978628D01*
X245738095Y-114978628D02*
X245690476Y-115073866D01*
X245690476Y-115073866D02*
X245690476Y-115264342D01*
X245690476Y-115264342D02*
X245738095Y-115359580D01*
X245738095Y-115359580D02*
X245785714Y-115407200D01*
X245785714Y-115407200D02*
X245880952Y-115454819D01*
X245880952Y-115454819D02*
X246071428Y-115454819D01*
X246071428Y-115454819D02*
X246166666Y-115407200D01*
X246166666Y-115407200D02*
X246214285Y-115359580D01*
X246214285Y-115359580D02*
X246261904Y-115264342D01*
X246261904Y-115264342D02*
X246261904Y-115073866D01*
X246261904Y-115073866D02*
X246214285Y-114978628D01*
X246214285Y-114978628D02*
X246166666Y-114931009D01*
X246166666Y-114931009D02*
X246071428Y-114883390D01*
X230745945Y-68660700D02*
X230884108Y-68720588D01*
X230884108Y-68720588D02*
X231121298Y-68741340D01*
X231121298Y-68741340D02*
X231220324Y-68702202D01*
X231220324Y-68702202D02*
X231271912Y-68658915D01*
X231271912Y-68658915D02*
X231327650Y-68568189D01*
X231327650Y-68568189D02*
X231335951Y-68473314D01*
X231335951Y-68473314D02*
X231296813Y-68374288D01*
X231296813Y-68374288D02*
X231253526Y-68322700D01*
X231253526Y-68322700D02*
X231162800Y-68266961D01*
X231162800Y-68266961D02*
X230977199Y-68202922D01*
X230977199Y-68202922D02*
X230886474Y-68147184D01*
X230886474Y-68147184D02*
X230843186Y-68095596D01*
X230843186Y-68095596D02*
X230804049Y-67996570D01*
X230804049Y-67996570D02*
X230812350Y-67901694D01*
X230812350Y-67901694D02*
X230868088Y-67810969D01*
X230868088Y-67810969D02*
X230919676Y-67767681D01*
X230919676Y-67767681D02*
X231018702Y-67728544D01*
X231018702Y-67728544D02*
X231255891Y-67749295D01*
X231255891Y-67749295D02*
X231394054Y-67809184D01*
X232299524Y-67840601D02*
X231825145Y-67799098D01*
X231825145Y-67799098D02*
X231736205Y-68269327D01*
X231736205Y-68269327D02*
X231787793Y-68226039D01*
X231787793Y-68226039D02*
X231886819Y-68186902D01*
X231886819Y-68186902D02*
X232124008Y-68207653D01*
X232124008Y-68207653D02*
X232214733Y-68263392D01*
X232214733Y-68263392D02*
X232258021Y-68314980D01*
X232258021Y-68314980D02*
X232297158Y-68414006D01*
X232297158Y-68414006D02*
X232276407Y-68651195D01*
X232276407Y-68651195D02*
X232220669Y-68741920D01*
X232220669Y-68741920D02*
X232169080Y-68785208D01*
X232169080Y-68785208D02*
X232070055Y-68824345D01*
X232070055Y-68824345D02*
X231832865Y-68803594D01*
X231832865Y-68803594D02*
X231742140Y-68747855D01*
X231742140Y-68747855D02*
X231698852Y-68696267D01*
X153738095Y-66907200D02*
X153880952Y-66954819D01*
X153880952Y-66954819D02*
X154119047Y-66954819D01*
X154119047Y-66954819D02*
X154214285Y-66907200D01*
X154214285Y-66907200D02*
X154261904Y-66859580D01*
X154261904Y-66859580D02*
X154309523Y-66764342D01*
X154309523Y-66764342D02*
X154309523Y-66669104D01*
X154309523Y-66669104D02*
X154261904Y-66573866D01*
X154261904Y-66573866D02*
X154214285Y-66526247D01*
X154214285Y-66526247D02*
X154119047Y-66478628D01*
X154119047Y-66478628D02*
X153928571Y-66431009D01*
X153928571Y-66431009D02*
X153833333Y-66383390D01*
X153833333Y-66383390D02*
X153785714Y-66335771D01*
X153785714Y-66335771D02*
X153738095Y-66240533D01*
X153738095Y-66240533D02*
X153738095Y-66145295D01*
X153738095Y-66145295D02*
X153785714Y-66050057D01*
X153785714Y-66050057D02*
X153833333Y-66002438D01*
X153833333Y-66002438D02*
X153928571Y-65954819D01*
X153928571Y-65954819D02*
X154166666Y-65954819D01*
X154166666Y-65954819D02*
X154309523Y-66002438D01*
X155261904Y-66954819D02*
X154690476Y-66954819D01*
X154976190Y-66954819D02*
X154976190Y-65954819D01*
X154976190Y-65954819D02*
X154880952Y-66097676D01*
X154880952Y-66097676D02*
X154785714Y-66192914D01*
X154785714Y-66192914D02*
X154690476Y-66240533D01*
X170761905Y-94954819D02*
X170761905Y-93954819D01*
X170761905Y-93954819D02*
X171000000Y-93954819D01*
X171000000Y-93954819D02*
X171142857Y-94002438D01*
X171142857Y-94002438D02*
X171238095Y-94097676D01*
X171238095Y-94097676D02*
X171285714Y-94192914D01*
X171285714Y-94192914D02*
X171333333Y-94383390D01*
X171333333Y-94383390D02*
X171333333Y-94526247D01*
X171333333Y-94526247D02*
X171285714Y-94716723D01*
X171285714Y-94716723D02*
X171238095Y-94811961D01*
X171238095Y-94811961D02*
X171142857Y-94907200D01*
X171142857Y-94907200D02*
X171000000Y-94954819D01*
X171000000Y-94954819D02*
X170761905Y-94954819D01*
X171904762Y-94383390D02*
X171809524Y-94335771D01*
X171809524Y-94335771D02*
X171761905Y-94288152D01*
X171761905Y-94288152D02*
X171714286Y-94192914D01*
X171714286Y-94192914D02*
X171714286Y-94145295D01*
X171714286Y-94145295D02*
X171761905Y-94050057D01*
X171761905Y-94050057D02*
X171809524Y-94002438D01*
X171809524Y-94002438D02*
X171904762Y-93954819D01*
X171904762Y-93954819D02*
X172095238Y-93954819D01*
X172095238Y-93954819D02*
X172190476Y-94002438D01*
X172190476Y-94002438D02*
X172238095Y-94050057D01*
X172238095Y-94050057D02*
X172285714Y-94145295D01*
X172285714Y-94145295D02*
X172285714Y-94192914D01*
X172285714Y-94192914D02*
X172238095Y-94288152D01*
X172238095Y-94288152D02*
X172190476Y-94335771D01*
X172190476Y-94335771D02*
X172095238Y-94383390D01*
X172095238Y-94383390D02*
X171904762Y-94383390D01*
X171904762Y-94383390D02*
X171809524Y-94431009D01*
X171809524Y-94431009D02*
X171761905Y-94478628D01*
X171761905Y-94478628D02*
X171714286Y-94573866D01*
X171714286Y-94573866D02*
X171714286Y-94764342D01*
X171714286Y-94764342D02*
X171761905Y-94859580D01*
X171761905Y-94859580D02*
X171809524Y-94907200D01*
X171809524Y-94907200D02*
X171904762Y-94954819D01*
X171904762Y-94954819D02*
X172095238Y-94954819D01*
X172095238Y-94954819D02*
X172190476Y-94907200D01*
X172190476Y-94907200D02*
X172238095Y-94859580D01*
X172238095Y-94859580D02*
X172285714Y-94764342D01*
X172285714Y-94764342D02*
X172285714Y-94573866D01*
X172285714Y-94573866D02*
X172238095Y-94478628D01*
X172238095Y-94478628D02*
X172190476Y-94431009D01*
X172190476Y-94431009D02*
X172095238Y-94383390D01*
X170785714Y-111954819D02*
X170785714Y-110954819D01*
X170785714Y-110954819D02*
X171023809Y-110954819D01*
X171023809Y-110954819D02*
X171166666Y-111002438D01*
X171166666Y-111002438D02*
X171261904Y-111097676D01*
X171261904Y-111097676D02*
X171309523Y-111192914D01*
X171309523Y-111192914D02*
X171357142Y-111383390D01*
X171357142Y-111383390D02*
X171357142Y-111526247D01*
X171357142Y-111526247D02*
X171309523Y-111716723D01*
X171309523Y-111716723D02*
X171261904Y-111811961D01*
X171261904Y-111811961D02*
X171166666Y-111907200D01*
X171166666Y-111907200D02*
X171023809Y-111954819D01*
X171023809Y-111954819D02*
X170785714Y-111954819D01*
X172309523Y-111954819D02*
X171738095Y-111954819D01*
X172023809Y-111954819D02*
X172023809Y-110954819D01*
X172023809Y-110954819D02*
X171928571Y-111097676D01*
X171928571Y-111097676D02*
X171833333Y-111192914D01*
X171833333Y-111192914D02*
X171738095Y-111240533D01*
X173166666Y-111288152D02*
X173166666Y-111954819D01*
X172928571Y-110907200D02*
X172690476Y-111621485D01*
X172690476Y-111621485D02*
X173309523Y-111621485D01*
X228536457Y-85852634D02*
X228674620Y-85912523D01*
X228674620Y-85912523D02*
X228911810Y-85933274D01*
X228911810Y-85933274D02*
X229010836Y-85894137D01*
X229010836Y-85894137D02*
X229062424Y-85850849D01*
X229062424Y-85850849D02*
X229118162Y-85760124D01*
X229118162Y-85760124D02*
X229126463Y-85665248D01*
X229126463Y-85665248D02*
X229087325Y-85566222D01*
X229087325Y-85566222D02*
X229044038Y-85514634D01*
X229044038Y-85514634D02*
X228953312Y-85458896D01*
X228953312Y-85458896D02*
X228767711Y-85394857D01*
X228767711Y-85394857D02*
X228676986Y-85339118D01*
X228676986Y-85339118D02*
X228633698Y-85287530D01*
X228633698Y-85287530D02*
X228594561Y-85188504D01*
X228594561Y-85188504D02*
X228602862Y-85093628D01*
X228602862Y-85093628D02*
X228658600Y-85002903D01*
X228658600Y-85002903D02*
X228710188Y-84959615D01*
X228710188Y-84959615D02*
X228809214Y-84920478D01*
X228809214Y-84920478D02*
X229046403Y-84941230D01*
X229046403Y-84941230D02*
X229184567Y-85001118D01*
X230050318Y-86032881D02*
X229481064Y-85983077D01*
X229765691Y-86007979D02*
X229852847Y-85011784D01*
X229852847Y-85011784D02*
X229745520Y-85145797D01*
X229745520Y-85145797D02*
X229642344Y-85232372D01*
X229642344Y-85232372D02*
X229543318Y-85271510D01*
X230999075Y-86115886D02*
X230429821Y-86066083D01*
X230714448Y-86090984D02*
X230801604Y-85094790D01*
X230801604Y-85094790D02*
X230694277Y-85228803D01*
X230694277Y-85228803D02*
X230591101Y-85315378D01*
X230591101Y-85315378D02*
X230492075Y-85354515D01*
X244495476Y-122822750D02*
X244627893Y-122894453D01*
X244627893Y-122894453D02*
X244862371Y-122935798D01*
X244862371Y-122935798D02*
X244964432Y-122905440D01*
X244964432Y-122905440D02*
X245019596Y-122866813D01*
X245019596Y-122866813D02*
X245083030Y-122781291D01*
X245083030Y-122781291D02*
X245099568Y-122687500D01*
X245099568Y-122687500D02*
X245069210Y-122585440D01*
X245069210Y-122585440D02*
X245030583Y-122530275D01*
X245030583Y-122530275D02*
X244945061Y-122466842D01*
X244945061Y-122466842D02*
X244765748Y-122386870D01*
X244765748Y-122386870D02*
X244680225Y-122323437D01*
X244680225Y-122323437D02*
X244641599Y-122268272D01*
X244641599Y-122268272D02*
X244611241Y-122166212D01*
X244611241Y-122166212D02*
X244627779Y-122072421D01*
X244627779Y-122072421D02*
X244691212Y-121986898D01*
X244691212Y-121986898D02*
X244746377Y-121948272D01*
X244746377Y-121948272D02*
X244848437Y-121917914D01*
X244848437Y-121917914D02*
X245082915Y-121959259D01*
X245082915Y-121959259D02*
X245215333Y-122030961D01*
X245987866Y-123134253D02*
X245425119Y-123035025D01*
X245706492Y-123084639D02*
X245880141Y-122099831D01*
X245880141Y-122099831D02*
X245761543Y-122223980D01*
X245761543Y-122223980D02*
X245651213Y-122301233D01*
X245651213Y-122301233D02*
X245549153Y-122331591D01*
X246456822Y-123216942D02*
X246644405Y-123250018D01*
X246644405Y-123250018D02*
X246746465Y-123219660D01*
X246746465Y-123219660D02*
X246801629Y-123181034D01*
X246801629Y-123181034D02*
X246920228Y-123056885D01*
X246920228Y-123056885D02*
X247000199Y-122877571D01*
X247000199Y-122877571D02*
X247066351Y-122502407D01*
X247066351Y-122502407D02*
X247035993Y-122400346D01*
X247035993Y-122400346D02*
X246997366Y-122345182D01*
X246997366Y-122345182D02*
X246911844Y-122281748D01*
X246911844Y-122281748D02*
X246724262Y-122248672D01*
X246724262Y-122248672D02*
X246622201Y-122279030D01*
X246622201Y-122279030D02*
X246567037Y-122317657D01*
X246567037Y-122317657D02*
X246503603Y-122403179D01*
X246503603Y-122403179D02*
X246462259Y-122637657D01*
X246462259Y-122637657D02*
X246492616Y-122739717D01*
X246492616Y-122739717D02*
X246531243Y-122794882D01*
X246531243Y-122794882D02*
X246616765Y-122858315D01*
X246616765Y-122858315D02*
X246804348Y-122891391D01*
X246804348Y-122891391D02*
X246906408Y-122861034D01*
X246906408Y-122861034D02*
X246961572Y-122822407D01*
X246961572Y-122822407D02*
X247025006Y-122736885D01*
X264576061Y-108272670D02*
X264519591Y-109080222D01*
X264519591Y-109080222D02*
X264560451Y-109178549D01*
X264560451Y-109178549D02*
X264604632Y-109229374D01*
X264604632Y-109229374D02*
X264696316Y-109283521D01*
X264696316Y-109283521D02*
X264886329Y-109296808D01*
X264886329Y-109296808D02*
X264984656Y-109255948D01*
X264984656Y-109255948D02*
X265035481Y-109211767D01*
X265035481Y-109211767D02*
X265089628Y-109120082D01*
X265089628Y-109120082D02*
X265146097Y-108312531D01*
X266073905Y-109379851D02*
X265503868Y-109339990D01*
X265788886Y-109359921D02*
X265858643Y-108362357D01*
X265858643Y-108362357D02*
X265753672Y-108498222D01*
X265753672Y-108498222D02*
X265652022Y-108586585D01*
X265652022Y-108586585D02*
X265553694Y-108627445D01*
X152785714Y-111954819D02*
X152785714Y-110954819D01*
X152785714Y-110954819D02*
X153023809Y-110954819D01*
X153023809Y-110954819D02*
X153166666Y-111002438D01*
X153166666Y-111002438D02*
X153261904Y-111097676D01*
X153261904Y-111097676D02*
X153309523Y-111192914D01*
X153309523Y-111192914D02*
X153357142Y-111383390D01*
X153357142Y-111383390D02*
X153357142Y-111526247D01*
X153357142Y-111526247D02*
X153309523Y-111716723D01*
X153309523Y-111716723D02*
X153261904Y-111811961D01*
X153261904Y-111811961D02*
X153166666Y-111907200D01*
X153166666Y-111907200D02*
X153023809Y-111954819D01*
X153023809Y-111954819D02*
X152785714Y-111954819D01*
X154309523Y-111954819D02*
X153738095Y-111954819D01*
X154023809Y-111954819D02*
X154023809Y-110954819D01*
X154023809Y-110954819D02*
X153928571Y-111097676D01*
X153928571Y-111097676D02*
X153833333Y-111192914D01*
X153833333Y-111192914D02*
X153738095Y-111240533D01*
X154642857Y-110954819D02*
X155261904Y-110954819D01*
X155261904Y-110954819D02*
X154928571Y-111335771D01*
X154928571Y-111335771D02*
X155071428Y-111335771D01*
X155071428Y-111335771D02*
X155166666Y-111383390D01*
X155166666Y-111383390D02*
X155214285Y-111431009D01*
X155214285Y-111431009D02*
X155261904Y-111526247D01*
X155261904Y-111526247D02*
X155261904Y-111764342D01*
X155261904Y-111764342D02*
X155214285Y-111859580D01*
X155214285Y-111859580D02*
X155166666Y-111907200D01*
X155166666Y-111907200D02*
X155071428Y-111954819D01*
X155071428Y-111954819D02*
X154785714Y-111954819D01*
X154785714Y-111954819D02*
X154690476Y-111907200D01*
X154690476Y-111907200D02*
X154642857Y-111859580D01*
X171738095Y-83407200D02*
X171880952Y-83454819D01*
X171880952Y-83454819D02*
X172119047Y-83454819D01*
X172119047Y-83454819D02*
X172214285Y-83407200D01*
X172214285Y-83407200D02*
X172261904Y-83359580D01*
X172261904Y-83359580D02*
X172309523Y-83264342D01*
X172309523Y-83264342D02*
X172309523Y-83169104D01*
X172309523Y-83169104D02*
X172261904Y-83073866D01*
X172261904Y-83073866D02*
X172214285Y-83026247D01*
X172214285Y-83026247D02*
X172119047Y-82978628D01*
X172119047Y-82978628D02*
X171928571Y-82931009D01*
X171928571Y-82931009D02*
X171833333Y-82883390D01*
X171833333Y-82883390D02*
X171785714Y-82835771D01*
X171785714Y-82835771D02*
X171738095Y-82740533D01*
X171738095Y-82740533D02*
X171738095Y-82645295D01*
X171738095Y-82645295D02*
X171785714Y-82550057D01*
X171785714Y-82550057D02*
X171833333Y-82502438D01*
X171833333Y-82502438D02*
X171928571Y-82454819D01*
X171928571Y-82454819D02*
X172166666Y-82454819D01*
X172166666Y-82454819D02*
X172309523Y-82502438D01*
X172880952Y-82883390D02*
X172785714Y-82835771D01*
X172785714Y-82835771D02*
X172738095Y-82788152D01*
X172738095Y-82788152D02*
X172690476Y-82692914D01*
X172690476Y-82692914D02*
X172690476Y-82645295D01*
X172690476Y-82645295D02*
X172738095Y-82550057D01*
X172738095Y-82550057D02*
X172785714Y-82502438D01*
X172785714Y-82502438D02*
X172880952Y-82454819D01*
X172880952Y-82454819D02*
X173071428Y-82454819D01*
X173071428Y-82454819D02*
X173166666Y-82502438D01*
X173166666Y-82502438D02*
X173214285Y-82550057D01*
X173214285Y-82550057D02*
X173261904Y-82645295D01*
X173261904Y-82645295D02*
X173261904Y-82692914D01*
X173261904Y-82692914D02*
X173214285Y-82788152D01*
X173214285Y-82788152D02*
X173166666Y-82835771D01*
X173166666Y-82835771D02*
X173071428Y-82883390D01*
X173071428Y-82883390D02*
X172880952Y-82883390D01*
X172880952Y-82883390D02*
X172785714Y-82931009D01*
X172785714Y-82931009D02*
X172738095Y-82978628D01*
X172738095Y-82978628D02*
X172690476Y-83073866D01*
X172690476Y-83073866D02*
X172690476Y-83264342D01*
X172690476Y-83264342D02*
X172738095Y-83359580D01*
X172738095Y-83359580D02*
X172785714Y-83407200D01*
X172785714Y-83407200D02*
X172880952Y-83454819D01*
X172880952Y-83454819D02*
X173071428Y-83454819D01*
X173071428Y-83454819D02*
X173166666Y-83407200D01*
X173166666Y-83407200D02*
X173214285Y-83359580D01*
X173214285Y-83359580D02*
X173261904Y-83264342D01*
X173261904Y-83264342D02*
X173261904Y-83073866D01*
X173261904Y-83073866D02*
X173214285Y-82978628D01*
X173214285Y-82978628D02*
X173166666Y-82931009D01*
X173166666Y-82931009D02*
X173071428Y-82883390D01*
X260285714Y-137454819D02*
X260285714Y-136454819D01*
X260285714Y-136454819D02*
X260523809Y-136454819D01*
X260523809Y-136454819D02*
X260666666Y-136502438D01*
X260666666Y-136502438D02*
X260761904Y-136597676D01*
X260761904Y-136597676D02*
X260809523Y-136692914D01*
X260809523Y-136692914D02*
X260857142Y-136883390D01*
X260857142Y-136883390D02*
X260857142Y-137026247D01*
X260857142Y-137026247D02*
X260809523Y-137216723D01*
X260809523Y-137216723D02*
X260761904Y-137311961D01*
X260761904Y-137311961D02*
X260666666Y-137407200D01*
X260666666Y-137407200D02*
X260523809Y-137454819D01*
X260523809Y-137454819D02*
X260285714Y-137454819D01*
X261238095Y-136550057D02*
X261285714Y-136502438D01*
X261285714Y-136502438D02*
X261380952Y-136454819D01*
X261380952Y-136454819D02*
X261619047Y-136454819D01*
X261619047Y-136454819D02*
X261714285Y-136502438D01*
X261714285Y-136502438D02*
X261761904Y-136550057D01*
X261761904Y-136550057D02*
X261809523Y-136645295D01*
X261809523Y-136645295D02*
X261809523Y-136740533D01*
X261809523Y-136740533D02*
X261761904Y-136883390D01*
X261761904Y-136883390D02*
X261190476Y-137454819D01*
X261190476Y-137454819D02*
X261809523Y-137454819D01*
X262428571Y-136454819D02*
X262523809Y-136454819D01*
X262523809Y-136454819D02*
X262619047Y-136502438D01*
X262619047Y-136502438D02*
X262666666Y-136550057D01*
X262666666Y-136550057D02*
X262714285Y-136645295D01*
X262714285Y-136645295D02*
X262761904Y-136835771D01*
X262761904Y-136835771D02*
X262761904Y-137073866D01*
X262761904Y-137073866D02*
X262714285Y-137264342D01*
X262714285Y-137264342D02*
X262666666Y-137359580D01*
X262666666Y-137359580D02*
X262619047Y-137407200D01*
X262619047Y-137407200D02*
X262523809Y-137454819D01*
X262523809Y-137454819D02*
X262428571Y-137454819D01*
X262428571Y-137454819D02*
X262333333Y-137407200D01*
X262333333Y-137407200D02*
X262285714Y-137359580D01*
X262285714Y-137359580D02*
X262238095Y-137264342D01*
X262238095Y-137264342D02*
X262190476Y-137073866D01*
X262190476Y-137073866D02*
X262190476Y-136835771D01*
X262190476Y-136835771D02*
X262238095Y-136645295D01*
X262238095Y-136645295D02*
X262285714Y-136550057D01*
X262285714Y-136550057D02*
X262333333Y-136502438D01*
X262333333Y-136502438D02*
X262428571Y-136454819D01*
X207738095Y-52107200D02*
X207880952Y-52154819D01*
X207880952Y-52154819D02*
X208119047Y-52154819D01*
X208119047Y-52154819D02*
X208214285Y-52107200D01*
X208214285Y-52107200D02*
X208261904Y-52059580D01*
X208261904Y-52059580D02*
X208309523Y-51964342D01*
X208309523Y-51964342D02*
X208309523Y-51869104D01*
X208309523Y-51869104D02*
X208261904Y-51773866D01*
X208261904Y-51773866D02*
X208214285Y-51726247D01*
X208214285Y-51726247D02*
X208119047Y-51678628D01*
X208119047Y-51678628D02*
X207928571Y-51631009D01*
X207928571Y-51631009D02*
X207833333Y-51583390D01*
X207833333Y-51583390D02*
X207785714Y-51535771D01*
X207785714Y-51535771D02*
X207738095Y-51440533D01*
X207738095Y-51440533D02*
X207738095Y-51345295D01*
X207738095Y-51345295D02*
X207785714Y-51250057D01*
X207785714Y-51250057D02*
X207833333Y-51202438D01*
X207833333Y-51202438D02*
X207928571Y-51154819D01*
X207928571Y-51154819D02*
X208166666Y-51154819D01*
X208166666Y-51154819D02*
X208309523Y-51202438D01*
X209166666Y-51488152D02*
X209166666Y-52154819D01*
X208928571Y-51107200D02*
X208690476Y-51821485D01*
X208690476Y-51821485D02*
X209309523Y-51821485D01*
X229086667Y-57707200D02*
X229229524Y-57754819D01*
X229229524Y-57754819D02*
X229467619Y-57754819D01*
X229467619Y-57754819D02*
X229562857Y-57707200D01*
X229562857Y-57707200D02*
X229610476Y-57659580D01*
X229610476Y-57659580D02*
X229658095Y-57564342D01*
X229658095Y-57564342D02*
X229658095Y-57469104D01*
X229658095Y-57469104D02*
X229610476Y-57373866D01*
X229610476Y-57373866D02*
X229562857Y-57326247D01*
X229562857Y-57326247D02*
X229467619Y-57278628D01*
X229467619Y-57278628D02*
X229277143Y-57231009D01*
X229277143Y-57231009D02*
X229181905Y-57183390D01*
X229181905Y-57183390D02*
X229134286Y-57135771D01*
X229134286Y-57135771D02*
X229086667Y-57040533D01*
X229086667Y-57040533D02*
X229086667Y-56945295D01*
X229086667Y-56945295D02*
X229134286Y-56850057D01*
X229134286Y-56850057D02*
X229181905Y-56802438D01*
X229181905Y-56802438D02*
X229277143Y-56754819D01*
X229277143Y-56754819D02*
X229515238Y-56754819D01*
X229515238Y-56754819D02*
X229658095Y-56802438D01*
X229991429Y-56754819D02*
X230229524Y-57754819D01*
X230229524Y-57754819D02*
X230420000Y-57040533D01*
X230420000Y-57040533D02*
X230610476Y-57754819D01*
X230610476Y-57754819D02*
X230848572Y-56754819D01*
X231181905Y-56850057D02*
X231229524Y-56802438D01*
X231229524Y-56802438D02*
X231324762Y-56754819D01*
X231324762Y-56754819D02*
X231562857Y-56754819D01*
X231562857Y-56754819D02*
X231658095Y-56802438D01*
X231658095Y-56802438D02*
X231705714Y-56850057D01*
X231705714Y-56850057D02*
X231753333Y-56945295D01*
X231753333Y-56945295D02*
X231753333Y-57040533D01*
X231753333Y-57040533D02*
X231705714Y-57183390D01*
X231705714Y-57183390D02*
X231134286Y-57754819D01*
X231134286Y-57754819D02*
X231753333Y-57754819D01*
X170761905Y-78454819D02*
X170761905Y-77454819D01*
X170761905Y-77454819D02*
X171000000Y-77454819D01*
X171000000Y-77454819D02*
X171142857Y-77502438D01*
X171142857Y-77502438D02*
X171238095Y-77597676D01*
X171238095Y-77597676D02*
X171285714Y-77692914D01*
X171285714Y-77692914D02*
X171333333Y-77883390D01*
X171333333Y-77883390D02*
X171333333Y-78026247D01*
X171333333Y-78026247D02*
X171285714Y-78216723D01*
X171285714Y-78216723D02*
X171238095Y-78311961D01*
X171238095Y-78311961D02*
X171142857Y-78407200D01*
X171142857Y-78407200D02*
X171000000Y-78454819D01*
X171000000Y-78454819D02*
X170761905Y-78454819D01*
X171714286Y-77550057D02*
X171761905Y-77502438D01*
X171761905Y-77502438D02*
X171857143Y-77454819D01*
X171857143Y-77454819D02*
X172095238Y-77454819D01*
X172095238Y-77454819D02*
X172190476Y-77502438D01*
X172190476Y-77502438D02*
X172238095Y-77550057D01*
X172238095Y-77550057D02*
X172285714Y-77645295D01*
X172285714Y-77645295D02*
X172285714Y-77740533D01*
X172285714Y-77740533D02*
X172238095Y-77883390D01*
X172238095Y-77883390D02*
X171666667Y-78454819D01*
X171666667Y-78454819D02*
X172285714Y-78454819D01*
X248489906Y-70373494D02*
X248628069Y-70433382D01*
X248628069Y-70433382D02*
X248865259Y-70454134D01*
X248865259Y-70454134D02*
X248964285Y-70414996D01*
X248964285Y-70414996D02*
X249015873Y-70371709D01*
X249015873Y-70371709D02*
X249071611Y-70280983D01*
X249071611Y-70280983D02*
X249079912Y-70186108D01*
X249079912Y-70186108D02*
X249040774Y-70087082D01*
X249040774Y-70087082D02*
X248997487Y-70035494D01*
X248997487Y-70035494D02*
X248906761Y-69979755D01*
X248906761Y-69979755D02*
X248721160Y-69915716D01*
X248721160Y-69915716D02*
X248630435Y-69859978D01*
X248630435Y-69859978D02*
X248587147Y-69808390D01*
X248587147Y-69808390D02*
X248548010Y-69709364D01*
X248548010Y-69709364D02*
X248556311Y-69614488D01*
X248556311Y-69614488D02*
X248612049Y-69523763D01*
X248612049Y-69523763D02*
X248663637Y-69480475D01*
X248663637Y-69480475D02*
X248762663Y-69441338D01*
X248762663Y-69441338D02*
X248999852Y-69462089D01*
X248999852Y-69462089D02*
X249138015Y-69521978D01*
X249996047Y-69549245D02*
X249806296Y-69532644D01*
X249806296Y-69532644D02*
X249707270Y-69571781D01*
X249707270Y-69571781D02*
X249655682Y-69615069D01*
X249655682Y-69615069D02*
X249548355Y-69749082D01*
X249548355Y-69749082D02*
X249484316Y-69934683D01*
X249484316Y-69934683D02*
X249451114Y-70314186D01*
X249451114Y-70314186D02*
X249490251Y-70413212D01*
X249490251Y-70413212D02*
X249533539Y-70464800D01*
X249533539Y-70464800D02*
X249624264Y-70520538D01*
X249624264Y-70520538D02*
X249814016Y-70537139D01*
X249814016Y-70537139D02*
X249913041Y-70498002D01*
X249913041Y-70498002D02*
X249964630Y-70454714D01*
X249964630Y-70454714D02*
X250020368Y-70363989D01*
X250020368Y-70363989D02*
X250041119Y-70126800D01*
X250041119Y-70126800D02*
X250001982Y-70027774D01*
X250001982Y-70027774D02*
X249958694Y-69976186D01*
X249958694Y-69976186D02*
X249867969Y-69920447D01*
X249867969Y-69920447D02*
X249678218Y-69903846D01*
X249678218Y-69903846D02*
X249579192Y-69942983D01*
X249579192Y-69942983D02*
X249527604Y-69986271D01*
X249527604Y-69986271D02*
X249471865Y-70076996D01*
X206761905Y-63954819D02*
X206761905Y-62954819D01*
X206761905Y-62954819D02*
X207000000Y-62954819D01*
X207000000Y-62954819D02*
X207142857Y-63002438D01*
X207142857Y-63002438D02*
X207238095Y-63097676D01*
X207238095Y-63097676D02*
X207285714Y-63192914D01*
X207285714Y-63192914D02*
X207333333Y-63383390D01*
X207333333Y-63383390D02*
X207333333Y-63526247D01*
X207333333Y-63526247D02*
X207285714Y-63716723D01*
X207285714Y-63716723D02*
X207238095Y-63811961D01*
X207238095Y-63811961D02*
X207142857Y-63907200D01*
X207142857Y-63907200D02*
X207000000Y-63954819D01*
X207000000Y-63954819D02*
X206761905Y-63954819D01*
X208190476Y-63288152D02*
X208190476Y-63954819D01*
X207952381Y-62907200D02*
X207714286Y-63621485D01*
X207714286Y-63621485D02*
X208333333Y-63621485D01*
X226285714Y-113954819D02*
X226285714Y-112954819D01*
X226285714Y-112954819D02*
X226523809Y-112954819D01*
X226523809Y-112954819D02*
X226666666Y-113002438D01*
X226666666Y-113002438D02*
X226761904Y-113097676D01*
X226761904Y-113097676D02*
X226809523Y-113192914D01*
X226809523Y-113192914D02*
X226857142Y-113383390D01*
X226857142Y-113383390D02*
X226857142Y-113526247D01*
X226857142Y-113526247D02*
X226809523Y-113716723D01*
X226809523Y-113716723D02*
X226761904Y-113811961D01*
X226761904Y-113811961D02*
X226666666Y-113907200D01*
X226666666Y-113907200D02*
X226523809Y-113954819D01*
X226523809Y-113954819D02*
X226285714Y-113954819D01*
X227809523Y-113954819D02*
X227238095Y-113954819D01*
X227523809Y-113954819D02*
X227523809Y-112954819D01*
X227523809Y-112954819D02*
X227428571Y-113097676D01*
X227428571Y-113097676D02*
X227333333Y-113192914D01*
X227333333Y-113192914D02*
X227238095Y-113240533D01*
X228142857Y-112954819D02*
X228809523Y-112954819D01*
X228809523Y-112954819D02*
X228380952Y-113954819D01*
X188761905Y-87454819D02*
X188761905Y-86454819D01*
X188761905Y-86454819D02*
X189000000Y-86454819D01*
X189000000Y-86454819D02*
X189142857Y-86502438D01*
X189142857Y-86502438D02*
X189238095Y-86597676D01*
X189238095Y-86597676D02*
X189285714Y-86692914D01*
X189285714Y-86692914D02*
X189333333Y-86883390D01*
X189333333Y-86883390D02*
X189333333Y-87026247D01*
X189333333Y-87026247D02*
X189285714Y-87216723D01*
X189285714Y-87216723D02*
X189238095Y-87311961D01*
X189238095Y-87311961D02*
X189142857Y-87407200D01*
X189142857Y-87407200D02*
X189000000Y-87454819D01*
X189000000Y-87454819D02*
X188761905Y-87454819D01*
X189809524Y-87454819D02*
X190000000Y-87454819D01*
X190000000Y-87454819D02*
X190095238Y-87407200D01*
X190095238Y-87407200D02*
X190142857Y-87359580D01*
X190142857Y-87359580D02*
X190238095Y-87216723D01*
X190238095Y-87216723D02*
X190285714Y-87026247D01*
X190285714Y-87026247D02*
X190285714Y-86645295D01*
X190285714Y-86645295D02*
X190238095Y-86550057D01*
X190238095Y-86550057D02*
X190190476Y-86502438D01*
X190190476Y-86502438D02*
X190095238Y-86454819D01*
X190095238Y-86454819D02*
X189904762Y-86454819D01*
X189904762Y-86454819D02*
X189809524Y-86502438D01*
X189809524Y-86502438D02*
X189761905Y-86550057D01*
X189761905Y-86550057D02*
X189714286Y-86645295D01*
X189714286Y-86645295D02*
X189714286Y-86883390D01*
X189714286Y-86883390D02*
X189761905Y-86978628D01*
X189761905Y-86978628D02*
X189809524Y-87026247D01*
X189809524Y-87026247D02*
X189904762Y-87073866D01*
X189904762Y-87073866D02*
X190095238Y-87073866D01*
X190095238Y-87073866D02*
X190190476Y-87026247D01*
X190190476Y-87026247D02*
X190238095Y-86978628D01*
X190238095Y-86978628D02*
X190285714Y-86883390D01*
X153486905Y-100457200D02*
X153629762Y-100504819D01*
X153629762Y-100504819D02*
X153867857Y-100504819D01*
X153867857Y-100504819D02*
X153963095Y-100457200D01*
X153963095Y-100457200D02*
X154010714Y-100409580D01*
X154010714Y-100409580D02*
X154058333Y-100314342D01*
X154058333Y-100314342D02*
X154058333Y-100219104D01*
X154058333Y-100219104D02*
X154010714Y-100123866D01*
X154010714Y-100123866D02*
X153963095Y-100076247D01*
X153963095Y-100076247D02*
X153867857Y-100028628D01*
X153867857Y-100028628D02*
X153677381Y-99981009D01*
X153677381Y-99981009D02*
X153582143Y-99933390D01*
X153582143Y-99933390D02*
X153534524Y-99885771D01*
X153534524Y-99885771D02*
X153486905Y-99790533D01*
X153486905Y-99790533D02*
X153486905Y-99695295D01*
X153486905Y-99695295D02*
X153534524Y-99600057D01*
X153534524Y-99600057D02*
X153582143Y-99552438D01*
X153582143Y-99552438D02*
X153677381Y-99504819D01*
X153677381Y-99504819D02*
X153915476Y-99504819D01*
X153915476Y-99504819D02*
X154058333Y-99552438D01*
X155010714Y-100504819D02*
X154439286Y-100504819D01*
X154725000Y-100504819D02*
X154725000Y-99504819D01*
X154725000Y-99504819D02*
X154629762Y-99647676D01*
X154629762Y-99647676D02*
X154534524Y-99742914D01*
X154534524Y-99742914D02*
X154439286Y-99790533D01*
X155344048Y-99504819D02*
X155963095Y-99504819D01*
X155963095Y-99504819D02*
X155629762Y-99885771D01*
X155629762Y-99885771D02*
X155772619Y-99885771D01*
X155772619Y-99885771D02*
X155867857Y-99933390D01*
X155867857Y-99933390D02*
X155915476Y-99981009D01*
X155915476Y-99981009D02*
X155963095Y-100076247D01*
X155963095Y-100076247D02*
X155963095Y-100314342D01*
X155963095Y-100314342D02*
X155915476Y-100409580D01*
X155915476Y-100409580D02*
X155867857Y-100457200D01*
X155867857Y-100457200D02*
X155772619Y-100504819D01*
X155772619Y-100504819D02*
X155486905Y-100504819D01*
X155486905Y-100504819D02*
X155391667Y-100457200D01*
X155391667Y-100457200D02*
X155344048Y-100409580D01*
X152761905Y-78954819D02*
X152761905Y-77954819D01*
X152761905Y-77954819D02*
X153000000Y-77954819D01*
X153000000Y-77954819D02*
X153142857Y-78002438D01*
X153142857Y-78002438D02*
X153238095Y-78097676D01*
X153238095Y-78097676D02*
X153285714Y-78192914D01*
X153285714Y-78192914D02*
X153333333Y-78383390D01*
X153333333Y-78383390D02*
X153333333Y-78526247D01*
X153333333Y-78526247D02*
X153285714Y-78716723D01*
X153285714Y-78716723D02*
X153238095Y-78811961D01*
X153238095Y-78811961D02*
X153142857Y-78907200D01*
X153142857Y-78907200D02*
X153000000Y-78954819D01*
X153000000Y-78954819D02*
X152761905Y-78954819D01*
X154285714Y-78954819D02*
X153714286Y-78954819D01*
X154000000Y-78954819D02*
X154000000Y-77954819D01*
X154000000Y-77954819D02*
X153904762Y-78097676D01*
X153904762Y-78097676D02*
X153809524Y-78192914D01*
X153809524Y-78192914D02*
X153714286Y-78240533D01*
X189261905Y-92407200D02*
X189404762Y-92454819D01*
X189404762Y-92454819D02*
X189642857Y-92454819D01*
X189642857Y-92454819D02*
X189738095Y-92407200D01*
X189738095Y-92407200D02*
X189785714Y-92359580D01*
X189785714Y-92359580D02*
X189833333Y-92264342D01*
X189833333Y-92264342D02*
X189833333Y-92169104D01*
X189833333Y-92169104D02*
X189785714Y-92073866D01*
X189785714Y-92073866D02*
X189738095Y-92026247D01*
X189738095Y-92026247D02*
X189642857Y-91978628D01*
X189642857Y-91978628D02*
X189452381Y-91931009D01*
X189452381Y-91931009D02*
X189357143Y-91883390D01*
X189357143Y-91883390D02*
X189309524Y-91835771D01*
X189309524Y-91835771D02*
X189261905Y-91740533D01*
X189261905Y-91740533D02*
X189261905Y-91645295D01*
X189261905Y-91645295D02*
X189309524Y-91550057D01*
X189309524Y-91550057D02*
X189357143Y-91502438D01*
X189357143Y-91502438D02*
X189452381Y-91454819D01*
X189452381Y-91454819D02*
X189690476Y-91454819D01*
X189690476Y-91454819D02*
X189833333Y-91502438D01*
X190785714Y-92454819D02*
X190214286Y-92454819D01*
X190500000Y-92454819D02*
X190500000Y-91454819D01*
X190500000Y-91454819D02*
X190404762Y-91597676D01*
X190404762Y-91597676D02*
X190309524Y-91692914D01*
X190309524Y-91692914D02*
X190214286Y-91740533D01*
X191690476Y-91454819D02*
X191214286Y-91454819D01*
X191214286Y-91454819D02*
X191166667Y-91931009D01*
X191166667Y-91931009D02*
X191214286Y-91883390D01*
X191214286Y-91883390D02*
X191309524Y-91835771D01*
X191309524Y-91835771D02*
X191547619Y-91835771D01*
X191547619Y-91835771D02*
X191642857Y-91883390D01*
X191642857Y-91883390D02*
X191690476Y-91931009D01*
X191690476Y-91931009D02*
X191738095Y-92026247D01*
X191738095Y-92026247D02*
X191738095Y-92264342D01*
X191738095Y-92264342D02*
X191690476Y-92359580D01*
X191690476Y-92359580D02*
X191642857Y-92407200D01*
X191642857Y-92407200D02*
X191547619Y-92454819D01*
X191547619Y-92454819D02*
X191309524Y-92454819D01*
X191309524Y-92454819D02*
X191214286Y-92407200D01*
X191214286Y-92407200D02*
X191166667Y-92359580D01*
X190238095Y-58907200D02*
X190380952Y-58954819D01*
X190380952Y-58954819D02*
X190619047Y-58954819D01*
X190619047Y-58954819D02*
X190714285Y-58907200D01*
X190714285Y-58907200D02*
X190761904Y-58859580D01*
X190761904Y-58859580D02*
X190809523Y-58764342D01*
X190809523Y-58764342D02*
X190809523Y-58669104D01*
X190809523Y-58669104D02*
X190761904Y-58573866D01*
X190761904Y-58573866D02*
X190714285Y-58526247D01*
X190714285Y-58526247D02*
X190619047Y-58478628D01*
X190619047Y-58478628D02*
X190428571Y-58431009D01*
X190428571Y-58431009D02*
X190333333Y-58383390D01*
X190333333Y-58383390D02*
X190285714Y-58335771D01*
X190285714Y-58335771D02*
X190238095Y-58240533D01*
X190238095Y-58240533D02*
X190238095Y-58145295D01*
X190238095Y-58145295D02*
X190285714Y-58050057D01*
X190285714Y-58050057D02*
X190333333Y-58002438D01*
X190333333Y-58002438D02*
X190428571Y-57954819D01*
X190428571Y-57954819D02*
X190666666Y-57954819D01*
X190666666Y-57954819D02*
X190809523Y-58002438D01*
X191142857Y-57954819D02*
X191761904Y-57954819D01*
X191761904Y-57954819D02*
X191428571Y-58335771D01*
X191428571Y-58335771D02*
X191571428Y-58335771D01*
X191571428Y-58335771D02*
X191666666Y-58383390D01*
X191666666Y-58383390D02*
X191714285Y-58431009D01*
X191714285Y-58431009D02*
X191761904Y-58526247D01*
X191761904Y-58526247D02*
X191761904Y-58764342D01*
X191761904Y-58764342D02*
X191714285Y-58859580D01*
X191714285Y-58859580D02*
X191666666Y-58907200D01*
X191666666Y-58907200D02*
X191571428Y-58954819D01*
X191571428Y-58954819D02*
X191285714Y-58954819D01*
X191285714Y-58954819D02*
X191190476Y-58907200D01*
X191190476Y-58907200D02*
X191142857Y-58859580D01*
X281255194Y-67605582D02*
X281205368Y-68318128D01*
X281205368Y-68318128D02*
X281147900Y-68457316D01*
X281147900Y-68457316D02*
X281046250Y-68545678D01*
X281046250Y-68545678D02*
X280900419Y-68583216D01*
X280900419Y-68583216D02*
X280805413Y-68576573D01*
X282183002Y-68672903D02*
X281612965Y-68633042D01*
X281897983Y-68652973D02*
X281967740Y-67655408D01*
X281967740Y-67655408D02*
X281862769Y-67791274D01*
X281862769Y-67791274D02*
X281761119Y-67879637D01*
X281761119Y-67879637D02*
X281662791Y-67920496D01*
X189738095Y-75907200D02*
X189880952Y-75954819D01*
X189880952Y-75954819D02*
X190119047Y-75954819D01*
X190119047Y-75954819D02*
X190214285Y-75907200D01*
X190214285Y-75907200D02*
X190261904Y-75859580D01*
X190261904Y-75859580D02*
X190309523Y-75764342D01*
X190309523Y-75764342D02*
X190309523Y-75669104D01*
X190309523Y-75669104D02*
X190261904Y-75573866D01*
X190261904Y-75573866D02*
X190214285Y-75526247D01*
X190214285Y-75526247D02*
X190119047Y-75478628D01*
X190119047Y-75478628D02*
X189928571Y-75431009D01*
X189928571Y-75431009D02*
X189833333Y-75383390D01*
X189833333Y-75383390D02*
X189785714Y-75335771D01*
X189785714Y-75335771D02*
X189738095Y-75240533D01*
X189738095Y-75240533D02*
X189738095Y-75145295D01*
X189738095Y-75145295D02*
X189785714Y-75050057D01*
X189785714Y-75050057D02*
X189833333Y-75002438D01*
X189833333Y-75002438D02*
X189928571Y-74954819D01*
X189928571Y-74954819D02*
X190166666Y-74954819D01*
X190166666Y-74954819D02*
X190309523Y-75002438D01*
X190785714Y-75954819D02*
X190976190Y-75954819D01*
X190976190Y-75954819D02*
X191071428Y-75907200D01*
X191071428Y-75907200D02*
X191119047Y-75859580D01*
X191119047Y-75859580D02*
X191214285Y-75716723D01*
X191214285Y-75716723D02*
X191261904Y-75526247D01*
X191261904Y-75526247D02*
X191261904Y-75145295D01*
X191261904Y-75145295D02*
X191214285Y-75050057D01*
X191214285Y-75050057D02*
X191166666Y-75002438D01*
X191166666Y-75002438D02*
X191071428Y-74954819D01*
X191071428Y-74954819D02*
X190880952Y-74954819D01*
X190880952Y-74954819D02*
X190785714Y-75002438D01*
X190785714Y-75002438D02*
X190738095Y-75050057D01*
X190738095Y-75050057D02*
X190690476Y-75145295D01*
X190690476Y-75145295D02*
X190690476Y-75383390D01*
X190690476Y-75383390D02*
X190738095Y-75478628D01*
X190738095Y-75478628D02*
X190785714Y-75526247D01*
X190785714Y-75526247D02*
X190880952Y-75573866D01*
X190880952Y-75573866D02*
X191071428Y-75573866D01*
X191071428Y-75573866D02*
X191166666Y-75526247D01*
X191166666Y-75526247D02*
X191214285Y-75478628D01*
X191214285Y-75478628D02*
X191261904Y-75383390D01*
X244785714Y-98954819D02*
X244785714Y-97954819D01*
X244785714Y-97954819D02*
X245023809Y-97954819D01*
X245023809Y-97954819D02*
X245166666Y-98002438D01*
X245166666Y-98002438D02*
X245261904Y-98097676D01*
X245261904Y-98097676D02*
X245309523Y-98192914D01*
X245309523Y-98192914D02*
X245357142Y-98383390D01*
X245357142Y-98383390D02*
X245357142Y-98526247D01*
X245357142Y-98526247D02*
X245309523Y-98716723D01*
X245309523Y-98716723D02*
X245261904Y-98811961D01*
X245261904Y-98811961D02*
X245166666Y-98907200D01*
X245166666Y-98907200D02*
X245023809Y-98954819D01*
X245023809Y-98954819D02*
X244785714Y-98954819D01*
X246309523Y-98954819D02*
X245738095Y-98954819D01*
X246023809Y-98954819D02*
X246023809Y-97954819D01*
X246023809Y-97954819D02*
X245928571Y-98097676D01*
X245928571Y-98097676D02*
X245833333Y-98192914D01*
X245833333Y-98192914D02*
X245738095Y-98240533D01*
X246690476Y-98050057D02*
X246738095Y-98002438D01*
X246738095Y-98002438D02*
X246833333Y-97954819D01*
X246833333Y-97954819D02*
X247071428Y-97954819D01*
X247071428Y-97954819D02*
X247166666Y-98002438D01*
X247166666Y-98002438D02*
X247214285Y-98050057D01*
X247214285Y-98050057D02*
X247261904Y-98145295D01*
X247261904Y-98145295D02*
X247261904Y-98240533D01*
X247261904Y-98240533D02*
X247214285Y-98383390D01*
X247214285Y-98383390D02*
X246642857Y-98954819D01*
X246642857Y-98954819D02*
X247261904Y-98954819D01*
X153738095Y-83407200D02*
X153880952Y-83454819D01*
X153880952Y-83454819D02*
X154119047Y-83454819D01*
X154119047Y-83454819D02*
X154214285Y-83407200D01*
X154214285Y-83407200D02*
X154261904Y-83359580D01*
X154261904Y-83359580D02*
X154309523Y-83264342D01*
X154309523Y-83264342D02*
X154309523Y-83169104D01*
X154309523Y-83169104D02*
X154261904Y-83073866D01*
X154261904Y-83073866D02*
X154214285Y-83026247D01*
X154214285Y-83026247D02*
X154119047Y-82978628D01*
X154119047Y-82978628D02*
X153928571Y-82931009D01*
X153928571Y-82931009D02*
X153833333Y-82883390D01*
X153833333Y-82883390D02*
X153785714Y-82835771D01*
X153785714Y-82835771D02*
X153738095Y-82740533D01*
X153738095Y-82740533D02*
X153738095Y-82645295D01*
X153738095Y-82645295D02*
X153785714Y-82550057D01*
X153785714Y-82550057D02*
X153833333Y-82502438D01*
X153833333Y-82502438D02*
X153928571Y-82454819D01*
X153928571Y-82454819D02*
X154166666Y-82454819D01*
X154166666Y-82454819D02*
X154309523Y-82502438D01*
X154642857Y-82454819D02*
X155309523Y-82454819D01*
X155309523Y-82454819D02*
X154880952Y-83454819D01*
X242785714Y-134454819D02*
X242785714Y-133454819D01*
X242785714Y-133454819D02*
X243023809Y-133454819D01*
X243023809Y-133454819D02*
X243166666Y-133502438D01*
X243166666Y-133502438D02*
X243261904Y-133597676D01*
X243261904Y-133597676D02*
X243309523Y-133692914D01*
X243309523Y-133692914D02*
X243357142Y-133883390D01*
X243357142Y-133883390D02*
X243357142Y-134026247D01*
X243357142Y-134026247D02*
X243309523Y-134216723D01*
X243309523Y-134216723D02*
X243261904Y-134311961D01*
X243261904Y-134311961D02*
X243166666Y-134407200D01*
X243166666Y-134407200D02*
X243023809Y-134454819D01*
X243023809Y-134454819D02*
X242785714Y-134454819D01*
X244309523Y-134454819D02*
X243738095Y-134454819D01*
X244023809Y-134454819D02*
X244023809Y-133454819D01*
X244023809Y-133454819D02*
X243928571Y-133597676D01*
X243928571Y-133597676D02*
X243833333Y-133692914D01*
X243833333Y-133692914D02*
X243738095Y-133740533D01*
X244785714Y-134454819D02*
X244976190Y-134454819D01*
X244976190Y-134454819D02*
X245071428Y-134407200D01*
X245071428Y-134407200D02*
X245119047Y-134359580D01*
X245119047Y-134359580D02*
X245214285Y-134216723D01*
X245214285Y-134216723D02*
X245261904Y-134026247D01*
X245261904Y-134026247D02*
X245261904Y-133645295D01*
X245261904Y-133645295D02*
X245214285Y-133550057D01*
X245214285Y-133550057D02*
X245166666Y-133502438D01*
X245166666Y-133502438D02*
X245071428Y-133454819D01*
X245071428Y-133454819D02*
X244880952Y-133454819D01*
X244880952Y-133454819D02*
X244785714Y-133502438D01*
X244785714Y-133502438D02*
X244738095Y-133550057D01*
X244738095Y-133550057D02*
X244690476Y-133645295D01*
X244690476Y-133645295D02*
X244690476Y-133883390D01*
X244690476Y-133883390D02*
X244738095Y-133978628D01*
X244738095Y-133978628D02*
X244785714Y-134026247D01*
X244785714Y-134026247D02*
X244880952Y-134073866D01*
X244880952Y-134073866D02*
X245071428Y-134073866D01*
X245071428Y-134073866D02*
X245166666Y-134026247D01*
X245166666Y-134026247D02*
X245214285Y-133978628D01*
X245214285Y-133978628D02*
X245261904Y-133883390D01*
X171261905Y-100407200D02*
X171404762Y-100454819D01*
X171404762Y-100454819D02*
X171642857Y-100454819D01*
X171642857Y-100454819D02*
X171738095Y-100407200D01*
X171738095Y-100407200D02*
X171785714Y-100359580D01*
X171785714Y-100359580D02*
X171833333Y-100264342D01*
X171833333Y-100264342D02*
X171833333Y-100169104D01*
X171833333Y-100169104D02*
X171785714Y-100073866D01*
X171785714Y-100073866D02*
X171738095Y-100026247D01*
X171738095Y-100026247D02*
X171642857Y-99978628D01*
X171642857Y-99978628D02*
X171452381Y-99931009D01*
X171452381Y-99931009D02*
X171357143Y-99883390D01*
X171357143Y-99883390D02*
X171309524Y-99835771D01*
X171309524Y-99835771D02*
X171261905Y-99740533D01*
X171261905Y-99740533D02*
X171261905Y-99645295D01*
X171261905Y-99645295D02*
X171309524Y-99550057D01*
X171309524Y-99550057D02*
X171357143Y-99502438D01*
X171357143Y-99502438D02*
X171452381Y-99454819D01*
X171452381Y-99454819D02*
X171690476Y-99454819D01*
X171690476Y-99454819D02*
X171833333Y-99502438D01*
X172785714Y-100454819D02*
X172214286Y-100454819D01*
X172500000Y-100454819D02*
X172500000Y-99454819D01*
X172500000Y-99454819D02*
X172404762Y-99597676D01*
X172404762Y-99597676D02*
X172309524Y-99692914D01*
X172309524Y-99692914D02*
X172214286Y-99740533D01*
X173642857Y-99788152D02*
X173642857Y-100454819D01*
X173404762Y-99407200D02*
X173166667Y-100121485D01*
X173166667Y-100121485D02*
X173785714Y-100121485D01*
X171738095Y-66407200D02*
X171880952Y-66454819D01*
X171880952Y-66454819D02*
X172119047Y-66454819D01*
X172119047Y-66454819D02*
X172214285Y-66407200D01*
X172214285Y-66407200D02*
X172261904Y-66359580D01*
X172261904Y-66359580D02*
X172309523Y-66264342D01*
X172309523Y-66264342D02*
X172309523Y-66169104D01*
X172309523Y-66169104D02*
X172261904Y-66073866D01*
X172261904Y-66073866D02*
X172214285Y-66026247D01*
X172214285Y-66026247D02*
X172119047Y-65978628D01*
X172119047Y-65978628D02*
X171928571Y-65931009D01*
X171928571Y-65931009D02*
X171833333Y-65883390D01*
X171833333Y-65883390D02*
X171785714Y-65835771D01*
X171785714Y-65835771D02*
X171738095Y-65740533D01*
X171738095Y-65740533D02*
X171738095Y-65645295D01*
X171738095Y-65645295D02*
X171785714Y-65550057D01*
X171785714Y-65550057D02*
X171833333Y-65502438D01*
X171833333Y-65502438D02*
X171928571Y-65454819D01*
X171928571Y-65454819D02*
X172166666Y-65454819D01*
X172166666Y-65454819D02*
X172309523Y-65502438D01*
X172690476Y-65550057D02*
X172738095Y-65502438D01*
X172738095Y-65502438D02*
X172833333Y-65454819D01*
X172833333Y-65454819D02*
X173071428Y-65454819D01*
X173071428Y-65454819D02*
X173166666Y-65502438D01*
X173166666Y-65502438D02*
X173214285Y-65550057D01*
X173214285Y-65550057D02*
X173261904Y-65645295D01*
X173261904Y-65645295D02*
X173261904Y-65740533D01*
X173261904Y-65740533D02*
X173214285Y-65883390D01*
X173214285Y-65883390D02*
X172642857Y-66454819D01*
X172642857Y-66454819D02*
X173261904Y-66454819D01*
X260984086Y-107806131D02*
X261116504Y-107877834D01*
X261116504Y-107877834D02*
X261350982Y-107919179D01*
X261350982Y-107919179D02*
X261453043Y-107888821D01*
X261453043Y-107888821D02*
X261508207Y-107850194D01*
X261508207Y-107850194D02*
X261571641Y-107764672D01*
X261571641Y-107764672D02*
X261588179Y-107670881D01*
X261588179Y-107670881D02*
X261557821Y-107568821D01*
X261557821Y-107568821D02*
X261519194Y-107513656D01*
X261519194Y-107513656D02*
X261433672Y-107450223D01*
X261433672Y-107450223D02*
X261254359Y-107370251D01*
X261254359Y-107370251D02*
X261168836Y-107306818D01*
X261168836Y-107306818D02*
X261130210Y-107251653D01*
X261130210Y-107251653D02*
X261099852Y-107149593D01*
X261099852Y-107149593D02*
X261116390Y-107055802D01*
X261116390Y-107055802D02*
X261179823Y-106970279D01*
X261179823Y-106970279D02*
X261234988Y-106931653D01*
X261234988Y-106931653D02*
X261337048Y-106901295D01*
X261337048Y-106901295D02*
X261571526Y-106942640D01*
X261571526Y-106942640D02*
X261703944Y-107014342D01*
X262040482Y-107025330D02*
X262101312Y-108051482D01*
X262101312Y-108051482D02*
X262412929Y-107381124D01*
X262412929Y-107381124D02*
X262476477Y-108117634D01*
X262476477Y-108117634D02*
X262884603Y-107174171D01*
X263601971Y-108316089D02*
X263039224Y-108216861D01*
X263320598Y-108266475D02*
X263494246Y-107281667D01*
X263494246Y-107281667D02*
X263375648Y-107405816D01*
X263375648Y-107405816D02*
X263265319Y-107483069D01*
X263265319Y-107483069D02*
X263163259Y-107513427D01*
X207261905Y-86407200D02*
X207404762Y-86454819D01*
X207404762Y-86454819D02*
X207642857Y-86454819D01*
X207642857Y-86454819D02*
X207738095Y-86407200D01*
X207738095Y-86407200D02*
X207785714Y-86359580D01*
X207785714Y-86359580D02*
X207833333Y-86264342D01*
X207833333Y-86264342D02*
X207833333Y-86169104D01*
X207833333Y-86169104D02*
X207785714Y-86073866D01*
X207785714Y-86073866D02*
X207738095Y-86026247D01*
X207738095Y-86026247D02*
X207642857Y-85978628D01*
X207642857Y-85978628D02*
X207452381Y-85931009D01*
X207452381Y-85931009D02*
X207357143Y-85883390D01*
X207357143Y-85883390D02*
X207309524Y-85835771D01*
X207309524Y-85835771D02*
X207261905Y-85740533D01*
X207261905Y-85740533D02*
X207261905Y-85645295D01*
X207261905Y-85645295D02*
X207309524Y-85550057D01*
X207309524Y-85550057D02*
X207357143Y-85502438D01*
X207357143Y-85502438D02*
X207452381Y-85454819D01*
X207452381Y-85454819D02*
X207690476Y-85454819D01*
X207690476Y-85454819D02*
X207833333Y-85502438D01*
X208785714Y-86454819D02*
X208214286Y-86454819D01*
X208500000Y-86454819D02*
X208500000Y-85454819D01*
X208500000Y-85454819D02*
X208404762Y-85597676D01*
X208404762Y-85597676D02*
X208309524Y-85692914D01*
X208309524Y-85692914D02*
X208214286Y-85740533D01*
X209642857Y-85454819D02*
X209452381Y-85454819D01*
X209452381Y-85454819D02*
X209357143Y-85502438D01*
X209357143Y-85502438D02*
X209309524Y-85550057D01*
X209309524Y-85550057D02*
X209214286Y-85692914D01*
X209214286Y-85692914D02*
X209166667Y-85883390D01*
X209166667Y-85883390D02*
X209166667Y-86264342D01*
X209166667Y-86264342D02*
X209214286Y-86359580D01*
X209214286Y-86359580D02*
X209261905Y-86407200D01*
X209261905Y-86407200D02*
X209357143Y-86454819D01*
X209357143Y-86454819D02*
X209547619Y-86454819D01*
X209547619Y-86454819D02*
X209642857Y-86407200D01*
X209642857Y-86407200D02*
X209690476Y-86359580D01*
X209690476Y-86359580D02*
X209738095Y-86264342D01*
X209738095Y-86264342D02*
X209738095Y-86026247D01*
X209738095Y-86026247D02*
X209690476Y-85931009D01*
X209690476Y-85931009D02*
X209642857Y-85883390D01*
X209642857Y-85883390D02*
X209547619Y-85835771D01*
X209547619Y-85835771D02*
X209357143Y-85835771D01*
X209357143Y-85835771D02*
X209261905Y-85883390D01*
X209261905Y-85883390D02*
X209214286Y-85931009D01*
X209214286Y-85931009D02*
X209166667Y-86026247D01*
X244536457Y-103852634D02*
X244674620Y-103912523D01*
X244674620Y-103912523D02*
X244911810Y-103933274D01*
X244911810Y-103933274D02*
X245010836Y-103894137D01*
X245010836Y-103894137D02*
X245062424Y-103850849D01*
X245062424Y-103850849D02*
X245118162Y-103760124D01*
X245118162Y-103760124D02*
X245126463Y-103665248D01*
X245126463Y-103665248D02*
X245087325Y-103566222D01*
X245087325Y-103566222D02*
X245044038Y-103514634D01*
X245044038Y-103514634D02*
X244953312Y-103458896D01*
X244953312Y-103458896D02*
X244767711Y-103394857D01*
X244767711Y-103394857D02*
X244676986Y-103339118D01*
X244676986Y-103339118D02*
X244633698Y-103287530D01*
X244633698Y-103287530D02*
X244594561Y-103188504D01*
X244594561Y-103188504D02*
X244602862Y-103093628D01*
X244602862Y-103093628D02*
X244658600Y-103002903D01*
X244658600Y-103002903D02*
X244710188Y-102959615D01*
X244710188Y-102959615D02*
X244809214Y-102920478D01*
X244809214Y-102920478D02*
X245046403Y-102941230D01*
X245046403Y-102941230D02*
X245184567Y-103001118D01*
X246050318Y-104032881D02*
X245481064Y-103983077D01*
X245765691Y-104007979D02*
X245852847Y-103011784D01*
X245852847Y-103011784D02*
X245745520Y-103145797D01*
X245745520Y-103145797D02*
X245642344Y-103232372D01*
X245642344Y-103232372D02*
X245543318Y-103271510D01*
X246669375Y-103513430D02*
X246578650Y-103457691D01*
X246578650Y-103457691D02*
X246535362Y-103406103D01*
X246535362Y-103406103D02*
X246496225Y-103307077D01*
X246496225Y-103307077D02*
X246500375Y-103259639D01*
X246500375Y-103259639D02*
X246556114Y-103168914D01*
X246556114Y-103168914D02*
X246607702Y-103125626D01*
X246607702Y-103125626D02*
X246706728Y-103086489D01*
X246706728Y-103086489D02*
X246896479Y-103103090D01*
X246896479Y-103103090D02*
X246987205Y-103158829D01*
X246987205Y-103158829D02*
X247030492Y-103210417D01*
X247030492Y-103210417D02*
X247069629Y-103309443D01*
X247069629Y-103309443D02*
X247065479Y-103356880D01*
X247065479Y-103356880D02*
X247009741Y-103447606D01*
X247009741Y-103447606D02*
X246958153Y-103490893D01*
X246958153Y-103490893D02*
X246859127Y-103530031D01*
X246859127Y-103530031D02*
X246669375Y-103513430D01*
X246669375Y-103513430D02*
X246570349Y-103552567D01*
X246570349Y-103552567D02*
X246518761Y-103595855D01*
X246518761Y-103595855D02*
X246463023Y-103686580D01*
X246463023Y-103686580D02*
X246446422Y-103876331D01*
X246446422Y-103876331D02*
X246485559Y-103975357D01*
X246485559Y-103975357D02*
X246528847Y-104026945D01*
X246528847Y-104026945D02*
X246619572Y-104082684D01*
X246619572Y-104082684D02*
X246809323Y-104099285D01*
X246809323Y-104099285D02*
X246908349Y-104060148D01*
X246908349Y-104060148D02*
X246959938Y-104016860D01*
X246959938Y-104016860D02*
X247015676Y-103926135D01*
X247015676Y-103926135D02*
X247032277Y-103736383D01*
X247032277Y-103736383D02*
X246993140Y-103637357D01*
X246993140Y-103637357D02*
X246949852Y-103585769D01*
X246949852Y-103585769D02*
X246859127Y-103530031D01*
D11*
%TO.C,D5*%
X227640000Y-81000000D02*
X227640000Y-83000000D01*
X227640000Y-81000000D02*
X231650000Y-81000000D01*
X227640000Y-83000000D02*
X231650000Y-83000000D01*
%TO.C,D10*%
X205140000Y-81500000D02*
X205140000Y-83500000D01*
X205140000Y-81500000D02*
X209150000Y-81500000D01*
X205140000Y-83500000D02*
X209150000Y-83500000D01*
%TO.C,S12*%
X238287466Y-102429339D02*
X253429625Y-103754106D01*
X239612233Y-87287180D02*
X238287466Y-102429339D01*
X253429625Y-103754106D02*
X254754392Y-88611947D01*
X254754392Y-88611947D02*
X239612233Y-87287180D01*
%TO.C,D7*%
X151140000Y-95500000D02*
X151140000Y-97500000D01*
X151140000Y-95500000D02*
X155150000Y-95500000D01*
X151140000Y-97500000D02*
X155150000Y-97500000D01*
%TO.C,D16*%
X205140000Y-98500000D02*
X205140000Y-100500000D01*
X205140000Y-98500000D02*
X209150000Y-98500000D01*
X205140000Y-100500000D02*
X209150000Y-100500000D01*
%TO.C,S20*%
X252695735Y-140664813D02*
X267664813Y-143304265D01*
X255335187Y-125695735D02*
X252695735Y-140664813D01*
X267664813Y-143304265D02*
X270304265Y-128335187D01*
X270304265Y-128335187D02*
X255335187Y-125695735D01*
%TO.C,D3*%
X187640000Y-71000000D02*
X187640000Y-73000000D01*
X187640000Y-71000000D02*
X191650000Y-71000000D01*
X187640000Y-73000000D02*
X191650000Y-73000000D01*
%TO.C,D6*%
X245640000Y-82500000D02*
X245640000Y-84500000D01*
X245640000Y-82500000D02*
X249650000Y-82500000D01*
X245640000Y-84500000D02*
X249650000Y-84500000D01*
%TO.C,D15*%
X187140000Y-104500000D02*
X187140000Y-106500000D01*
X187140000Y-104500000D02*
X191150000Y-104500000D01*
X187140000Y-106500000D02*
X191150000Y-106500000D01*
%TO.C,S17*%
X219266537Y-117908696D02*
X234408696Y-119233463D01*
X220591304Y-102766537D02*
X219266537Y-117908696D01*
X234408696Y-119233463D02*
X235733463Y-104091304D01*
X235733463Y-104091304D02*
X220591304Y-102766537D01*
%TO.C,S10*%
X200900000Y-70900000D02*
X200900000Y-86100000D01*
X200900000Y-86100000D02*
X216100000Y-86100000D01*
X216100000Y-70900000D02*
X200900000Y-70900000D01*
X216100000Y-86100000D02*
X216100000Y-70900000D01*
%TO.C,D11*%
X226640000Y-98000000D02*
X226640000Y-100000000D01*
X226640000Y-98000000D02*
X230650000Y-98000000D01*
X226640000Y-100000000D02*
X230650000Y-100000000D01*
%TO.C,D18*%
X242640000Y-116000000D02*
X242640000Y-118000000D01*
X242640000Y-116000000D02*
X246650000Y-116000000D01*
X242640000Y-118000000D02*
X246650000Y-118000000D01*
%TO.C,S5*%
X222522576Y-84195902D02*
X237664735Y-85520669D01*
X223847343Y-69053743D02*
X222522576Y-84195902D01*
X237664735Y-85520669D02*
X238989502Y-70378510D01*
X238989502Y-70378510D02*
X223847343Y-69053743D01*
%TO.C,S1*%
X146900000Y-67900000D02*
X146900000Y-83100000D01*
X146900000Y-83100000D02*
X162100000Y-83100000D01*
X162100000Y-67900000D02*
X146900000Y-67900000D01*
X162100000Y-83100000D02*
X162100000Y-67900000D01*
%TO.C,D8*%
X169140000Y-95500000D02*
X169140000Y-97500000D01*
X169140000Y-95500000D02*
X173150000Y-95500000D01*
X169140000Y-97500000D02*
X173150000Y-97500000D01*
%TO.C,D14*%
X169640000Y-112500000D02*
X169640000Y-114500000D01*
X169640000Y-112500000D02*
X173650000Y-112500000D01*
X169640000Y-114500000D02*
X173650000Y-114500000D01*
%TO.C,S11*%
X220787466Y-101429339D02*
X235929625Y-102754106D01*
X222112233Y-86287180D02*
X220787466Y-101429339D01*
X235929625Y-102754106D02*
X237254392Y-87611947D01*
X237254392Y-87611947D02*
X222112233Y-86287180D01*
%TO.C,S19*%
X235418372Y-137664813D02*
X250387450Y-140304265D01*
X238057824Y-122695735D02*
X235418372Y-137664813D01*
X250387450Y-140304265D02*
X253026902Y-125335187D01*
X253026902Y-125335187D02*
X238057824Y-122695735D01*
%TO.C,U1*%
X256568816Y-104439959D02*
X271898384Y-105511906D01*
X258872176Y-71500393D02*
X256565825Y-104439748D01*
X259229319Y-104625998D02*
X256565825Y-104439748D01*
X259229319Y-104625998D02*
X261355498Y-74220246D01*
X261178316Y-76754059D02*
X258514820Y-76567809D01*
X261355498Y-74220246D02*
X258692002Y-74033997D01*
X263939801Y-71854756D02*
X258872176Y-71500393D01*
X264116982Y-69320944D02*
X263939801Y-71854756D01*
X271898384Y-105511906D02*
X274558887Y-105697946D01*
X271971802Y-69870205D02*
X264116982Y-69320944D01*
X271971802Y-69870205D02*
X271794621Y-72404018D01*
X272075565Y-102978093D02*
X271898384Y-105511906D01*
X272075565Y-102978093D02*
X274024561Y-75106153D01*
X274024561Y-75106153D02*
X276688058Y-75292403D01*
X274558887Y-105697946D02*
X276862246Y-72758382D01*
X276862246Y-72758382D02*
X271794621Y-72404018D01*
%TO.C,D13*%
X151640000Y-112500000D02*
X151640000Y-114500000D01*
X151640000Y-112500000D02*
X155650000Y-112500000D01*
X151640000Y-114500000D02*
X155650000Y-114500000D01*
%TO.C,S8*%
X164900000Y-84400000D02*
X164900000Y-99600000D01*
X164900000Y-99600000D02*
X180100000Y-99600000D01*
X180100000Y-84400000D02*
X164900000Y-84400000D01*
X180100000Y-99600000D02*
X180100000Y-84400000D01*
%TO.C,D20*%
X259140000Y-138000000D02*
X259140000Y-140000000D01*
X259140000Y-138000000D02*
X263150000Y-138000000D01*
X259140000Y-140000000D02*
X263150000Y-140000000D01*
%TO.C,S4*%
X200900000Y-53100000D02*
X200900000Y-68300000D01*
X200900000Y-68300000D02*
X216100000Y-68300000D01*
X216100000Y-53100000D02*
X200900000Y-53100000D01*
X216100000Y-68300000D02*
X216100000Y-53100000D01*
%TO.C,SW2*%
X227150000Y-58150000D02*
X227150000Y-58610000D01*
X227150000Y-58610000D02*
X226150000Y-58610000D01*
X227150000Y-61390000D02*
X227150000Y-61850000D01*
X227150000Y-61850000D02*
X233350000Y-61850000D01*
X233350000Y-58150000D02*
X227150000Y-58150000D01*
X233350000Y-58150000D02*
X233350000Y-58610000D01*
X233350000Y-61390000D02*
X233350000Y-61850000D01*
X228750000Y-59450000D02*
X231600000Y-59450000D01*
X231600000Y-60500000D01*
X228750000Y-60500000D01*
X228750000Y-59450000D01*
%TO.C,D2*%
X169140000Y-79000000D02*
X169140000Y-81000000D01*
X169140000Y-79000000D02*
X173150000Y-79000000D01*
X169140000Y-81000000D02*
X173150000Y-81000000D01*
%TO.C,S6*%
X240266537Y-85908696D02*
X255408696Y-87233463D01*
X241591304Y-70766537D02*
X240266537Y-85908696D01*
X255408696Y-87233463D02*
X256733463Y-72091304D01*
X256733463Y-72091304D02*
X241591304Y-70766537D01*
%TO.C,D4*%
X205140000Y-64500000D02*
X205140000Y-66500000D01*
X205140000Y-64500000D02*
X209150000Y-64500000D01*
X205140000Y-66500000D02*
X209150000Y-66500000D01*
%TO.C,D17*%
X225140000Y-114500000D02*
X225140000Y-116500000D01*
X225140000Y-114500000D02*
X229150000Y-114500000D01*
X225140000Y-116500000D02*
X229150000Y-116500000D01*
%TO.C,D9*%
X187140000Y-88000000D02*
X187140000Y-90000000D01*
X187140000Y-88000000D02*
X191150000Y-88000000D01*
X187140000Y-90000000D02*
X191150000Y-90000000D01*
%TO.C,S13*%
X147125000Y-101450000D02*
X147125000Y-116650000D01*
X147125000Y-116650000D02*
X162325000Y-116650000D01*
X162325000Y-101450000D02*
X147125000Y-101450000D01*
X162325000Y-116650000D02*
X162325000Y-101450000D01*
%TO.C,D1*%
X151140000Y-79500000D02*
X151140000Y-81500000D01*
X151140000Y-79500000D02*
X155150000Y-79500000D01*
X151140000Y-81500000D02*
X155150000Y-81500000D01*
%TO.C,S15*%
X182900000Y-93400000D02*
X182900000Y-108600000D01*
X182900000Y-108600000D02*
X198100000Y-108600000D01*
X198100000Y-93400000D02*
X182900000Y-93400000D01*
X198100000Y-108600000D02*
X198100000Y-93400000D01*
%TO.C,S3*%
X183400000Y-59900000D02*
X183400000Y-75100000D01*
X183400000Y-75100000D02*
X198600000Y-75100000D01*
X198600000Y-59900000D02*
X183400000Y-59900000D01*
X198600000Y-75100000D02*
X198600000Y-59900000D01*
%TO.C,J1*%
X275988782Y-87201130D02*
X276982115Y-72995819D01*
X276982115Y-72995819D02*
X278877485Y-73128357D01*
X278877485Y-73128357D02*
X279156513Y-69138100D01*
X279156513Y-69138100D02*
X285381313Y-69573381D01*
X284408223Y-87789877D02*
X275988782Y-87201130D01*
X285102287Y-73563636D02*
X285401554Y-73584562D01*
X285381313Y-69573381D02*
X285102287Y-73563636D01*
X285401554Y-73584562D02*
X284408223Y-87789877D01*
%TO.C,S9*%
X182900000Y-76900000D02*
X182900000Y-92100000D01*
X182900000Y-92100000D02*
X198100000Y-92100000D01*
X198100000Y-76900000D02*
X182900000Y-76900000D01*
X198100000Y-92100000D02*
X198100000Y-76900000D01*
%TO.C,D12*%
X243640000Y-99500000D02*
X243640000Y-101500000D01*
X243640000Y-99500000D02*
X247650000Y-99500000D01*
X243640000Y-101500000D02*
X247650000Y-101500000D01*
%TO.C,S7*%
X146900000Y-84400000D02*
X146900000Y-99600000D01*
X146900000Y-99600000D02*
X162100000Y-99600000D01*
X162100000Y-84400000D02*
X146900000Y-84400000D01*
X162100000Y-99600000D02*
X162100000Y-84400000D01*
%TO.C,D19*%
X241640000Y-135000000D02*
X241640000Y-137000000D01*
X241640000Y-135000000D02*
X245650000Y-135000000D01*
X241640000Y-137000000D02*
X245650000Y-137000000D01*
%TO.C,S14*%
X164900000Y-101400000D02*
X164900000Y-116600000D01*
X164900000Y-116600000D02*
X180100000Y-116600000D01*
X180100000Y-101400000D02*
X164900000Y-101400000D01*
X180100000Y-116600000D02*
X180100000Y-101400000D01*
%TO.C,S2*%
X164900000Y-67400000D02*
X164900000Y-82600000D01*
X164900000Y-82600000D02*
X180100000Y-82600000D01*
X180100000Y-67400000D02*
X164900000Y-67400000D01*
X180100000Y-82600000D02*
X180100000Y-67400000D01*
%TO.C,SW1*%
X258776660Y-110151244D02*
X259367544Y-110255433D01*
X259020008Y-110498781D02*
X258776660Y-110151244D01*
X259367544Y-110255433D02*
X259020008Y-110498781D01*
X260763400Y-108673792D02*
X258714351Y-120294524D01*
X262752063Y-121006481D02*
X258714351Y-120294524D01*
X264801111Y-109385750D02*
X260763400Y-108673792D01*
X265253799Y-115456588D02*
X266238607Y-115630236D01*
X265833027Y-115051008D02*
X265659379Y-116035816D01*
X268740341Y-110080342D02*
X272778054Y-110792300D01*
X270729006Y-122413031D02*
X266691294Y-121701074D01*
X271145761Y-120049493D02*
X270729006Y-122413031D01*
X271979273Y-115322416D02*
X271527787Y-117882916D01*
X272778054Y-110792300D02*
X272361299Y-113155836D01*
X268746203Y-115543412D02*
G75*
G02*
X262746203Y-115543412I-3000000J0D01*
G01*
X262746203Y-115543412D02*
G75*
G02*
X268746203Y-115543412I3000000J0D01*
G01*
%TO.C,S16*%
X200900000Y-87400000D02*
X200900000Y-102600000D01*
X200900000Y-102600000D02*
X216100000Y-102600000D01*
X216100000Y-87400000D02*
X200900000Y-87400000D01*
X216100000Y-102600000D02*
X216100000Y-87400000D01*
%TO.C,S18*%
X236787466Y-119429339D02*
X251929625Y-120754106D01*
X238112233Y-104287180D02*
X236787466Y-119429339D01*
X251929625Y-120754106D02*
X253254392Y-105611947D01*
X253254392Y-105611947D02*
X238112233Y-104287180D01*
%TD*%
M02*
