M48
; DRILL file {KiCad 9.0.6-1.fc43} date 2026-01-15T13:13:47-0500
; FORMAT={-:-/ absolute / metric / decimal}
; #@! TF.CreationDate,2026-01-15T13:13:47-05:00
; #@! TF.GenerationSoftware,Kicad,Pcbnew,9.0.6-1.fc43
; #@! TF.FileFunction,NonPlated,1,2,NPTH
FMAT,2
METRIC
; #@! TA.AperFunction,NonPlated,NPTH,ComponentDrill
T1C1.900
; #@! TA.AperFunction,NonPlated,NPTH,ComponentDrill
T2C3.050
; #@! TA.AperFunction,NonPlated,NPTH,ComponentDrill
T3C3.450
%
G90
G05
T1
X149.0Y-75.5
X149.0Y-92.0
X149.225Y-109.05
X160.0Y-75.5
X160.0Y-92.0
X160.225Y-109.05
X167.0Y-75.0
X167.0Y-92.0
X167.0Y-109.0
X178.0Y-75.0
X178.0Y-92.0
X178.0Y-109.0
X185.0Y-84.5
X185.0Y-101.0
X185.5Y-67.5
X196.0Y-84.5
X196.0Y-101.0
X196.5Y-67.5
X203.0Y-60.7
X203.0Y-78.5
X203.0Y-95.0
X214.0Y-60.7
X214.0Y-78.5
X214.0Y-95.0
X222.021Y-110.521
X223.542Y-94.041
X225.277Y-76.808
X232.979Y-111.479
X234.5Y-95.0
X236.235Y-77.767
X238.806Y-130.545
X239.542Y-112.041
X241.042Y-95.041
X243.021Y-78.521
X249.639Y-132.455
X250.5Y-113.0
X252.0Y-96.0
X253.979Y-79.479
X256.084Y-133.545
X266.916Y-135.455
T2
X154.5Y-69.6
X154.5Y-86.1
X154.725Y-103.15
X159.5Y-71.7
X159.5Y-88.2
X159.725Y-105.25
X172.5Y-69.1
X172.5Y-86.1
X172.5Y-103.1
X177.5Y-71.2
X177.5Y-88.2
X177.5Y-105.2
X190.5Y-78.6
X190.5Y-95.1
X191.0Y-61.6
X195.5Y-80.7
X195.5Y-97.2
X196.0Y-63.7
X208.5Y-54.8
X208.5Y-72.6
X208.5Y-89.1
X213.5Y-56.9
X213.5Y-74.7
X213.5Y-91.2
X228.014Y-105.122
X229.535Y-88.643
X231.27Y-71.41
X232.812Y-107.65
X234.333Y-91.171
X236.068Y-73.937
X245.247Y-125.69
X245.535Y-106.643
X247.035Y-89.643
X249.014Y-73.122
X249.807Y-128.626
X250.333Y-109.171
X251.833Y-92.171
X253.812Y-75.65
X262.525Y-128.69
X267.084Y-131.626
T3
X154.5Y-75.5
X154.5Y-92.0
X154.725Y-109.05
X172.5Y-75.0
X172.5Y-92.0
X172.5Y-109.0
X190.5Y-84.5
X190.5Y-101.0
X191.0Y-67.5
X208.5Y-60.7
X208.5Y-78.5
X208.5Y-95.0
X227.5Y-111.0
X229.021Y-94.521
X230.756Y-77.287
X244.223Y-131.5
X245.021Y-112.521
X246.521Y-95.521
X248.5Y-79.0
X261.5Y-134.5
M30
