%TF.GenerationSoftware,KiCad,Pcbnew,9.0.6-1.fc43*%
%TF.CreationDate,2026-01-15T13:21:32-05:00*%
%TF.ProjectId,Left,4c656674-2e6b-4696-9361-645f70636258,rev?*%
%TF.SameCoordinates,Original*%
%TF.FileFunction,Legend,Bot*%
%TF.FilePolarity,Positive*%
%FSLAX46Y46*%
G04 Gerber Fmt 4.6, Leading zero omitted, Abs format (unit mm)*
G04 Created by KiCad (PCBNEW 9.0.6-1.fc43) date 2026-01-15 13:21:32*
%MOMM*%
%LPD*%
G01*
G04 APERTURE LIST*
%ADD10C,0.120000*%
G04 APERTURE END LIST*
D10*
%TO.C,S12*%
X244759860Y-87929268D02*
X245774959Y-87077499D01*
X245357309Y-91851264D02*
X244429180Y-90745163D01*
X245774959Y-87077499D02*
X248511506Y-87316916D01*
X247994236Y-92081965D02*
X245357309Y-91851264D01*
X248511506Y-87316916D02*
X248906000Y-87431735D01*
X248544946Y-92235547D02*
X247994236Y-92081965D01*
X248906000Y-87431735D02*
X249226740Y-87689671D01*
X248996064Y-92575157D02*
X248544946Y-92235547D01*
X249226740Y-87689671D02*
X249711257Y-88267098D01*
X249293296Y-93055892D02*
X248996064Y-92575157D01*
X249398077Y-93625190D02*
X249293296Y-93055892D01*
X249453793Y-93929203D02*
X249398077Y-93625190D01*
X249623572Y-94203042D02*
X249453793Y-93929203D01*
X249691909Y-88488252D02*
X249740404Y-88932168D01*
X249711257Y-88267098D02*
X249691909Y-88488252D01*
X249740404Y-88932168D02*
X249951489Y-89319037D01*
X249881713Y-94396276D02*
X249623572Y-94203042D01*
X249951489Y-89319037D02*
X250295826Y-89594095D01*
X250185391Y-94482070D02*
X249881713Y-94396276D01*
X250295826Y-89594095D02*
X250724577Y-89718938D01*
X250724577Y-89718938D02*
X253513922Y-89962974D01*
X253513922Y-89962974D02*
X253834013Y-90056225D01*
X253834013Y-90056225D02*
X254099463Y-90269172D01*
X253976325Y-93868135D02*
X254337943Y-93899773D01*
X254099463Y-90269172D02*
X254263079Y-90567568D01*
X254255843Y-94838188D02*
X250185391Y-94482070D01*
X254263079Y-90567568D02*
X254310540Y-91000351D01*
X254337943Y-93899773D02*
X254255843Y-94838188D01*
%TO.C,S20*%
X260407264Y-126784025D02*
X261492737Y-126023969D01*
X260660615Y-130743168D02*
X259832421Y-129560384D01*
X261492737Y-126023969D02*
X264198004Y-126500980D01*
X263267401Y-131202814D02*
X260660615Y-130743168D01*
X263802630Y-131403809D02*
X263267401Y-131202814D01*
X264198004Y-126500980D02*
X264580990Y-126649745D01*
X264222432Y-131781444D02*
X263802630Y-131403809D01*
X264476633Y-132286255D02*
X264222432Y-131781444D01*
X264531399Y-132862520D02*
X264476633Y-132286255D01*
X264560406Y-133170232D02*
X264531399Y-132862520D01*
X264580990Y-126649745D02*
X264878028Y-126934654D01*
X264705673Y-133457826D02*
X264560406Y-133170232D01*
X264878028Y-126934654D02*
X265310376Y-127552111D01*
X264945990Y-133672823D02*
X264705673Y-133457826D01*
X265241035Y-133784758D02*
X264945990Y-133672823D01*
X265271827Y-127770738D02*
X265281447Y-128217191D01*
X265281447Y-128217191D02*
X265458011Y-128620986D01*
X265310376Y-127552111D02*
X265271827Y-127770738D01*
X265458011Y-128620986D02*
X265777065Y-128925008D01*
X265777065Y-128925008D02*
X266193304Y-129086744D01*
X266193304Y-129086744D02*
X268950766Y-129572959D01*
X268950766Y-129572959D02*
X269261511Y-129693754D01*
X269071051Y-133503561D02*
X269428536Y-133566595D01*
X269261511Y-129693754D02*
X269507392Y-129929026D01*
X269264960Y-134494284D02*
X265241035Y-133784758D01*
X269428536Y-133566595D02*
X269264960Y-134494284D01*
X269507392Y-129929026D02*
X269644378Y-130240546D01*
X269644378Y-130240546D02*
X269653939Y-130675819D01*
%TO.C,S17*%
X225738931Y-103408625D02*
X226754030Y-102556856D01*
X226336380Y-107330621D02*
X225408251Y-106224520D01*
X226754030Y-102556856D02*
X229490577Y-102796273D01*
X228973307Y-107561322D02*
X226336380Y-107330621D01*
X229490577Y-102796273D02*
X229885071Y-102911092D01*
X229524017Y-107714904D02*
X228973307Y-107561322D01*
X229885071Y-102911092D02*
X230205811Y-103169028D01*
X229975135Y-108054514D02*
X229524017Y-107714904D01*
X230205811Y-103169028D02*
X230690328Y-103746455D01*
X230272367Y-108535249D02*
X229975135Y-108054514D01*
X230377148Y-109104547D02*
X230272367Y-108535249D01*
X230432864Y-109408560D02*
X230377148Y-109104547D01*
X230602643Y-109682399D02*
X230432864Y-109408560D01*
X230670980Y-103967609D02*
X230719475Y-104411525D01*
X230690328Y-103746455D02*
X230670980Y-103967609D01*
X230719475Y-104411525D02*
X230930560Y-104798394D01*
X230860784Y-109875633D02*
X230602643Y-109682399D01*
X230930560Y-104798394D02*
X231274897Y-105073452D01*
X231164462Y-109961427D02*
X230860784Y-109875633D01*
X231274897Y-105073452D02*
X231703648Y-105198295D01*
X231703648Y-105198295D02*
X234492993Y-105442331D01*
X234492993Y-105442331D02*
X234813084Y-105535582D01*
X234813084Y-105535582D02*
X235078534Y-105748529D01*
X234955396Y-109347492D02*
X235317014Y-109379130D01*
X235078534Y-105748529D02*
X235242150Y-106046925D01*
X235234914Y-110317545D02*
X231164462Y-109961427D01*
X235242150Y-106046925D02*
X235289611Y-106479708D01*
X235317014Y-109379130D02*
X235234914Y-110317545D01*
%TO.C,S10*%
X206084000Y-71091000D02*
X207021000Y-70154000D01*
X207021000Y-70154000D02*
X209768000Y-70154000D01*
X207021000Y-74946000D02*
X206000000Y-73925000D01*
X209668000Y-74946000D02*
X207021000Y-74946000D01*
X209768000Y-70154000D02*
X210171000Y-70234000D01*
X210171000Y-70234000D02*
X210513000Y-70463000D01*
X210230000Y-75051000D02*
X209668000Y-74946000D01*
X210513000Y-70463000D02*
X211046000Y-70996000D01*
X210709000Y-75350000D02*
X210230000Y-75051000D01*
X211046000Y-70996000D02*
X211046000Y-71218000D01*
X211046000Y-71218000D02*
X211133000Y-71656000D01*
X211047000Y-75803000D02*
X210709000Y-75350000D01*
X211133000Y-71656000D02*
X211377000Y-72023000D01*
X211201000Y-76361000D02*
X211047000Y-75803000D01*
X211283000Y-76659000D02*
X211201000Y-76361000D01*
X211377000Y-72023000D02*
X211744000Y-72267000D01*
X211476000Y-76917000D02*
X211283000Y-76659000D01*
X211744000Y-72267000D02*
X212182000Y-72354000D01*
X211750000Y-77087000D02*
X211476000Y-76917000D01*
X212060000Y-77146000D02*
X211750000Y-77087000D01*
X212182000Y-72354000D02*
X214982000Y-72354000D01*
X214982000Y-72354000D02*
X215309000Y-72419000D01*
X215309000Y-72419000D02*
X215592000Y-72608000D01*
X215592000Y-72608000D02*
X215781000Y-72891000D01*
X215781000Y-72891000D02*
X215866000Y-73318000D01*
X215783000Y-76204000D02*
X216146000Y-76204000D01*
X216146000Y-76204000D02*
X216146000Y-77146000D01*
X216146000Y-77146000D02*
X212060000Y-77146000D01*
%TO.C,S5*%
X228994970Y-69695831D02*
X230010069Y-68844062D01*
X229592419Y-73617827D02*
X228664290Y-72511726D01*
X230010069Y-68844062D02*
X232746616Y-69083479D01*
X232229346Y-73848528D02*
X229592419Y-73617827D01*
X232746616Y-69083479D02*
X233141110Y-69198298D01*
X232780056Y-74002110D02*
X232229346Y-73848528D01*
X233141110Y-69198298D02*
X233461850Y-69456234D01*
X233231174Y-74341720D02*
X232780056Y-74002110D01*
X233461850Y-69456234D02*
X233946367Y-70033661D01*
X233528406Y-74822455D02*
X233231174Y-74341720D01*
X233633187Y-75391753D02*
X233528406Y-74822455D01*
X233688903Y-75695766D02*
X233633187Y-75391753D01*
X233858682Y-75969605D02*
X233688903Y-75695766D01*
X233927019Y-70254815D02*
X233975514Y-70698731D01*
X233946367Y-70033661D02*
X233927019Y-70254815D01*
X233975514Y-70698731D02*
X234186599Y-71085600D01*
X234116823Y-76162839D02*
X233858682Y-75969605D01*
X234186599Y-71085600D02*
X234530936Y-71360658D01*
X234420501Y-76248633D02*
X234116823Y-76162839D01*
X234530936Y-71360658D02*
X234959687Y-71485501D01*
X234959687Y-71485501D02*
X237749032Y-71729537D01*
X237749032Y-71729537D02*
X238069123Y-71822788D01*
X238069123Y-71822788D02*
X238334573Y-72035735D01*
X238211435Y-75634698D02*
X238573053Y-75666336D01*
X238334573Y-72035735D02*
X238498189Y-72334131D01*
X238490953Y-76604751D02*
X234420501Y-76248633D01*
X238498189Y-72334131D02*
X238545650Y-72766914D01*
X238573053Y-75666336D02*
X238490953Y-76604751D01*
%TO.C,S1*%
X152084000Y-68091000D02*
X153021000Y-67154000D01*
X153021000Y-67154000D02*
X155768000Y-67154000D01*
X153021000Y-71946000D02*
X152000000Y-70925000D01*
X155668000Y-71946000D02*
X153021000Y-71946000D01*
X155768000Y-67154000D02*
X156171000Y-67234000D01*
X156171000Y-67234000D02*
X156513000Y-67463000D01*
X156230000Y-72051000D02*
X155668000Y-71946000D01*
X156513000Y-67463000D02*
X157046000Y-67996000D01*
X156709000Y-72350000D02*
X156230000Y-72051000D01*
X157046000Y-67996000D02*
X157046000Y-68218000D01*
X157046000Y-68218000D02*
X157133000Y-68656000D01*
X157047000Y-72803000D02*
X156709000Y-72350000D01*
X157133000Y-68656000D02*
X157377000Y-69023000D01*
X157201000Y-73361000D02*
X157047000Y-72803000D01*
X157283000Y-73659000D02*
X157201000Y-73361000D01*
X157377000Y-69023000D02*
X157744000Y-69267000D01*
X157476000Y-73917000D02*
X157283000Y-73659000D01*
X157744000Y-69267000D02*
X158182000Y-69354000D01*
X157750000Y-74087000D02*
X157476000Y-73917000D01*
X158060000Y-74146000D02*
X157750000Y-74087000D01*
X158182000Y-69354000D02*
X160982000Y-69354000D01*
X160982000Y-69354000D02*
X161309000Y-69419000D01*
X161309000Y-69419000D02*
X161592000Y-69608000D01*
X161592000Y-69608000D02*
X161781000Y-69891000D01*
X161781000Y-69891000D02*
X161866000Y-70318000D01*
X161783000Y-73204000D02*
X162146000Y-73204000D01*
X162146000Y-73204000D02*
X162146000Y-74146000D01*
X162146000Y-74146000D02*
X158060000Y-74146000D01*
%TO.C,S11*%
X227259860Y-86929268D02*
X228274959Y-86077499D01*
X227857309Y-90851264D02*
X226929180Y-89745163D01*
X228274959Y-86077499D02*
X231011506Y-86316916D01*
X230494236Y-91081965D02*
X227857309Y-90851264D01*
X231011506Y-86316916D02*
X231406000Y-86431735D01*
X231044946Y-91235547D02*
X230494236Y-91081965D01*
X231406000Y-86431735D02*
X231726740Y-86689671D01*
X231496064Y-91575157D02*
X231044946Y-91235547D01*
X231726740Y-86689671D02*
X232211257Y-87267098D01*
X231793296Y-92055892D02*
X231496064Y-91575157D01*
X231898077Y-92625190D02*
X231793296Y-92055892D01*
X231953793Y-92929203D02*
X231898077Y-92625190D01*
X232123572Y-93203042D02*
X231953793Y-92929203D01*
X232191909Y-87488252D02*
X232240404Y-87932168D01*
X232211257Y-87267098D02*
X232191909Y-87488252D01*
X232240404Y-87932168D02*
X232451489Y-88319037D01*
X232381713Y-93396276D02*
X232123572Y-93203042D01*
X232451489Y-88319037D02*
X232795826Y-88594095D01*
X232685391Y-93482070D02*
X232381713Y-93396276D01*
X232795826Y-88594095D02*
X233224577Y-88718938D01*
X233224577Y-88718938D02*
X236013922Y-88962974D01*
X236013922Y-88962974D02*
X236334013Y-89056225D01*
X236334013Y-89056225D02*
X236599463Y-89269172D01*
X236476325Y-92868135D02*
X236837943Y-92899773D01*
X236599463Y-89269172D02*
X236763079Y-89567568D01*
X236755843Y-93838188D02*
X232685391Y-93482070D01*
X236763079Y-89567568D02*
X236810540Y-90000351D01*
X236837943Y-92899773D02*
X236755843Y-93838188D01*
%TO.C,S19*%
X243129901Y-123784025D02*
X244215374Y-123023969D01*
X243383252Y-127743168D02*
X242555058Y-126560384D01*
X244215374Y-123023969D02*
X246920641Y-123500980D01*
X245990038Y-128202814D02*
X243383252Y-127743168D01*
X246525267Y-128403809D02*
X245990038Y-128202814D01*
X246920641Y-123500980D02*
X247303627Y-123649745D01*
X246945069Y-128781444D02*
X246525267Y-128403809D01*
X247199270Y-129286255D02*
X246945069Y-128781444D01*
X247254036Y-129862520D02*
X247199270Y-129286255D01*
X247283043Y-130170232D02*
X247254036Y-129862520D01*
X247303627Y-123649745D02*
X247600665Y-123934654D01*
X247428310Y-130457826D02*
X247283043Y-130170232D01*
X247600665Y-123934654D02*
X248033013Y-124552111D01*
X247668627Y-130672823D02*
X247428310Y-130457826D01*
X247963672Y-130784758D02*
X247668627Y-130672823D01*
X247994464Y-124770738D02*
X248004084Y-125217191D01*
X248004084Y-125217191D02*
X248180648Y-125620986D01*
X248033013Y-124552111D02*
X247994464Y-124770738D01*
X248180648Y-125620986D02*
X248499702Y-125925008D01*
X248499702Y-125925008D02*
X248915941Y-126086744D01*
X248915941Y-126086744D02*
X251673403Y-126572959D01*
X251673403Y-126572959D02*
X251984148Y-126693754D01*
X251793688Y-130503561D02*
X252151173Y-130566595D01*
X251984148Y-126693754D02*
X252230029Y-126929026D01*
X251987597Y-131494284D02*
X247963672Y-130784758D01*
X252151173Y-130566595D02*
X251987597Y-131494284D01*
X252230029Y-126929026D02*
X252367015Y-127240546D01*
X252367015Y-127240546D02*
X252376576Y-127675819D01*
%TO.C,S8*%
X170084000Y-84591000D02*
X171021000Y-83654000D01*
X171021000Y-83654000D02*
X173768000Y-83654000D01*
X171021000Y-88446000D02*
X170000000Y-87425000D01*
X173668000Y-88446000D02*
X171021000Y-88446000D01*
X173768000Y-83654000D02*
X174171000Y-83734000D01*
X174171000Y-83734000D02*
X174513000Y-83963000D01*
X174230000Y-88551000D02*
X173668000Y-88446000D01*
X174513000Y-83963000D02*
X175046000Y-84496000D01*
X174709000Y-88850000D02*
X174230000Y-88551000D01*
X175046000Y-84496000D02*
X175046000Y-84718000D01*
X175046000Y-84718000D02*
X175133000Y-85156000D01*
X175047000Y-89303000D02*
X174709000Y-88850000D01*
X175133000Y-85156000D02*
X175377000Y-85523000D01*
X175201000Y-89861000D02*
X175047000Y-89303000D01*
X175283000Y-90159000D02*
X175201000Y-89861000D01*
X175377000Y-85523000D02*
X175744000Y-85767000D01*
X175476000Y-90417000D02*
X175283000Y-90159000D01*
X175744000Y-85767000D02*
X176182000Y-85854000D01*
X175750000Y-90587000D02*
X175476000Y-90417000D01*
X176060000Y-90646000D02*
X175750000Y-90587000D01*
X176182000Y-85854000D02*
X178982000Y-85854000D01*
X178982000Y-85854000D02*
X179309000Y-85919000D01*
X179309000Y-85919000D02*
X179592000Y-86108000D01*
X179592000Y-86108000D02*
X179781000Y-86391000D01*
X179781000Y-86391000D02*
X179866000Y-86818000D01*
X179783000Y-89704000D02*
X180146000Y-89704000D01*
X180146000Y-89704000D02*
X180146000Y-90646000D01*
X180146000Y-90646000D02*
X176060000Y-90646000D01*
%TO.C,S4*%
X206084000Y-53291000D02*
X207021000Y-52354000D01*
X207021000Y-52354000D02*
X209768000Y-52354000D01*
X207021000Y-57146000D02*
X206000000Y-56125000D01*
X209668000Y-57146000D02*
X207021000Y-57146000D01*
X209768000Y-52354000D02*
X210171000Y-52434000D01*
X210171000Y-52434000D02*
X210513000Y-52663000D01*
X210230000Y-57251000D02*
X209668000Y-57146000D01*
X210513000Y-52663000D02*
X211046000Y-53196000D01*
X210709000Y-57550000D02*
X210230000Y-57251000D01*
X211046000Y-53196000D02*
X211046000Y-53418000D01*
X211046000Y-53418000D02*
X211133000Y-53856000D01*
X211047000Y-58003000D02*
X210709000Y-57550000D01*
X211133000Y-53856000D02*
X211377000Y-54223000D01*
X211201000Y-58561000D02*
X211047000Y-58003000D01*
X211283000Y-58859000D02*
X211201000Y-58561000D01*
X211377000Y-54223000D02*
X211744000Y-54467000D01*
X211476000Y-59117000D02*
X211283000Y-58859000D01*
X211744000Y-54467000D02*
X212182000Y-54554000D01*
X211750000Y-59287000D02*
X211476000Y-59117000D01*
X212060000Y-59346000D02*
X211750000Y-59287000D01*
X212182000Y-54554000D02*
X214982000Y-54554000D01*
X214982000Y-54554000D02*
X215309000Y-54619000D01*
X215309000Y-54619000D02*
X215592000Y-54808000D01*
X215592000Y-54808000D02*
X215781000Y-55091000D01*
X215781000Y-55091000D02*
X215866000Y-55518000D01*
X215783000Y-58404000D02*
X216146000Y-58404000D01*
X216146000Y-58404000D02*
X216146000Y-59346000D01*
X216146000Y-59346000D02*
X212060000Y-59346000D01*
%TO.C,S6*%
X246738931Y-71408625D02*
X247754030Y-70556856D01*
X247336380Y-75330621D02*
X246408251Y-74224520D01*
X247754030Y-70556856D02*
X250490577Y-70796273D01*
X249973307Y-75561322D02*
X247336380Y-75330621D01*
X250490577Y-70796273D02*
X250885071Y-70911092D01*
X250524017Y-75714904D02*
X249973307Y-75561322D01*
X250885071Y-70911092D02*
X251205811Y-71169028D01*
X250975135Y-76054514D02*
X250524017Y-75714904D01*
X251205811Y-71169028D02*
X251690328Y-71746455D01*
X251272367Y-76535249D02*
X250975135Y-76054514D01*
X251377148Y-77104547D02*
X251272367Y-76535249D01*
X251432864Y-77408560D02*
X251377148Y-77104547D01*
X251602643Y-77682399D02*
X251432864Y-77408560D01*
X251670980Y-71967609D02*
X251719475Y-72411525D01*
X251690328Y-71746455D02*
X251670980Y-71967609D01*
X251719475Y-72411525D02*
X251930560Y-72798394D01*
X251860784Y-77875633D02*
X251602643Y-77682399D01*
X251930560Y-72798394D02*
X252274897Y-73073452D01*
X252164462Y-77961427D02*
X251860784Y-77875633D01*
X252274897Y-73073452D02*
X252703648Y-73198295D01*
X252703648Y-73198295D02*
X255492993Y-73442331D01*
X255492993Y-73442331D02*
X255813084Y-73535582D01*
X255813084Y-73535582D02*
X256078534Y-73748529D01*
X255955396Y-77347492D02*
X256317014Y-77379130D01*
X256078534Y-73748529D02*
X256242150Y-74046925D01*
X256234914Y-78317545D02*
X252164462Y-77961427D01*
X256242150Y-74046925D02*
X256289611Y-74479708D01*
X256317014Y-77379130D02*
X256234914Y-78317545D01*
%TO.C,S13*%
X152309000Y-101641000D02*
X153246000Y-100704000D01*
X153246000Y-100704000D02*
X155993000Y-100704000D01*
X153246000Y-105496000D02*
X152225000Y-104475000D01*
X155893000Y-105496000D02*
X153246000Y-105496000D01*
X155993000Y-100704000D02*
X156396000Y-100784000D01*
X156396000Y-100784000D02*
X156738000Y-101013000D01*
X156455000Y-105601000D02*
X155893000Y-105496000D01*
X156738000Y-101013000D02*
X157271000Y-101546000D01*
X156934000Y-105900000D02*
X156455000Y-105601000D01*
X157271000Y-101546000D02*
X157271000Y-101768000D01*
X157271000Y-101768000D02*
X157358000Y-102206000D01*
X157272000Y-106353000D02*
X156934000Y-105900000D01*
X157358000Y-102206000D02*
X157602000Y-102573000D01*
X157426000Y-106911000D02*
X157272000Y-106353000D01*
X157508000Y-107209000D02*
X157426000Y-106911000D01*
X157602000Y-102573000D02*
X157969000Y-102817000D01*
X157701000Y-107467000D02*
X157508000Y-107209000D01*
X157969000Y-102817000D02*
X158407000Y-102904000D01*
X157975000Y-107637000D02*
X157701000Y-107467000D01*
X158285000Y-107696000D02*
X157975000Y-107637000D01*
X158407000Y-102904000D02*
X161207000Y-102904000D01*
X161207000Y-102904000D02*
X161534000Y-102969000D01*
X161534000Y-102969000D02*
X161817000Y-103158000D01*
X161817000Y-103158000D02*
X162006000Y-103441000D01*
X162006000Y-103441000D02*
X162091000Y-103868000D01*
X162008000Y-106754000D02*
X162371000Y-106754000D01*
X162371000Y-106754000D02*
X162371000Y-107696000D01*
X162371000Y-107696000D02*
X158285000Y-107696000D01*
%TO.C,S15*%
X188084000Y-93591000D02*
X189021000Y-92654000D01*
X189021000Y-92654000D02*
X191768000Y-92654000D01*
X189021000Y-97446000D02*
X188000000Y-96425000D01*
X191668000Y-97446000D02*
X189021000Y-97446000D01*
X191768000Y-92654000D02*
X192171000Y-92734000D01*
X192171000Y-92734000D02*
X192513000Y-92963000D01*
X192230000Y-97551000D02*
X191668000Y-97446000D01*
X192513000Y-92963000D02*
X193046000Y-93496000D01*
X192709000Y-97850000D02*
X192230000Y-97551000D01*
X193046000Y-93496000D02*
X193046000Y-93718000D01*
X193046000Y-93718000D02*
X193133000Y-94156000D01*
X193047000Y-98303000D02*
X192709000Y-97850000D01*
X193133000Y-94156000D02*
X193377000Y-94523000D01*
X193201000Y-98861000D02*
X193047000Y-98303000D01*
X193283000Y-99159000D02*
X193201000Y-98861000D01*
X193377000Y-94523000D02*
X193744000Y-94767000D01*
X193476000Y-99417000D02*
X193283000Y-99159000D01*
X193744000Y-94767000D02*
X194182000Y-94854000D01*
X193750000Y-99587000D02*
X193476000Y-99417000D01*
X194060000Y-99646000D02*
X193750000Y-99587000D01*
X194182000Y-94854000D02*
X196982000Y-94854000D01*
X196982000Y-94854000D02*
X197309000Y-94919000D01*
X197309000Y-94919000D02*
X197592000Y-95108000D01*
X197592000Y-95108000D02*
X197781000Y-95391000D01*
X197781000Y-95391000D02*
X197866000Y-95818000D01*
X197783000Y-98704000D02*
X198146000Y-98704000D01*
X198146000Y-98704000D02*
X198146000Y-99646000D01*
X198146000Y-99646000D02*
X194060000Y-99646000D01*
%TO.C,S3*%
X188584000Y-60091000D02*
X189521000Y-59154000D01*
X189521000Y-59154000D02*
X192268000Y-59154000D01*
X189521000Y-63946000D02*
X188500000Y-62925000D01*
X192168000Y-63946000D02*
X189521000Y-63946000D01*
X192268000Y-59154000D02*
X192671000Y-59234000D01*
X192671000Y-59234000D02*
X193013000Y-59463000D01*
X192730000Y-64051000D02*
X192168000Y-63946000D01*
X193013000Y-59463000D02*
X193546000Y-59996000D01*
X193209000Y-64350000D02*
X192730000Y-64051000D01*
X193546000Y-59996000D02*
X193546000Y-60218000D01*
X193546000Y-60218000D02*
X193633000Y-60656000D01*
X193547000Y-64803000D02*
X193209000Y-64350000D01*
X193633000Y-60656000D02*
X193877000Y-61023000D01*
X193701000Y-65361000D02*
X193547000Y-64803000D01*
X193783000Y-65659000D02*
X193701000Y-65361000D01*
X193877000Y-61023000D02*
X194244000Y-61267000D01*
X193976000Y-65917000D02*
X193783000Y-65659000D01*
X194244000Y-61267000D02*
X194682000Y-61354000D01*
X194250000Y-66087000D02*
X193976000Y-65917000D01*
X194560000Y-66146000D02*
X194250000Y-66087000D01*
X194682000Y-61354000D02*
X197482000Y-61354000D01*
X197482000Y-61354000D02*
X197809000Y-61419000D01*
X197809000Y-61419000D02*
X198092000Y-61608000D01*
X198092000Y-61608000D02*
X198281000Y-61891000D01*
X198281000Y-61891000D02*
X198366000Y-62318000D01*
X198283000Y-65204000D02*
X198646000Y-65204000D01*
X198646000Y-65204000D02*
X198646000Y-66146000D01*
X198646000Y-66146000D02*
X194560000Y-66146000D01*
%TO.C,S9*%
X188084000Y-77091000D02*
X189021000Y-76154000D01*
X189021000Y-76154000D02*
X191768000Y-76154000D01*
X189021000Y-80946000D02*
X188000000Y-79925000D01*
X191668000Y-80946000D02*
X189021000Y-80946000D01*
X191768000Y-76154000D02*
X192171000Y-76234000D01*
X192171000Y-76234000D02*
X192513000Y-76463000D01*
X192230000Y-81051000D02*
X191668000Y-80946000D01*
X192513000Y-76463000D02*
X193046000Y-76996000D01*
X192709000Y-81350000D02*
X192230000Y-81051000D01*
X193046000Y-76996000D02*
X193046000Y-77218000D01*
X193046000Y-77218000D02*
X193133000Y-77656000D01*
X193047000Y-81803000D02*
X192709000Y-81350000D01*
X193133000Y-77656000D02*
X193377000Y-78023000D01*
X193201000Y-82361000D02*
X193047000Y-81803000D01*
X193283000Y-82659000D02*
X193201000Y-82361000D01*
X193377000Y-78023000D02*
X193744000Y-78267000D01*
X193476000Y-82917000D02*
X193283000Y-82659000D01*
X193744000Y-78267000D02*
X194182000Y-78354000D01*
X193750000Y-83087000D02*
X193476000Y-82917000D01*
X194060000Y-83146000D02*
X193750000Y-83087000D01*
X194182000Y-78354000D02*
X196982000Y-78354000D01*
X196982000Y-78354000D02*
X197309000Y-78419000D01*
X197309000Y-78419000D02*
X197592000Y-78608000D01*
X197592000Y-78608000D02*
X197781000Y-78891000D01*
X197781000Y-78891000D02*
X197866000Y-79318000D01*
X197783000Y-82204000D02*
X198146000Y-82204000D01*
X198146000Y-82204000D02*
X198146000Y-83146000D01*
X198146000Y-83146000D02*
X194060000Y-83146000D01*
%TO.C,S7*%
X152084000Y-84591000D02*
X153021000Y-83654000D01*
X153021000Y-83654000D02*
X155768000Y-83654000D01*
X153021000Y-88446000D02*
X152000000Y-87425000D01*
X155668000Y-88446000D02*
X153021000Y-88446000D01*
X155768000Y-83654000D02*
X156171000Y-83734000D01*
X156171000Y-83734000D02*
X156513000Y-83963000D01*
X156230000Y-88551000D02*
X155668000Y-88446000D01*
X156513000Y-83963000D02*
X157046000Y-84496000D01*
X156709000Y-88850000D02*
X156230000Y-88551000D01*
X157046000Y-84496000D02*
X157046000Y-84718000D01*
X157046000Y-84718000D02*
X157133000Y-85156000D01*
X157047000Y-89303000D02*
X156709000Y-88850000D01*
X157133000Y-85156000D02*
X157377000Y-85523000D01*
X157201000Y-89861000D02*
X157047000Y-89303000D01*
X157283000Y-90159000D02*
X157201000Y-89861000D01*
X157377000Y-85523000D02*
X157744000Y-85767000D01*
X157476000Y-90417000D02*
X157283000Y-90159000D01*
X157744000Y-85767000D02*
X158182000Y-85854000D01*
X157750000Y-90587000D02*
X157476000Y-90417000D01*
X158060000Y-90646000D02*
X157750000Y-90587000D01*
X158182000Y-85854000D02*
X160982000Y-85854000D01*
X160982000Y-85854000D02*
X161309000Y-85919000D01*
X161309000Y-85919000D02*
X161592000Y-86108000D01*
X161592000Y-86108000D02*
X161781000Y-86391000D01*
X161781000Y-86391000D02*
X161866000Y-86818000D01*
X161783000Y-89704000D02*
X162146000Y-89704000D01*
X162146000Y-89704000D02*
X162146000Y-90646000D01*
X162146000Y-90646000D02*
X158060000Y-90646000D01*
%TO.C,S14*%
X170084000Y-101591000D02*
X171021000Y-100654000D01*
X171021000Y-100654000D02*
X173768000Y-100654000D01*
X171021000Y-105446000D02*
X170000000Y-104425000D01*
X173668000Y-105446000D02*
X171021000Y-105446000D01*
X173768000Y-100654000D02*
X174171000Y-100734000D01*
X174171000Y-100734000D02*
X174513000Y-100963000D01*
X174230000Y-105551000D02*
X173668000Y-105446000D01*
X174513000Y-100963000D02*
X175046000Y-101496000D01*
X174709000Y-105850000D02*
X174230000Y-105551000D01*
X175046000Y-101496000D02*
X175046000Y-101718000D01*
X175046000Y-101718000D02*
X175133000Y-102156000D01*
X175047000Y-106303000D02*
X174709000Y-105850000D01*
X175133000Y-102156000D02*
X175377000Y-102523000D01*
X175201000Y-106861000D02*
X175047000Y-106303000D01*
X175283000Y-107159000D02*
X175201000Y-106861000D01*
X175377000Y-102523000D02*
X175744000Y-102767000D01*
X175476000Y-107417000D02*
X175283000Y-107159000D01*
X175744000Y-102767000D02*
X176182000Y-102854000D01*
X175750000Y-107587000D02*
X175476000Y-107417000D01*
X176060000Y-107646000D02*
X175750000Y-107587000D01*
X176182000Y-102854000D02*
X178982000Y-102854000D01*
X178982000Y-102854000D02*
X179309000Y-102919000D01*
X179309000Y-102919000D02*
X179592000Y-103108000D01*
X179592000Y-103108000D02*
X179781000Y-103391000D01*
X179781000Y-103391000D02*
X179866000Y-103818000D01*
X179783000Y-106704000D02*
X180146000Y-106704000D01*
X180146000Y-106704000D02*
X180146000Y-107646000D01*
X180146000Y-107646000D02*
X176060000Y-107646000D01*
%TO.C,S2*%
X170084000Y-67591000D02*
X171021000Y-66654000D01*
X171021000Y-66654000D02*
X173768000Y-66654000D01*
X171021000Y-71446000D02*
X170000000Y-70425000D01*
X173668000Y-71446000D02*
X171021000Y-71446000D01*
X173768000Y-66654000D02*
X174171000Y-66734000D01*
X174171000Y-66734000D02*
X174513000Y-66963000D01*
X174230000Y-71551000D02*
X173668000Y-71446000D01*
X174513000Y-66963000D02*
X175046000Y-67496000D01*
X174709000Y-71850000D02*
X174230000Y-71551000D01*
X175046000Y-67496000D02*
X175046000Y-67718000D01*
X175046000Y-67718000D02*
X175133000Y-68156000D01*
X175047000Y-72303000D02*
X174709000Y-71850000D01*
X175133000Y-68156000D02*
X175377000Y-68523000D01*
X175201000Y-72861000D02*
X175047000Y-72303000D01*
X175283000Y-73159000D02*
X175201000Y-72861000D01*
X175377000Y-68523000D02*
X175744000Y-68767000D01*
X175476000Y-73417000D02*
X175283000Y-73159000D01*
X175744000Y-68767000D02*
X176182000Y-68854000D01*
X175750000Y-73587000D02*
X175476000Y-73417000D01*
X176060000Y-73646000D02*
X175750000Y-73587000D01*
X176182000Y-68854000D02*
X178982000Y-68854000D01*
X178982000Y-68854000D02*
X179309000Y-68919000D01*
X179309000Y-68919000D02*
X179592000Y-69108000D01*
X179592000Y-69108000D02*
X179781000Y-69391000D01*
X179781000Y-69391000D02*
X179866000Y-69818000D01*
X179783000Y-72704000D02*
X180146000Y-72704000D01*
X180146000Y-72704000D02*
X180146000Y-73646000D01*
X180146000Y-73646000D02*
X176060000Y-73646000D01*
%TO.C,S16*%
X206084000Y-87591000D02*
X207021000Y-86654000D01*
X207021000Y-86654000D02*
X209768000Y-86654000D01*
X207021000Y-91446000D02*
X206000000Y-90425000D01*
X209668000Y-91446000D02*
X207021000Y-91446000D01*
X209768000Y-86654000D02*
X210171000Y-86734000D01*
X210171000Y-86734000D02*
X210513000Y-86963000D01*
X210230000Y-91551000D02*
X209668000Y-91446000D01*
X210513000Y-86963000D02*
X211046000Y-87496000D01*
X210709000Y-91850000D02*
X210230000Y-91551000D01*
X211046000Y-87496000D02*
X211046000Y-87718000D01*
X211046000Y-87718000D02*
X211133000Y-88156000D01*
X211047000Y-92303000D02*
X210709000Y-91850000D01*
X211133000Y-88156000D02*
X211377000Y-88523000D01*
X211201000Y-92861000D02*
X211047000Y-92303000D01*
X211283000Y-93159000D02*
X211201000Y-92861000D01*
X211377000Y-88523000D02*
X211744000Y-88767000D01*
X211476000Y-93417000D02*
X211283000Y-93159000D01*
X211744000Y-88767000D02*
X212182000Y-88854000D01*
X211750000Y-93587000D02*
X211476000Y-93417000D01*
X212060000Y-93646000D02*
X211750000Y-93587000D01*
X212182000Y-88854000D02*
X214982000Y-88854000D01*
X214982000Y-88854000D02*
X215309000Y-88919000D01*
X215309000Y-88919000D02*
X215592000Y-89108000D01*
X215592000Y-89108000D02*
X215781000Y-89391000D01*
X215781000Y-89391000D02*
X215866000Y-89818000D01*
X215783000Y-92704000D02*
X216146000Y-92704000D01*
X216146000Y-92704000D02*
X216146000Y-93646000D01*
X216146000Y-93646000D02*
X212060000Y-93646000D01*
%TO.C,S18*%
X243259860Y-104929268D02*
X244274959Y-104077499D01*
X243857309Y-108851264D02*
X242929180Y-107745163D01*
X244274959Y-104077499D02*
X247011506Y-104316916D01*
X246494236Y-109081965D02*
X243857309Y-108851264D01*
X247011506Y-104316916D02*
X247406000Y-104431735D01*
X247044946Y-109235547D02*
X246494236Y-109081965D01*
X247406000Y-104431735D02*
X247726740Y-104689671D01*
X247496064Y-109575157D02*
X247044946Y-109235547D01*
X247726740Y-104689671D02*
X248211257Y-105267098D01*
X247793296Y-110055892D02*
X247496064Y-109575157D01*
X247898077Y-110625190D02*
X247793296Y-110055892D01*
X247953793Y-110929203D02*
X247898077Y-110625190D01*
X248123572Y-111203042D02*
X247953793Y-110929203D01*
X248191909Y-105488252D02*
X248240404Y-105932168D01*
X248211257Y-105267098D02*
X248191909Y-105488252D01*
X248240404Y-105932168D02*
X248451489Y-106319037D01*
X248381713Y-111396276D02*
X248123572Y-111203042D01*
X248451489Y-106319037D02*
X248795826Y-106594095D01*
X248685391Y-111482070D02*
X248381713Y-111396276D01*
X248795826Y-106594095D02*
X249224577Y-106718938D01*
X249224577Y-106718938D02*
X252013922Y-106962974D01*
X252013922Y-106962974D02*
X252334013Y-107056225D01*
X252334013Y-107056225D02*
X252599463Y-107269172D01*
X252476325Y-110868135D02*
X252837943Y-110899773D01*
X252599463Y-107269172D02*
X252763079Y-107567568D01*
X252755843Y-111838188D02*
X248685391Y-111482070D01*
X252763079Y-107567568D02*
X252810540Y-108000351D01*
X252837943Y-110899773D02*
X252755843Y-111838188D01*
%TD*%
M02*
