%TF.GenerationSoftware,KiCad,Pcbnew,9.0.6-1.fc43*%
%TF.CreationDate,2026-01-15T13:14:43-05:00*%
%TF.ProjectId,Right,52696768-742e-46b6-9963-61645f706362,rev?*%
%TF.SameCoordinates,Original*%
%TF.FileFunction,Paste,Bot*%
%TF.FilePolarity,Positive*%
%FSLAX46Y46*%
G04 Gerber Fmt 4.6, Leading zero omitted, Abs format (unit mm)*
G04 Created by KiCad (PCBNEW 9.0.6-1.fc43) date 2026-01-15 13:14:43*
%MOMM*%
%LPD*%
G01*
G04 APERTURE LIST*
G04 Aperture macros list*
%AMRoundRect*
0 Rectangle with rounded corners*
0 $1 Rounding radius*
0 $2 $3 $4 $5 $6 $7 $8 $9 X,Y pos of 4 corners*
0 Add a 4 corners polygon primitive as box body*
4,1,4,$2,$3,$4,$5,$6,$7,$8,$9,$2,$3,0*
0 Add four circle primitives for the rounded corners*
1,1,$1+$1,$2,$3*
1,1,$1+$1,$4,$5*
1,1,$1+$1,$6,$7*
1,1,$1+$1,$8,$9*
0 Add four rect primitives between the rounded corners*
20,1,$1+$1,$2,$3,$4,$5,0*
20,1,$1+$1,$4,$5,$6,$7,0*
20,1,$1+$1,$6,$7,$8,$9,0*
20,1,$1+$1,$8,$9,$2,$3,0*%
G04 Aperture macros list end*
%ADD10RoundRect,0.250000X-0.933944X-1.085529X1.108255X-0.906860X0.933944X1.085529X-1.108255X0.906860X0*%
%ADD11RoundRect,0.250000X-0.835780X-1.162797X1.183076X-0.806818X0.835780X1.162797X-1.183076X0.806818X0*%
%ADD12RoundRect,0.250000X-1.025000X-1.000000X1.025000X-1.000000X1.025000X1.000000X-1.025000X1.000000X0*%
%ADD13RoundRect,0.225000X0.225000X0.375000X-0.225000X0.375000X-0.225000X-0.375000X0.225000X-0.375000X0*%
G04 APERTURE END LIST*
D10*
%TO.C,S12*%
X129819457Y-90348521D03*
X141965532Y-91494280D03*
%TD*%
D11*
%TO.C,S20*%
X114361288Y-129698922D03*
X126561000Y-129781721D03*
%TD*%
D10*
%TO.C,S17*%
X148840386Y-105827878D03*
X160986461Y-106973637D03*
%TD*%
D12*
%TO.C,S10*%
X168350000Y-73000000D03*
X180350000Y-75200000D03*
%TD*%
D10*
%TO.C,S5*%
X145584347Y-72115084D03*
X157730422Y-73260843D03*
%TD*%
D12*
%TO.C,S1*%
X222350000Y-70000000D03*
X234350000Y-72200000D03*
%TD*%
D10*
%TO.C,S11*%
X147319457Y-89348521D03*
X159465532Y-90494280D03*
%TD*%
D11*
%TO.C,S19*%
X131638651Y-126698922D03*
X143838363Y-126781721D03*
%TD*%
D12*
%TO.C,S8*%
X204350000Y-86500000D03*
X216350000Y-88700000D03*
%TD*%
%TO.C,S4*%
X168350000Y-55200000D03*
X180350000Y-57400000D03*
%TD*%
D10*
%TO.C,S6*%
X127840386Y-73827878D03*
X139986461Y-74973637D03*
%TD*%
D12*
%TO.C,S13*%
X222125000Y-103550000D03*
X234125000Y-105750000D03*
%TD*%
%TO.C,S15*%
X186350000Y-95500000D03*
X198350000Y-97700000D03*
%TD*%
%TO.C,S3*%
X185850000Y-62000000D03*
X197850000Y-64200000D03*
%TD*%
%TO.C,S9*%
X186350000Y-79000000D03*
X198350000Y-81200000D03*
%TD*%
%TO.C,S7*%
X222350000Y-86500000D03*
X234350000Y-88700000D03*
%TD*%
%TO.C,S14*%
X204350000Y-103500000D03*
X216350000Y-105700000D03*
%TD*%
%TO.C,S2*%
X204350000Y-69500000D03*
X216350000Y-71700000D03*
%TD*%
%TO.C,S16*%
X168350000Y-89500000D03*
X180350000Y-91700000D03*
%TD*%
D10*
%TO.C,S18*%
X131319457Y-107348521D03*
X143465532Y-108494280D03*
%TD*%
D13*
%TO.C,D5*%
X152000000Y-82500000D03*
X148700000Y-82500000D03*
%TD*%
%TO.C,D10*%
X174500000Y-83000000D03*
X171200000Y-83000000D03*
%TD*%
%TO.C,D7*%
X228500000Y-97000000D03*
X225200000Y-97000000D03*
%TD*%
%TO.C,D16*%
X174500000Y-100000000D03*
X171200000Y-100000000D03*
%TD*%
%TO.C,D3*%
X192000000Y-72500000D03*
X188700000Y-72500000D03*
%TD*%
%TO.C,D6*%
X134000000Y-84000000D03*
X130700000Y-84000000D03*
%TD*%
%TO.C,D15*%
X192500000Y-106000000D03*
X189200000Y-106000000D03*
%TD*%
%TO.C,D11*%
X153000000Y-99500000D03*
X149700000Y-99500000D03*
%TD*%
%TO.C,D18*%
X137000000Y-117500000D03*
X133700000Y-117500000D03*
%TD*%
%TO.C,D8*%
X210500000Y-97000000D03*
X207200000Y-97000000D03*
%TD*%
%TO.C,D14*%
X210000000Y-114000000D03*
X206700000Y-114000000D03*
%TD*%
%TO.C,D13*%
X228000000Y-114000000D03*
X224700000Y-114000000D03*
%TD*%
%TO.C,D20*%
X120500000Y-139500000D03*
X117200000Y-139500000D03*
%TD*%
%TO.C,D2*%
X210500000Y-80500000D03*
X207200000Y-80500000D03*
%TD*%
%TO.C,D4*%
X174500000Y-66000000D03*
X171200000Y-66000000D03*
%TD*%
%TO.C,D17*%
X154500000Y-116000000D03*
X151200000Y-116000000D03*
%TD*%
%TO.C,D9*%
X192500000Y-89500000D03*
X189200000Y-89500000D03*
%TD*%
%TO.C,D1*%
X228500000Y-81000000D03*
X225200000Y-81000000D03*
%TD*%
%TO.C,D12*%
X136000000Y-101000000D03*
X132700000Y-101000000D03*
%TD*%
%TO.C,D19*%
X138000000Y-136500000D03*
X134700000Y-136500000D03*
%TD*%
M02*
