M48
; DRILL file {KiCad 9.0.6-1.fc43} date 2026-01-15T13:14:56-0500
; FORMAT={-:-/ absolute / metric / decimal}
; #@! TF.CreationDate,2026-01-15T13:14:56-05:00
; #@! TF.GenerationSoftware,Kicad,Pcbnew,9.0.6-1.fc43
; #@! TF.FileFunction,NonPlated,1,2,NPTH
FMAT,2
METRIC
; #@! TA.AperFunction,NonPlated,NPTH,ComponentDrill
T1C1.900
; #@! TA.AperFunction,NonPlated,NPTH,ComponentDrill
T2C3.050
; #@! TA.AperFunction,NonPlated,NPTH,ComponentDrill
T3C3.450
%
G90
G05
T1
X113.434Y-135.955
X124.266Y-134.045
X126.371Y-79.979
X128.35Y-96.5
X129.85Y-113.5
X130.711Y-132.955
X137.329Y-79.021
X139.308Y-95.541
X140.808Y-112.541
X141.544Y-131.045
X144.115Y-78.267
X145.85Y-95.5
X147.371Y-111.979
X155.073Y-77.308
X156.808Y-94.541
X158.329Y-111.021
X166.35Y-61.2
X166.35Y-79.0
X166.35Y-95.5
X177.35Y-61.2
X177.35Y-79.0
X177.35Y-95.5
X183.85Y-68.0
X184.35Y-85.0
X184.35Y-101.5
X194.85Y-68.0
X195.35Y-85.0
X195.35Y-101.5
X202.35Y-75.5
X202.35Y-92.5
X202.35Y-109.5
X213.35Y-75.5
X213.35Y-92.5
X213.35Y-109.5
X220.125Y-109.55
X220.35Y-76.0
X220.35Y-92.5
X231.125Y-109.55
X231.35Y-76.0
X231.35Y-92.5
T2
X117.825Y-129.19
X123.114Y-130.389
X131.336Y-73.622
X133.315Y-90.143
X134.815Y-107.143
X135.103Y-126.19
X136.5Y-75.279
X138.479Y-91.799
X139.979Y-108.799
X140.392Y-127.389
X149.08Y-71.91
X150.815Y-89.143
X152.336Y-105.622
X154.244Y-73.566
X155.979Y-90.799
X157.5Y-107.279
X171.85Y-55.3
X171.85Y-73.1
X171.85Y-89.6
X176.85Y-57.4
X176.85Y-75.2
X176.85Y-91.7
X189.35Y-62.1
X189.85Y-79.1
X189.85Y-95.6
X194.35Y-64.2
X194.85Y-81.2
X194.85Y-97.7
X207.85Y-69.6
X207.85Y-86.6
X207.85Y-103.6
X212.85Y-71.7
X212.85Y-88.7
X212.85Y-105.7
X225.625Y-103.65
X225.85Y-70.1
X225.85Y-86.6
X230.625Y-105.75
X230.85Y-72.2
X230.85Y-88.7
T3
X118.85Y-135.0
X131.85Y-79.5
X133.829Y-96.021
X135.329Y-113.021
X136.127Y-132.0
X149.594Y-77.787
X151.329Y-95.021
X152.85Y-111.5
X171.85Y-61.2
X171.85Y-79.0
X171.85Y-95.5
X189.35Y-68.0
X189.85Y-85.0
X189.85Y-101.5
X207.85Y-75.5
X207.85Y-92.5
X207.85Y-109.5
X225.625Y-109.55
X225.85Y-76.0
X225.85Y-92.5
M30
