%TF.GenerationSoftware,KiCad,Pcbnew,9.0.6-1.fc43*%
%TF.CreationDate,2026-01-15T13:14:44-05:00*%
%TF.ProjectId,Right,52696768-742e-46b6-9963-61645f706362,rev?*%
%TF.SameCoordinates,Original*%
%TF.FileFunction,Soldermask,Top*%
%TF.FilePolarity,Negative*%
%FSLAX46Y46*%
G04 Gerber Fmt 4.6, Leading zero omitted, Abs format (unit mm)*
G04 Created by KiCad (PCBNEW 9.0.6-1.fc43) date 2026-01-15 13:14:44*
%MOMM*%
%LPD*%
G01*
G04 APERTURE LIST*
G04 Aperture macros list*
%AMHorizOval*
0 Thick line with rounded ends*
0 $1 width*
0 $2 $3 position (X,Y) of the first rounded end (center of the circle)*
0 $4 $5 position (X,Y) of the second rounded end (center of the circle)*
0 Add line between two ends*
20,1,$1,$2,$3,$4,$5,0*
0 Add two circle primitives to create the rounded ends*
1,1,$1,$2,$3*
1,1,$1,$4,$5*%
%AMRotRect*
0 Rectangle, with rotation*
0 The origin of the aperture is its center*
0 $1 length*
0 $2 width*
0 $3 Rotation angle, in degrees counterclockwise*
0 Add horizontal line*
21,1,$1,$2,0,0,$3*%
G04 Aperture macros list end*
%ADD10C,1.900000*%
%ADD11C,3.050000*%
%ADD12C,3.450000*%
%ADD13C,2.800000*%
%ADD14RotRect,2.000000X2.000000X10.000000*%
%ADD15C,2.000000*%
%ADD16RotRect,3.200000X2.000000X10.000000*%
%ADD17RotRect,1.600000X1.600000X4.000000*%
%ADD18HorizOval,1.600000X0.000000X0.000000X0.000000X0.000000X0*%
%ADD19R,2.250000X2.250000*%
%ADD20C,2.250000*%
G04 APERTURE END LIST*
D10*
%TO.C,S12*%
X128350000Y-96500000D03*
D11*
X133314852Y-90143094D03*
D12*
X133829071Y-96020643D03*
D11*
X138478852Y-91799327D03*
D10*
X139308142Y-95541286D03*
%TD*%
%TO.C,S20*%
X113433556Y-135955067D03*
D11*
X117825476Y-129189634D03*
D12*
X118850000Y-135000000D03*
D11*
X123114175Y-130389489D03*
D10*
X124266444Y-134044933D03*
%TD*%
%TO.C,S17*%
X147370929Y-111979357D03*
D11*
X152335781Y-105622451D03*
D12*
X152850000Y-111500000D03*
D11*
X157499781Y-107278684D03*
D10*
X158329071Y-111020643D03*
%TD*%
%TO.C,S10*%
X166350000Y-79000000D03*
D11*
X171850000Y-73100000D03*
D12*
X171850000Y-79000000D03*
D11*
X176850000Y-75200000D03*
D10*
X177350000Y-79000000D03*
%TD*%
%TO.C,S5*%
X144114890Y-78266563D03*
D11*
X149079742Y-71909657D03*
D12*
X149593961Y-77787206D03*
D11*
X154243742Y-73565890D03*
D10*
X155073032Y-77307849D03*
%TD*%
%TO.C,S1*%
X220350000Y-76000000D03*
D11*
X225850000Y-70100000D03*
D12*
X225850000Y-76000000D03*
D11*
X230850000Y-72200000D03*
D10*
X231350000Y-76000000D03*
%TD*%
%TO.C,S11*%
X145850000Y-95500000D03*
D11*
X150814852Y-89143094D03*
D12*
X151329071Y-95020643D03*
D11*
X155978852Y-90799327D03*
D10*
X156808142Y-94541286D03*
%TD*%
%TO.C,S19*%
X130710920Y-132955067D03*
D11*
X135102839Y-126189634D03*
D12*
X136127363Y-132000000D03*
D11*
X140391538Y-127389489D03*
D10*
X141543806Y-131044933D03*
%TD*%
%TO.C,S8*%
X202350000Y-92500000D03*
D11*
X207850000Y-86600000D03*
D12*
X207850000Y-92500000D03*
D11*
X212850000Y-88700000D03*
D10*
X213350000Y-92500000D03*
%TD*%
%TO.C,S4*%
X166350000Y-61200000D03*
D11*
X171850000Y-55300000D03*
D12*
X171850000Y-61200000D03*
D11*
X176850000Y-57400000D03*
D10*
X177350000Y-61200000D03*
%TD*%
%TO.C,S6*%
X126370929Y-79979357D03*
D11*
X131335781Y-73622451D03*
D12*
X131850000Y-79500000D03*
D11*
X136499781Y-75278684D03*
D10*
X137329071Y-79020643D03*
%TD*%
%TO.C,S13*%
X220125000Y-109550000D03*
D11*
X225625000Y-103650000D03*
D12*
X225625000Y-109550000D03*
D11*
X230625000Y-105750000D03*
D10*
X231125000Y-109550000D03*
%TD*%
%TO.C,S15*%
X184350000Y-101500000D03*
D11*
X189850000Y-95600000D03*
D12*
X189850000Y-101500000D03*
D11*
X194850000Y-97700000D03*
D10*
X195350000Y-101500000D03*
%TD*%
D13*
%TO.C,J1*%
X101546203Y-84241244D03*
X99000000Y-76500000D03*
X101162543Y-78754641D03*
%TD*%
D10*
%TO.C,S3*%
X183850000Y-68000000D03*
D11*
X189350000Y-62100000D03*
D12*
X189350000Y-68000000D03*
D11*
X194350000Y-64200000D03*
D10*
X194850000Y-68000000D03*
%TD*%
%TO.C,S9*%
X184350000Y-85000000D03*
D11*
X189850000Y-79100000D03*
D12*
X189850000Y-85000000D03*
D11*
X194850000Y-81200000D03*
D10*
X195350000Y-85000000D03*
%TD*%
%TO.C,S7*%
X220350000Y-92500000D03*
D11*
X225850000Y-86600000D03*
D12*
X225850000Y-92500000D03*
D11*
X230850000Y-88700000D03*
D10*
X231350000Y-92500000D03*
%TD*%
%TO.C,S14*%
X202350000Y-109500000D03*
D11*
X207850000Y-103600000D03*
D12*
X207850000Y-109500000D03*
D11*
X212850000Y-105700000D03*
D10*
X213350000Y-109500000D03*
%TD*%
%TO.C,S2*%
X202350000Y-75500000D03*
D11*
X207850000Y-69600000D03*
D12*
X207850000Y-75500000D03*
D11*
X212850000Y-71700000D03*
D10*
X213350000Y-75500000D03*
%TD*%
D14*
%TO.C,SW1*%
X107021771Y-115340340D03*
D15*
X107890008Y-120264380D03*
X107455890Y-117802361D03*
D16*
X113869517Y-110985076D03*
X115814378Y-122014923D03*
D15*
X122169723Y-117746483D03*
X121301483Y-112822444D03*
%TD*%
D10*
%TO.C,S16*%
X166350000Y-95500000D03*
D11*
X171850000Y-89600000D03*
D12*
X171850000Y-95500000D03*
D11*
X176850000Y-91700000D03*
D10*
X177350000Y-95500000D03*
%TD*%
%TO.C,S18*%
X129850000Y-113500000D03*
D11*
X134814852Y-107143094D03*
D12*
X135329071Y-113020643D03*
D11*
X139978852Y-108799327D03*
D10*
X140808142Y-112541286D03*
%TD*%
D17*
%TO.C,U1*%
X120350000Y-75898562D03*
D18*
X120527181Y-78432375D03*
X120704362Y-80966186D03*
X120881543Y-83500000D03*
X121058726Y-86033812D03*
X121235906Y-88567624D03*
X121413087Y-91101439D03*
X121590269Y-93635251D03*
X121767452Y-96169063D03*
X121944633Y-98702876D03*
X122121814Y-101236689D03*
X122298995Y-103770500D03*
X107096119Y-104833590D03*
X106918937Y-102299777D03*
X106741757Y-99765965D03*
X106564575Y-97232152D03*
X106387395Y-94698339D03*
X106210211Y-92164526D03*
X106033029Y-89630714D03*
X105855849Y-87096901D03*
X105678667Y-84563088D03*
X105501487Y-82029276D03*
X105324305Y-79495463D03*
X105147123Y-76961651D03*
%TD*%
D19*
%TO.C,SW2*%
X153350000Y-60500000D03*
D20*
X146850000Y-60500000D03*
%TD*%
M02*
