M48
; DRILL file {KiCad 9.0.6-1.fc43} date 2026-01-15T13:14:56-0500
; FORMAT={-:-/ absolute / metric / decimal}
; #@! TF.CreationDate,2026-01-15T13:14:56-05:00
; #@! TF.GenerationSoftware,Kicad,Pcbnew,9.0.6-1.fc43
; #@! TF.FileFunction,Plated,1,2,PTH
FMAT,2
METRIC
; #@! TA.AperFunction,Plated,PTH,ViaDrill
T1C0.300
; #@! TA.AperFunction,Plated,PTH,ComponentDrill
T2C0.800
; #@! TA.AperFunction,Plated,PTH,ComponentDrill
T3C1.000
; #@! TA.AperFunction,Plated,PTH,ComponentDrill
T4C1.300
; #@! TA.AperFunction,Plated,PTH,ComponentDrill
T5C1.500
; #@! TA.AperFunction,Plated,PTH,ComponentDrill
T6C2.000
%
G90
G05
T1
X109.0Y-107.5
X109.5Y-99.5
X110.5Y-97.5
X110.5Y-101.0
X111.419Y-94.5
X112.019Y-99.481
X114.361Y-129.699
X116.5Y-107.0
X118.0Y-104.0
X119.0Y-99.0
X119.5Y-110.0
X124.0Y-99.5
X126.5Y-110.5
X127.5Y-112.5
X128.5Y-85.0
X130.5Y-104.0
X143.0Y-119.0
X145.5Y-112.0
X145.584Y-72.115
X147.319Y-89.349
X147.9Y-97.5
X148.5Y-102.0
X149.1Y-97.5
X168.35Y-73.0
X168.35Y-89.5
X168.5Y-67.5
X185.5Y-63.0
X186.35Y-79.0
X186.35Y-95.5
X204.35Y-86.5
X204.35Y-103.5
X204.5Y-77.5
X222.0Y-103.5
X222.35Y-70.0
X222.35Y-86.5
T2
X105.147Y-76.962
X105.324Y-79.495
X105.501Y-82.029
X105.679Y-84.563
X105.856Y-87.097
X106.033Y-89.631
X106.21Y-92.165
X106.387Y-94.698
X106.565Y-97.232
X106.742Y-99.766
X106.919Y-102.3
X107.096Y-104.834
X120.35Y-75.899
X120.527Y-78.432
X120.704Y-80.966
X120.882Y-83.5
X121.059Y-86.034
X121.236Y-88.568
X121.413Y-91.101
X121.59Y-93.635
X121.767Y-96.169
X121.945Y-98.703
X122.122Y-101.237
X122.299Y-103.77
T3
X107.022Y-115.34
X107.456Y-117.802
X107.89Y-120.264
X121.301Y-112.822
X122.17Y-117.746
T4
X146.85Y-60.5
X153.35Y-60.5
T6
X99.0Y-76.5
X101.163Y-78.755
X101.546Y-84.241
T5
G00X113.229Y-111.098
M15
G01X114.51Y-110.872
M16
G05
G00X115.174Y-122.128
M15
G01X116.455Y-121.902
M16
G05
M30
