%TF.GenerationSoftware,KiCad,Pcbnew,9.0.6-1.fc43*%
%TF.CreationDate,2026-01-15T13:14:43-05:00*%
%TF.ProjectId,Right,52696768-742e-46b6-9963-61645f706362,rev?*%
%TF.SameCoordinates,Original*%
%TF.FileFunction,Legend,Top*%
%TF.FilePolarity,Positive*%
%FSLAX46Y46*%
G04 Gerber Fmt 4.6, Leading zero omitted, Abs format (unit mm)*
G04 Created by KiCad (PCBNEW 9.0.6-1.fc43) date 2026-01-15 13:14:43*
%MOMM*%
%LPD*%
G01*
G04 APERTURE LIST*
%ADD10C,0.150000*%
%ADD11C,0.120000*%
G04 APERTURE END LIST*
D10*
X131846775Y-87568448D02*
X131993239Y-87603435D01*
X131993239Y-87603435D02*
X132230428Y-87582684D01*
X132230428Y-87582684D02*
X132321153Y-87526945D01*
X132321153Y-87526945D02*
X132364441Y-87475357D01*
X132364441Y-87475357D02*
X132403578Y-87376331D01*
X132403578Y-87376331D02*
X132395278Y-87281456D01*
X132395278Y-87281456D02*
X132339539Y-87190730D01*
X132339539Y-87190730D02*
X132287951Y-87147443D01*
X132287951Y-87147443D02*
X132188925Y-87108305D01*
X132188925Y-87108305D02*
X131995023Y-87077469D01*
X131995023Y-87077469D02*
X131895998Y-87038331D01*
X131895998Y-87038331D02*
X131844409Y-86995044D01*
X131844409Y-86995044D02*
X131788671Y-86904318D01*
X131788671Y-86904318D02*
X131780370Y-86809443D01*
X131780370Y-86809443D02*
X131819508Y-86710417D01*
X131819508Y-86710417D02*
X131862795Y-86658828D01*
X131862795Y-86658828D02*
X131953521Y-86603090D01*
X131953521Y-86603090D02*
X132190710Y-86582339D01*
X132190710Y-86582339D02*
X132337174Y-86617326D01*
X133368936Y-87483077D02*
X132799682Y-87532880D01*
X133084309Y-87507979D02*
X132997153Y-86511784D01*
X132997153Y-86511784D02*
X132914728Y-86662398D01*
X132914728Y-86662398D02*
X132828153Y-86765574D01*
X132828153Y-86765574D02*
X132737428Y-86821313D01*
X133669584Y-86548556D02*
X133712871Y-86496968D01*
X133712871Y-86496968D02*
X133803597Y-86441229D01*
X133803597Y-86441229D02*
X134040786Y-86420478D01*
X134040786Y-86420478D02*
X134139812Y-86459615D01*
X134139812Y-86459615D02*
X134191400Y-86502903D01*
X134191400Y-86502903D02*
X134247138Y-86593628D01*
X134247138Y-86593628D02*
X134255439Y-86688504D01*
X134255439Y-86688504D02*
X134220452Y-86834968D01*
X134220452Y-86834968D02*
X133701001Y-87454025D01*
X133701001Y-87454025D02*
X134317693Y-87400072D01*
X116138591Y-126752736D02*
X116287546Y-126774825D01*
X116287546Y-126774825D02*
X116522024Y-126733480D01*
X116522024Y-126733480D02*
X116607547Y-126670047D01*
X116607547Y-126670047D02*
X116646173Y-126614882D01*
X116646173Y-126614882D02*
X116676531Y-126512822D01*
X116676531Y-126512822D02*
X116659993Y-126419031D01*
X116659993Y-126419031D02*
X116596560Y-126333508D01*
X116596560Y-126333508D02*
X116541395Y-126294882D01*
X116541395Y-126294882D02*
X116439335Y-126264524D01*
X116439335Y-126264524D02*
X116243483Y-126250704D01*
X116243483Y-126250704D02*
X116141423Y-126220347D01*
X116141423Y-126220347D02*
X116086259Y-126181720D01*
X116086259Y-126181720D02*
X116022825Y-126096198D01*
X116022825Y-126096198D02*
X116006287Y-126002406D01*
X116006287Y-126002406D02*
X116036645Y-125900346D01*
X116036645Y-125900346D02*
X116075272Y-125845182D01*
X116075272Y-125845182D02*
X116160794Y-125781748D01*
X116160794Y-125781748D02*
X116395272Y-125740403D01*
X116395272Y-125740403D02*
X116544228Y-125762492D01*
X116927662Y-125743236D02*
X116966288Y-125688071D01*
X116966288Y-125688071D02*
X117051810Y-125624638D01*
X117051810Y-125624638D02*
X117286289Y-125583293D01*
X117286289Y-125583293D02*
X117388349Y-125613651D01*
X117388349Y-125613651D02*
X117443513Y-125652277D01*
X117443513Y-125652277D02*
X117506947Y-125737800D01*
X117506947Y-125737800D02*
X117523485Y-125831591D01*
X117523485Y-125831591D02*
X117501396Y-125980547D01*
X117501396Y-125980547D02*
X117037876Y-126642521D01*
X117037876Y-126642521D02*
X117647519Y-126535025D01*
X118083514Y-125442721D02*
X118177305Y-125426183D01*
X118177305Y-125426183D02*
X118279365Y-125456540D01*
X118279365Y-125456540D02*
X118334530Y-125495167D01*
X118334530Y-125495167D02*
X118397963Y-125580689D01*
X118397963Y-125580689D02*
X118477935Y-125760003D01*
X118477935Y-125760003D02*
X118519280Y-125994481D01*
X118519280Y-125994481D02*
X118505460Y-126190332D01*
X118505460Y-126190332D02*
X118475102Y-126292392D01*
X118475102Y-126292392D02*
X118436476Y-126347557D01*
X118436476Y-126347557D02*
X118350953Y-126410991D01*
X118350953Y-126410991D02*
X118257162Y-126427528D01*
X118257162Y-126427528D02*
X118155102Y-126397171D01*
X118155102Y-126397171D02*
X118099937Y-126358544D01*
X118099937Y-126358544D02*
X118036504Y-126273022D01*
X118036504Y-126273022D02*
X117956532Y-126093708D01*
X117956532Y-126093708D02*
X117915188Y-125859230D01*
X117915188Y-125859230D02*
X117929007Y-125663379D01*
X117929007Y-125663379D02*
X117959365Y-125561319D01*
X117959365Y-125561319D02*
X117997992Y-125506154D01*
X117997992Y-125506154D02*
X118083514Y-125442721D01*
X150867704Y-103047805D02*
X151014168Y-103082792D01*
X151014168Y-103082792D02*
X151251357Y-103062041D01*
X151251357Y-103062041D02*
X151342082Y-103006302D01*
X151342082Y-103006302D02*
X151385370Y-102954714D01*
X151385370Y-102954714D02*
X151424507Y-102855688D01*
X151424507Y-102855688D02*
X151416207Y-102760813D01*
X151416207Y-102760813D02*
X151360468Y-102670087D01*
X151360468Y-102670087D02*
X151308880Y-102626800D01*
X151308880Y-102626800D02*
X151209854Y-102587662D01*
X151209854Y-102587662D02*
X151015952Y-102556826D01*
X151015952Y-102556826D02*
X150916927Y-102517688D01*
X150916927Y-102517688D02*
X150865338Y-102474401D01*
X150865338Y-102474401D02*
X150809600Y-102383675D01*
X150809600Y-102383675D02*
X150801299Y-102288800D01*
X150801299Y-102288800D02*
X150840437Y-102189774D01*
X150840437Y-102189774D02*
X150883724Y-102138185D01*
X150883724Y-102138185D02*
X150974450Y-102082447D01*
X150974450Y-102082447D02*
X151211639Y-102061696D01*
X151211639Y-102061696D02*
X151358103Y-102096683D01*
X152389865Y-102962434D02*
X151820611Y-103012237D01*
X152105238Y-102987336D02*
X152018082Y-101991141D01*
X152018082Y-101991141D02*
X151935657Y-102141755D01*
X151935657Y-102141755D02*
X151849082Y-102244931D01*
X151849082Y-102244931D02*
X151758357Y-102300670D01*
X152634774Y-101937188D02*
X153298904Y-101879084D01*
X153298904Y-101879084D02*
X152959119Y-102912631D01*
X170611905Y-70407200D02*
X170754762Y-70454819D01*
X170754762Y-70454819D02*
X170992857Y-70454819D01*
X170992857Y-70454819D02*
X171088095Y-70407200D01*
X171088095Y-70407200D02*
X171135714Y-70359580D01*
X171135714Y-70359580D02*
X171183333Y-70264342D01*
X171183333Y-70264342D02*
X171183333Y-70169104D01*
X171183333Y-70169104D02*
X171135714Y-70073866D01*
X171135714Y-70073866D02*
X171088095Y-70026247D01*
X171088095Y-70026247D02*
X170992857Y-69978628D01*
X170992857Y-69978628D02*
X170802381Y-69931009D01*
X170802381Y-69931009D02*
X170707143Y-69883390D01*
X170707143Y-69883390D02*
X170659524Y-69835771D01*
X170659524Y-69835771D02*
X170611905Y-69740533D01*
X170611905Y-69740533D02*
X170611905Y-69645295D01*
X170611905Y-69645295D02*
X170659524Y-69550057D01*
X170659524Y-69550057D02*
X170707143Y-69502438D01*
X170707143Y-69502438D02*
X170802381Y-69454819D01*
X170802381Y-69454819D02*
X171040476Y-69454819D01*
X171040476Y-69454819D02*
X171183333Y-69502438D01*
X172135714Y-70454819D02*
X171564286Y-70454819D01*
X171850000Y-70454819D02*
X171850000Y-69454819D01*
X171850000Y-69454819D02*
X171754762Y-69597676D01*
X171754762Y-69597676D02*
X171659524Y-69692914D01*
X171659524Y-69692914D02*
X171564286Y-69740533D01*
X172754762Y-69454819D02*
X172850000Y-69454819D01*
X172850000Y-69454819D02*
X172945238Y-69502438D01*
X172945238Y-69502438D02*
X172992857Y-69550057D01*
X172992857Y-69550057D02*
X173040476Y-69645295D01*
X173040476Y-69645295D02*
X173088095Y-69835771D01*
X173088095Y-69835771D02*
X173088095Y-70073866D01*
X173088095Y-70073866D02*
X173040476Y-70264342D01*
X173040476Y-70264342D02*
X172992857Y-70359580D01*
X172992857Y-70359580D02*
X172945238Y-70407200D01*
X172945238Y-70407200D02*
X172850000Y-70454819D01*
X172850000Y-70454819D02*
X172754762Y-70454819D01*
X172754762Y-70454819D02*
X172659524Y-70407200D01*
X172659524Y-70407200D02*
X172611905Y-70359580D01*
X172611905Y-70359580D02*
X172564286Y-70264342D01*
X172564286Y-70264342D02*
X172516667Y-70073866D01*
X172516667Y-70073866D02*
X172516667Y-69835771D01*
X172516667Y-69835771D02*
X172564286Y-69645295D01*
X172564286Y-69645295D02*
X172611905Y-69550057D01*
X172611905Y-69550057D02*
X172659524Y-69502438D01*
X172659524Y-69502438D02*
X172754762Y-69454819D01*
X148086043Y-69293508D02*
X148232507Y-69328495D01*
X148232507Y-69328495D02*
X148469696Y-69307744D01*
X148469696Y-69307744D02*
X148560421Y-69252006D01*
X148560421Y-69252006D02*
X148603709Y-69200418D01*
X148603709Y-69200418D02*
X148642846Y-69101392D01*
X148642846Y-69101392D02*
X148634546Y-69006516D01*
X148634546Y-69006516D02*
X148578807Y-68915790D01*
X148578807Y-68915790D02*
X148527219Y-68872503D01*
X148527219Y-68872503D02*
X148428193Y-68833366D01*
X148428193Y-68833366D02*
X148234291Y-68802529D01*
X148234291Y-68802529D02*
X148135265Y-68763392D01*
X148135265Y-68763392D02*
X148083677Y-68720104D01*
X148083677Y-68720104D02*
X148027939Y-68629379D01*
X148027939Y-68629379D02*
X148019638Y-68534503D01*
X148019638Y-68534503D02*
X148058776Y-68435477D01*
X148058776Y-68435477D02*
X148102063Y-68383889D01*
X148102063Y-68383889D02*
X148192789Y-68328150D01*
X148192789Y-68328150D02*
X148429978Y-68307399D01*
X148429978Y-68307399D02*
X148576442Y-68342386D01*
X149473610Y-68216093D02*
X148999232Y-68257596D01*
X148999232Y-68257596D02*
X148993297Y-68736124D01*
X148993297Y-68736124D02*
X149036585Y-68684536D01*
X149036585Y-68684536D02*
X149127310Y-68628798D01*
X149127310Y-68628798D02*
X149364499Y-68608047D01*
X149364499Y-68608047D02*
X149463525Y-68647184D01*
X149463525Y-68647184D02*
X149515113Y-68690471D01*
X149515113Y-68690471D02*
X149570852Y-68781197D01*
X149570852Y-68781197D02*
X149591603Y-69018386D01*
X149591603Y-69018386D02*
X149552466Y-69117412D01*
X149552466Y-69117412D02*
X149509178Y-69169000D01*
X149509178Y-69169000D02*
X149418453Y-69224739D01*
X149418453Y-69224739D02*
X149181263Y-69245490D01*
X149181263Y-69245490D02*
X149082238Y-69206353D01*
X149082238Y-69206353D02*
X149030649Y-69163065D01*
X225088095Y-67407200D02*
X225230952Y-67454819D01*
X225230952Y-67454819D02*
X225469047Y-67454819D01*
X225469047Y-67454819D02*
X225564285Y-67407200D01*
X225564285Y-67407200D02*
X225611904Y-67359580D01*
X225611904Y-67359580D02*
X225659523Y-67264342D01*
X225659523Y-67264342D02*
X225659523Y-67169104D01*
X225659523Y-67169104D02*
X225611904Y-67073866D01*
X225611904Y-67073866D02*
X225564285Y-67026247D01*
X225564285Y-67026247D02*
X225469047Y-66978628D01*
X225469047Y-66978628D02*
X225278571Y-66931009D01*
X225278571Y-66931009D02*
X225183333Y-66883390D01*
X225183333Y-66883390D02*
X225135714Y-66835771D01*
X225135714Y-66835771D02*
X225088095Y-66740533D01*
X225088095Y-66740533D02*
X225088095Y-66645295D01*
X225088095Y-66645295D02*
X225135714Y-66550057D01*
X225135714Y-66550057D02*
X225183333Y-66502438D01*
X225183333Y-66502438D02*
X225278571Y-66454819D01*
X225278571Y-66454819D02*
X225516666Y-66454819D01*
X225516666Y-66454819D02*
X225659523Y-66502438D01*
X226611904Y-67454819D02*
X226040476Y-67454819D01*
X226326190Y-67454819D02*
X226326190Y-66454819D01*
X226326190Y-66454819D02*
X226230952Y-66597676D01*
X226230952Y-66597676D02*
X226135714Y-66692914D01*
X226135714Y-66692914D02*
X226040476Y-66740533D01*
X149346775Y-86568448D02*
X149493239Y-86603435D01*
X149493239Y-86603435D02*
X149730428Y-86582684D01*
X149730428Y-86582684D02*
X149821153Y-86526945D01*
X149821153Y-86526945D02*
X149864441Y-86475357D01*
X149864441Y-86475357D02*
X149903578Y-86376331D01*
X149903578Y-86376331D02*
X149895278Y-86281456D01*
X149895278Y-86281456D02*
X149839539Y-86190730D01*
X149839539Y-86190730D02*
X149787951Y-86147443D01*
X149787951Y-86147443D02*
X149688925Y-86108305D01*
X149688925Y-86108305D02*
X149495023Y-86077469D01*
X149495023Y-86077469D02*
X149395998Y-86038331D01*
X149395998Y-86038331D02*
X149344409Y-85995044D01*
X149344409Y-85995044D02*
X149288671Y-85904318D01*
X149288671Y-85904318D02*
X149280370Y-85809443D01*
X149280370Y-85809443D02*
X149319508Y-85710417D01*
X149319508Y-85710417D02*
X149362795Y-85658828D01*
X149362795Y-85658828D02*
X149453521Y-85603090D01*
X149453521Y-85603090D02*
X149690710Y-85582339D01*
X149690710Y-85582339D02*
X149837174Y-85617326D01*
X150868936Y-86483077D02*
X150299682Y-86532880D01*
X150584309Y-86507979D02*
X150497153Y-85511784D01*
X150497153Y-85511784D02*
X150414728Y-85662398D01*
X150414728Y-85662398D02*
X150328153Y-85765574D01*
X150328153Y-85765574D02*
X150237428Y-85821313D01*
X151817693Y-86400072D02*
X151248439Y-86449875D01*
X151533066Y-86424973D02*
X151445910Y-85428779D01*
X151445910Y-85428779D02*
X151363485Y-85579393D01*
X151363485Y-85579393D02*
X151276910Y-85682569D01*
X151276910Y-85682569D02*
X151186185Y-85738307D01*
X133415954Y-123752736D02*
X133564909Y-123774825D01*
X133564909Y-123774825D02*
X133799387Y-123733480D01*
X133799387Y-123733480D02*
X133884910Y-123670047D01*
X133884910Y-123670047D02*
X133923536Y-123614882D01*
X133923536Y-123614882D02*
X133953894Y-123512822D01*
X133953894Y-123512822D02*
X133937356Y-123419031D01*
X133937356Y-123419031D02*
X133873923Y-123333508D01*
X133873923Y-123333508D02*
X133818758Y-123294882D01*
X133818758Y-123294882D02*
X133716698Y-123264524D01*
X133716698Y-123264524D02*
X133520846Y-123250704D01*
X133520846Y-123250704D02*
X133418786Y-123220347D01*
X133418786Y-123220347D02*
X133363622Y-123181720D01*
X133363622Y-123181720D02*
X133300188Y-123096198D01*
X133300188Y-123096198D02*
X133283650Y-123002406D01*
X133283650Y-123002406D02*
X133314008Y-122900346D01*
X133314008Y-122900346D02*
X133352635Y-122845182D01*
X133352635Y-122845182D02*
X133438157Y-122781748D01*
X133438157Y-122781748D02*
X133672635Y-122740403D01*
X133672635Y-122740403D02*
X133821591Y-122762492D01*
X134924882Y-123535025D02*
X134362135Y-123634253D01*
X134643508Y-123584639D02*
X134469860Y-122599831D01*
X134469860Y-122599831D02*
X134400876Y-122757056D01*
X134400876Y-122757056D02*
X134323623Y-122867385D01*
X134323623Y-122867385D02*
X134238100Y-122930818D01*
X135393838Y-123452335D02*
X135581421Y-123419260D01*
X135581421Y-123419260D02*
X135666943Y-123355826D01*
X135666943Y-123355826D02*
X135705570Y-123300661D01*
X135705570Y-123300661D02*
X135774554Y-123143437D01*
X135774554Y-123143437D02*
X135788374Y-122947585D01*
X135788374Y-122947585D02*
X135722222Y-122572420D01*
X135722222Y-122572420D02*
X135658788Y-122486898D01*
X135658788Y-122486898D02*
X135603624Y-122448272D01*
X135603624Y-122448272D02*
X135501564Y-122417914D01*
X135501564Y-122417914D02*
X135313981Y-122450990D01*
X135313981Y-122450990D02*
X135228459Y-122514423D01*
X135228459Y-122514423D02*
X135189832Y-122569588D01*
X135189832Y-122569588D02*
X135159475Y-122671648D01*
X135159475Y-122671648D02*
X135200819Y-122906126D01*
X135200819Y-122906126D02*
X135264253Y-122991648D01*
X135264253Y-122991648D02*
X135319418Y-123030275D01*
X135319418Y-123030275D02*
X135421478Y-123060633D01*
X135421478Y-123060633D02*
X135609060Y-123027557D01*
X135609060Y-123027557D02*
X135694582Y-122964123D01*
X135694582Y-122964123D02*
X135733209Y-122908959D01*
X135733209Y-122908959D02*
X135763567Y-122806898D01*
X207088095Y-83907200D02*
X207230952Y-83954819D01*
X207230952Y-83954819D02*
X207469047Y-83954819D01*
X207469047Y-83954819D02*
X207564285Y-83907200D01*
X207564285Y-83907200D02*
X207611904Y-83859580D01*
X207611904Y-83859580D02*
X207659523Y-83764342D01*
X207659523Y-83764342D02*
X207659523Y-83669104D01*
X207659523Y-83669104D02*
X207611904Y-83573866D01*
X207611904Y-83573866D02*
X207564285Y-83526247D01*
X207564285Y-83526247D02*
X207469047Y-83478628D01*
X207469047Y-83478628D02*
X207278571Y-83431009D01*
X207278571Y-83431009D02*
X207183333Y-83383390D01*
X207183333Y-83383390D02*
X207135714Y-83335771D01*
X207135714Y-83335771D02*
X207088095Y-83240533D01*
X207088095Y-83240533D02*
X207088095Y-83145295D01*
X207088095Y-83145295D02*
X207135714Y-83050057D01*
X207135714Y-83050057D02*
X207183333Y-83002438D01*
X207183333Y-83002438D02*
X207278571Y-82954819D01*
X207278571Y-82954819D02*
X207516666Y-82954819D01*
X207516666Y-82954819D02*
X207659523Y-83002438D01*
X208230952Y-83383390D02*
X208135714Y-83335771D01*
X208135714Y-83335771D02*
X208088095Y-83288152D01*
X208088095Y-83288152D02*
X208040476Y-83192914D01*
X208040476Y-83192914D02*
X208040476Y-83145295D01*
X208040476Y-83145295D02*
X208088095Y-83050057D01*
X208088095Y-83050057D02*
X208135714Y-83002438D01*
X208135714Y-83002438D02*
X208230952Y-82954819D01*
X208230952Y-82954819D02*
X208421428Y-82954819D01*
X208421428Y-82954819D02*
X208516666Y-83002438D01*
X208516666Y-83002438D02*
X208564285Y-83050057D01*
X208564285Y-83050057D02*
X208611904Y-83145295D01*
X208611904Y-83145295D02*
X208611904Y-83192914D01*
X208611904Y-83192914D02*
X208564285Y-83288152D01*
X208564285Y-83288152D02*
X208516666Y-83335771D01*
X208516666Y-83335771D02*
X208421428Y-83383390D01*
X208421428Y-83383390D02*
X208230952Y-83383390D01*
X208230952Y-83383390D02*
X208135714Y-83431009D01*
X208135714Y-83431009D02*
X208088095Y-83478628D01*
X208088095Y-83478628D02*
X208040476Y-83573866D01*
X208040476Y-83573866D02*
X208040476Y-83764342D01*
X208040476Y-83764342D02*
X208088095Y-83859580D01*
X208088095Y-83859580D02*
X208135714Y-83907200D01*
X208135714Y-83907200D02*
X208230952Y-83954819D01*
X208230952Y-83954819D02*
X208421428Y-83954819D01*
X208421428Y-83954819D02*
X208516666Y-83907200D01*
X208516666Y-83907200D02*
X208564285Y-83859580D01*
X208564285Y-83859580D02*
X208611904Y-83764342D01*
X208611904Y-83764342D02*
X208611904Y-83573866D01*
X208611904Y-83573866D02*
X208564285Y-83478628D01*
X208564285Y-83478628D02*
X208516666Y-83431009D01*
X208516666Y-83431009D02*
X208421428Y-83383390D01*
X171088095Y-52607200D02*
X171230952Y-52654819D01*
X171230952Y-52654819D02*
X171469047Y-52654819D01*
X171469047Y-52654819D02*
X171564285Y-52607200D01*
X171564285Y-52607200D02*
X171611904Y-52559580D01*
X171611904Y-52559580D02*
X171659523Y-52464342D01*
X171659523Y-52464342D02*
X171659523Y-52369104D01*
X171659523Y-52369104D02*
X171611904Y-52273866D01*
X171611904Y-52273866D02*
X171564285Y-52226247D01*
X171564285Y-52226247D02*
X171469047Y-52178628D01*
X171469047Y-52178628D02*
X171278571Y-52131009D01*
X171278571Y-52131009D02*
X171183333Y-52083390D01*
X171183333Y-52083390D02*
X171135714Y-52035771D01*
X171135714Y-52035771D02*
X171088095Y-51940533D01*
X171088095Y-51940533D02*
X171088095Y-51845295D01*
X171088095Y-51845295D02*
X171135714Y-51750057D01*
X171135714Y-51750057D02*
X171183333Y-51702438D01*
X171183333Y-51702438D02*
X171278571Y-51654819D01*
X171278571Y-51654819D02*
X171516666Y-51654819D01*
X171516666Y-51654819D02*
X171659523Y-51702438D01*
X172516666Y-51988152D02*
X172516666Y-52654819D01*
X172278571Y-51607200D02*
X172040476Y-52321485D01*
X172040476Y-52321485D02*
X172659523Y-52321485D01*
X130342082Y-71006302D02*
X130488546Y-71041289D01*
X130488546Y-71041289D02*
X130725735Y-71020538D01*
X130725735Y-71020538D02*
X130816460Y-70964800D01*
X130816460Y-70964800D02*
X130859748Y-70913212D01*
X130859748Y-70913212D02*
X130898885Y-70814186D01*
X130898885Y-70814186D02*
X130890585Y-70719310D01*
X130890585Y-70719310D02*
X130834846Y-70628584D01*
X130834846Y-70628584D02*
X130783258Y-70585297D01*
X130783258Y-70585297D02*
X130684232Y-70546160D01*
X130684232Y-70546160D02*
X130490330Y-70515323D01*
X130490330Y-70515323D02*
X130391304Y-70476186D01*
X130391304Y-70476186D02*
X130339716Y-70432898D01*
X130339716Y-70432898D02*
X130283978Y-70342173D01*
X130283978Y-70342173D02*
X130275677Y-70247297D01*
X130275677Y-70247297D02*
X130314815Y-70148271D01*
X130314815Y-70148271D02*
X130358102Y-70096683D01*
X130358102Y-70096683D02*
X130448828Y-70040944D01*
X130448828Y-70040944D02*
X130686017Y-70020193D01*
X130686017Y-70020193D02*
X130832481Y-70055180D01*
X131682212Y-69933037D02*
X131492460Y-69949638D01*
X131492460Y-69949638D02*
X131401735Y-70005377D01*
X131401735Y-70005377D02*
X131358447Y-70056965D01*
X131358447Y-70056965D02*
X131276022Y-70207579D01*
X131276022Y-70207579D02*
X131245186Y-70401481D01*
X131245186Y-70401481D02*
X131278388Y-70780983D01*
X131278388Y-70780983D02*
X131334126Y-70871709D01*
X131334126Y-70871709D02*
X131385714Y-70914996D01*
X131385714Y-70914996D02*
X131484740Y-70954134D01*
X131484740Y-70954134D02*
X131674492Y-70937533D01*
X131674492Y-70937533D02*
X131765217Y-70881794D01*
X131765217Y-70881794D02*
X131808505Y-70830206D01*
X131808505Y-70830206D02*
X131847642Y-70731180D01*
X131847642Y-70731180D02*
X131826891Y-70493991D01*
X131826891Y-70493991D02*
X131771152Y-70403265D01*
X131771152Y-70403265D02*
X131719564Y-70359978D01*
X131719564Y-70359978D02*
X131620538Y-70320841D01*
X131620538Y-70320841D02*
X131430787Y-70337442D01*
X131430787Y-70337442D02*
X131340061Y-70393180D01*
X131340061Y-70393180D02*
X131296774Y-70444768D01*
X131296774Y-70444768D02*
X131257637Y-70543794D01*
X224386905Y-100957200D02*
X224529762Y-101004819D01*
X224529762Y-101004819D02*
X224767857Y-101004819D01*
X224767857Y-101004819D02*
X224863095Y-100957200D01*
X224863095Y-100957200D02*
X224910714Y-100909580D01*
X224910714Y-100909580D02*
X224958333Y-100814342D01*
X224958333Y-100814342D02*
X224958333Y-100719104D01*
X224958333Y-100719104D02*
X224910714Y-100623866D01*
X224910714Y-100623866D02*
X224863095Y-100576247D01*
X224863095Y-100576247D02*
X224767857Y-100528628D01*
X224767857Y-100528628D02*
X224577381Y-100481009D01*
X224577381Y-100481009D02*
X224482143Y-100433390D01*
X224482143Y-100433390D02*
X224434524Y-100385771D01*
X224434524Y-100385771D02*
X224386905Y-100290533D01*
X224386905Y-100290533D02*
X224386905Y-100195295D01*
X224386905Y-100195295D02*
X224434524Y-100100057D01*
X224434524Y-100100057D02*
X224482143Y-100052438D01*
X224482143Y-100052438D02*
X224577381Y-100004819D01*
X224577381Y-100004819D02*
X224815476Y-100004819D01*
X224815476Y-100004819D02*
X224958333Y-100052438D01*
X225910714Y-101004819D02*
X225339286Y-101004819D01*
X225625000Y-101004819D02*
X225625000Y-100004819D01*
X225625000Y-100004819D02*
X225529762Y-100147676D01*
X225529762Y-100147676D02*
X225434524Y-100242914D01*
X225434524Y-100242914D02*
X225339286Y-100290533D01*
X226244048Y-100004819D02*
X226863095Y-100004819D01*
X226863095Y-100004819D02*
X226529762Y-100385771D01*
X226529762Y-100385771D02*
X226672619Y-100385771D01*
X226672619Y-100385771D02*
X226767857Y-100433390D01*
X226767857Y-100433390D02*
X226815476Y-100481009D01*
X226815476Y-100481009D02*
X226863095Y-100576247D01*
X226863095Y-100576247D02*
X226863095Y-100814342D01*
X226863095Y-100814342D02*
X226815476Y-100909580D01*
X226815476Y-100909580D02*
X226767857Y-100957200D01*
X226767857Y-100957200D02*
X226672619Y-101004819D01*
X226672619Y-101004819D02*
X226386905Y-101004819D01*
X226386905Y-101004819D02*
X226291667Y-100957200D01*
X226291667Y-100957200D02*
X226244048Y-100909580D01*
X188611905Y-92907200D02*
X188754762Y-92954819D01*
X188754762Y-92954819D02*
X188992857Y-92954819D01*
X188992857Y-92954819D02*
X189088095Y-92907200D01*
X189088095Y-92907200D02*
X189135714Y-92859580D01*
X189135714Y-92859580D02*
X189183333Y-92764342D01*
X189183333Y-92764342D02*
X189183333Y-92669104D01*
X189183333Y-92669104D02*
X189135714Y-92573866D01*
X189135714Y-92573866D02*
X189088095Y-92526247D01*
X189088095Y-92526247D02*
X188992857Y-92478628D01*
X188992857Y-92478628D02*
X188802381Y-92431009D01*
X188802381Y-92431009D02*
X188707143Y-92383390D01*
X188707143Y-92383390D02*
X188659524Y-92335771D01*
X188659524Y-92335771D02*
X188611905Y-92240533D01*
X188611905Y-92240533D02*
X188611905Y-92145295D01*
X188611905Y-92145295D02*
X188659524Y-92050057D01*
X188659524Y-92050057D02*
X188707143Y-92002438D01*
X188707143Y-92002438D02*
X188802381Y-91954819D01*
X188802381Y-91954819D02*
X189040476Y-91954819D01*
X189040476Y-91954819D02*
X189183333Y-92002438D01*
X190135714Y-92954819D02*
X189564286Y-92954819D01*
X189850000Y-92954819D02*
X189850000Y-91954819D01*
X189850000Y-91954819D02*
X189754762Y-92097676D01*
X189754762Y-92097676D02*
X189659524Y-92192914D01*
X189659524Y-92192914D02*
X189564286Y-92240533D01*
X191040476Y-91954819D02*
X190564286Y-91954819D01*
X190564286Y-91954819D02*
X190516667Y-92431009D01*
X190516667Y-92431009D02*
X190564286Y-92383390D01*
X190564286Y-92383390D02*
X190659524Y-92335771D01*
X190659524Y-92335771D02*
X190897619Y-92335771D01*
X190897619Y-92335771D02*
X190992857Y-92383390D01*
X190992857Y-92383390D02*
X191040476Y-92431009D01*
X191040476Y-92431009D02*
X191088095Y-92526247D01*
X191088095Y-92526247D02*
X191088095Y-92764342D01*
X191088095Y-92764342D02*
X191040476Y-92859580D01*
X191040476Y-92859580D02*
X190992857Y-92907200D01*
X190992857Y-92907200D02*
X190897619Y-92954819D01*
X190897619Y-92954819D02*
X190659524Y-92954819D01*
X190659524Y-92954819D02*
X190564286Y-92907200D01*
X190564286Y-92907200D02*
X190516667Y-92859580D01*
X98279276Y-69538135D02*
X98329102Y-70250680D01*
X98329102Y-70250680D02*
X98291564Y-70396511D01*
X98291564Y-70396511D02*
X98203202Y-70498161D01*
X98203202Y-70498161D02*
X98064014Y-70555629D01*
X98064014Y-70555629D02*
X97969008Y-70562273D01*
X99346597Y-70465942D02*
X98776560Y-70505803D01*
X99061579Y-70485873D02*
X98991822Y-69488309D01*
X98991822Y-69488309D02*
X98906781Y-69637461D01*
X98906781Y-69637461D02*
X98818419Y-69739111D01*
X98818419Y-69739111D02*
X98726734Y-69793257D01*
X188588095Y-59407200D02*
X188730952Y-59454819D01*
X188730952Y-59454819D02*
X188969047Y-59454819D01*
X188969047Y-59454819D02*
X189064285Y-59407200D01*
X189064285Y-59407200D02*
X189111904Y-59359580D01*
X189111904Y-59359580D02*
X189159523Y-59264342D01*
X189159523Y-59264342D02*
X189159523Y-59169104D01*
X189159523Y-59169104D02*
X189111904Y-59073866D01*
X189111904Y-59073866D02*
X189064285Y-59026247D01*
X189064285Y-59026247D02*
X188969047Y-58978628D01*
X188969047Y-58978628D02*
X188778571Y-58931009D01*
X188778571Y-58931009D02*
X188683333Y-58883390D01*
X188683333Y-58883390D02*
X188635714Y-58835771D01*
X188635714Y-58835771D02*
X188588095Y-58740533D01*
X188588095Y-58740533D02*
X188588095Y-58645295D01*
X188588095Y-58645295D02*
X188635714Y-58550057D01*
X188635714Y-58550057D02*
X188683333Y-58502438D01*
X188683333Y-58502438D02*
X188778571Y-58454819D01*
X188778571Y-58454819D02*
X189016666Y-58454819D01*
X189016666Y-58454819D02*
X189159523Y-58502438D01*
X189492857Y-58454819D02*
X190111904Y-58454819D01*
X190111904Y-58454819D02*
X189778571Y-58835771D01*
X189778571Y-58835771D02*
X189921428Y-58835771D01*
X189921428Y-58835771D02*
X190016666Y-58883390D01*
X190016666Y-58883390D02*
X190064285Y-58931009D01*
X190064285Y-58931009D02*
X190111904Y-59026247D01*
X190111904Y-59026247D02*
X190111904Y-59264342D01*
X190111904Y-59264342D02*
X190064285Y-59359580D01*
X190064285Y-59359580D02*
X190016666Y-59407200D01*
X190016666Y-59407200D02*
X189921428Y-59454819D01*
X189921428Y-59454819D02*
X189635714Y-59454819D01*
X189635714Y-59454819D02*
X189540476Y-59407200D01*
X189540476Y-59407200D02*
X189492857Y-59359580D01*
X189088095Y-76407200D02*
X189230952Y-76454819D01*
X189230952Y-76454819D02*
X189469047Y-76454819D01*
X189469047Y-76454819D02*
X189564285Y-76407200D01*
X189564285Y-76407200D02*
X189611904Y-76359580D01*
X189611904Y-76359580D02*
X189659523Y-76264342D01*
X189659523Y-76264342D02*
X189659523Y-76169104D01*
X189659523Y-76169104D02*
X189611904Y-76073866D01*
X189611904Y-76073866D02*
X189564285Y-76026247D01*
X189564285Y-76026247D02*
X189469047Y-75978628D01*
X189469047Y-75978628D02*
X189278571Y-75931009D01*
X189278571Y-75931009D02*
X189183333Y-75883390D01*
X189183333Y-75883390D02*
X189135714Y-75835771D01*
X189135714Y-75835771D02*
X189088095Y-75740533D01*
X189088095Y-75740533D02*
X189088095Y-75645295D01*
X189088095Y-75645295D02*
X189135714Y-75550057D01*
X189135714Y-75550057D02*
X189183333Y-75502438D01*
X189183333Y-75502438D02*
X189278571Y-75454819D01*
X189278571Y-75454819D02*
X189516666Y-75454819D01*
X189516666Y-75454819D02*
X189659523Y-75502438D01*
X190135714Y-76454819D02*
X190326190Y-76454819D01*
X190326190Y-76454819D02*
X190421428Y-76407200D01*
X190421428Y-76407200D02*
X190469047Y-76359580D01*
X190469047Y-76359580D02*
X190564285Y-76216723D01*
X190564285Y-76216723D02*
X190611904Y-76026247D01*
X190611904Y-76026247D02*
X190611904Y-75645295D01*
X190611904Y-75645295D02*
X190564285Y-75550057D01*
X190564285Y-75550057D02*
X190516666Y-75502438D01*
X190516666Y-75502438D02*
X190421428Y-75454819D01*
X190421428Y-75454819D02*
X190230952Y-75454819D01*
X190230952Y-75454819D02*
X190135714Y-75502438D01*
X190135714Y-75502438D02*
X190088095Y-75550057D01*
X190088095Y-75550057D02*
X190040476Y-75645295D01*
X190040476Y-75645295D02*
X190040476Y-75883390D01*
X190040476Y-75883390D02*
X190088095Y-75978628D01*
X190088095Y-75978628D02*
X190135714Y-76026247D01*
X190135714Y-76026247D02*
X190230952Y-76073866D01*
X190230952Y-76073866D02*
X190421428Y-76073866D01*
X190421428Y-76073866D02*
X190516666Y-76026247D01*
X190516666Y-76026247D02*
X190564285Y-75978628D01*
X190564285Y-75978628D02*
X190611904Y-75883390D01*
X225088095Y-83907200D02*
X225230952Y-83954819D01*
X225230952Y-83954819D02*
X225469047Y-83954819D01*
X225469047Y-83954819D02*
X225564285Y-83907200D01*
X225564285Y-83907200D02*
X225611904Y-83859580D01*
X225611904Y-83859580D02*
X225659523Y-83764342D01*
X225659523Y-83764342D02*
X225659523Y-83669104D01*
X225659523Y-83669104D02*
X225611904Y-83573866D01*
X225611904Y-83573866D02*
X225564285Y-83526247D01*
X225564285Y-83526247D02*
X225469047Y-83478628D01*
X225469047Y-83478628D02*
X225278571Y-83431009D01*
X225278571Y-83431009D02*
X225183333Y-83383390D01*
X225183333Y-83383390D02*
X225135714Y-83335771D01*
X225135714Y-83335771D02*
X225088095Y-83240533D01*
X225088095Y-83240533D02*
X225088095Y-83145295D01*
X225088095Y-83145295D02*
X225135714Y-83050057D01*
X225135714Y-83050057D02*
X225183333Y-83002438D01*
X225183333Y-83002438D02*
X225278571Y-82954819D01*
X225278571Y-82954819D02*
X225516666Y-82954819D01*
X225516666Y-82954819D02*
X225659523Y-83002438D01*
X225992857Y-82954819D02*
X226659523Y-82954819D01*
X226659523Y-82954819D02*
X226230952Y-83954819D01*
X206611905Y-100907200D02*
X206754762Y-100954819D01*
X206754762Y-100954819D02*
X206992857Y-100954819D01*
X206992857Y-100954819D02*
X207088095Y-100907200D01*
X207088095Y-100907200D02*
X207135714Y-100859580D01*
X207135714Y-100859580D02*
X207183333Y-100764342D01*
X207183333Y-100764342D02*
X207183333Y-100669104D01*
X207183333Y-100669104D02*
X207135714Y-100573866D01*
X207135714Y-100573866D02*
X207088095Y-100526247D01*
X207088095Y-100526247D02*
X206992857Y-100478628D01*
X206992857Y-100478628D02*
X206802381Y-100431009D01*
X206802381Y-100431009D02*
X206707143Y-100383390D01*
X206707143Y-100383390D02*
X206659524Y-100335771D01*
X206659524Y-100335771D02*
X206611905Y-100240533D01*
X206611905Y-100240533D02*
X206611905Y-100145295D01*
X206611905Y-100145295D02*
X206659524Y-100050057D01*
X206659524Y-100050057D02*
X206707143Y-100002438D01*
X206707143Y-100002438D02*
X206802381Y-99954819D01*
X206802381Y-99954819D02*
X207040476Y-99954819D01*
X207040476Y-99954819D02*
X207183333Y-100002438D01*
X208135714Y-100954819D02*
X207564286Y-100954819D01*
X207850000Y-100954819D02*
X207850000Y-99954819D01*
X207850000Y-99954819D02*
X207754762Y-100097676D01*
X207754762Y-100097676D02*
X207659524Y-100192914D01*
X207659524Y-100192914D02*
X207564286Y-100240533D01*
X208992857Y-100288152D02*
X208992857Y-100954819D01*
X208754762Y-99907200D02*
X208516667Y-100621485D01*
X208516667Y-100621485D02*
X209135714Y-100621485D01*
X207088095Y-66907200D02*
X207230952Y-66954819D01*
X207230952Y-66954819D02*
X207469047Y-66954819D01*
X207469047Y-66954819D02*
X207564285Y-66907200D01*
X207564285Y-66907200D02*
X207611904Y-66859580D01*
X207611904Y-66859580D02*
X207659523Y-66764342D01*
X207659523Y-66764342D02*
X207659523Y-66669104D01*
X207659523Y-66669104D02*
X207611904Y-66573866D01*
X207611904Y-66573866D02*
X207564285Y-66526247D01*
X207564285Y-66526247D02*
X207469047Y-66478628D01*
X207469047Y-66478628D02*
X207278571Y-66431009D01*
X207278571Y-66431009D02*
X207183333Y-66383390D01*
X207183333Y-66383390D02*
X207135714Y-66335771D01*
X207135714Y-66335771D02*
X207088095Y-66240533D01*
X207088095Y-66240533D02*
X207088095Y-66145295D01*
X207088095Y-66145295D02*
X207135714Y-66050057D01*
X207135714Y-66050057D02*
X207183333Y-66002438D01*
X207183333Y-66002438D02*
X207278571Y-65954819D01*
X207278571Y-65954819D02*
X207516666Y-65954819D01*
X207516666Y-65954819D02*
X207659523Y-66002438D01*
X208040476Y-66050057D02*
X208088095Y-66002438D01*
X208088095Y-66002438D02*
X208183333Y-65954819D01*
X208183333Y-65954819D02*
X208421428Y-65954819D01*
X208421428Y-65954819D02*
X208516666Y-66002438D01*
X208516666Y-66002438D02*
X208564285Y-66050057D01*
X208564285Y-66050057D02*
X208611904Y-66145295D01*
X208611904Y-66145295D02*
X208611904Y-66240533D01*
X208611904Y-66240533D02*
X208564285Y-66383390D01*
X208564285Y-66383390D02*
X207992857Y-66954819D01*
X207992857Y-66954819D02*
X208611904Y-66954819D01*
X107720718Y-110858075D02*
X107869673Y-110880164D01*
X107869673Y-110880164D02*
X108104151Y-110838819D01*
X108104151Y-110838819D02*
X108189674Y-110775385D01*
X108189674Y-110775385D02*
X108228300Y-110720221D01*
X108228300Y-110720221D02*
X108258658Y-110618161D01*
X108258658Y-110618161D02*
X108242120Y-110524369D01*
X108242120Y-110524369D02*
X108178687Y-110438847D01*
X108178687Y-110438847D02*
X108123522Y-110400221D01*
X108123522Y-110400221D02*
X108021462Y-110369863D01*
X108021462Y-110369863D02*
X107825610Y-110356043D01*
X107825610Y-110356043D02*
X107723550Y-110325685D01*
X107723550Y-110325685D02*
X107668386Y-110287059D01*
X107668386Y-110287059D02*
X107604952Y-110201537D01*
X107604952Y-110201537D02*
X107588414Y-110107745D01*
X107588414Y-110107745D02*
X107618772Y-110005685D01*
X107618772Y-110005685D02*
X107657399Y-109950521D01*
X107657399Y-109950521D02*
X107742921Y-109887087D01*
X107742921Y-109887087D02*
X107977399Y-109845742D01*
X107977399Y-109845742D02*
X108126355Y-109867831D01*
X108446355Y-109763053D02*
X108854481Y-110706516D01*
X108854481Y-110706516D02*
X108918029Y-109970006D01*
X108918029Y-109970006D02*
X109229646Y-110640364D01*
X109229646Y-110640364D02*
X109290476Y-109614211D01*
X110355140Y-110441909D02*
X109792393Y-110541136D01*
X110073767Y-110491523D02*
X109900119Y-109506715D01*
X109900119Y-109506715D02*
X109831134Y-109663940D01*
X109831134Y-109663940D02*
X109753881Y-109774269D01*
X109753881Y-109774269D02*
X109668359Y-109837702D01*
X170611905Y-86907200D02*
X170754762Y-86954819D01*
X170754762Y-86954819D02*
X170992857Y-86954819D01*
X170992857Y-86954819D02*
X171088095Y-86907200D01*
X171088095Y-86907200D02*
X171135714Y-86859580D01*
X171135714Y-86859580D02*
X171183333Y-86764342D01*
X171183333Y-86764342D02*
X171183333Y-86669104D01*
X171183333Y-86669104D02*
X171135714Y-86573866D01*
X171135714Y-86573866D02*
X171088095Y-86526247D01*
X171088095Y-86526247D02*
X170992857Y-86478628D01*
X170992857Y-86478628D02*
X170802381Y-86431009D01*
X170802381Y-86431009D02*
X170707143Y-86383390D01*
X170707143Y-86383390D02*
X170659524Y-86335771D01*
X170659524Y-86335771D02*
X170611905Y-86240533D01*
X170611905Y-86240533D02*
X170611905Y-86145295D01*
X170611905Y-86145295D02*
X170659524Y-86050057D01*
X170659524Y-86050057D02*
X170707143Y-86002438D01*
X170707143Y-86002438D02*
X170802381Y-85954819D01*
X170802381Y-85954819D02*
X171040476Y-85954819D01*
X171040476Y-85954819D02*
X171183333Y-86002438D01*
X172135714Y-86954819D02*
X171564286Y-86954819D01*
X171850000Y-86954819D02*
X171850000Y-85954819D01*
X171850000Y-85954819D02*
X171754762Y-86097676D01*
X171754762Y-86097676D02*
X171659524Y-86192914D01*
X171659524Y-86192914D02*
X171564286Y-86240533D01*
X172992857Y-85954819D02*
X172802381Y-85954819D01*
X172802381Y-85954819D02*
X172707143Y-86002438D01*
X172707143Y-86002438D02*
X172659524Y-86050057D01*
X172659524Y-86050057D02*
X172564286Y-86192914D01*
X172564286Y-86192914D02*
X172516667Y-86383390D01*
X172516667Y-86383390D02*
X172516667Y-86764342D01*
X172516667Y-86764342D02*
X172564286Y-86859580D01*
X172564286Y-86859580D02*
X172611905Y-86907200D01*
X172611905Y-86907200D02*
X172707143Y-86954819D01*
X172707143Y-86954819D02*
X172897619Y-86954819D01*
X172897619Y-86954819D02*
X172992857Y-86907200D01*
X172992857Y-86907200D02*
X173040476Y-86859580D01*
X173040476Y-86859580D02*
X173088095Y-86764342D01*
X173088095Y-86764342D02*
X173088095Y-86526247D01*
X173088095Y-86526247D02*
X173040476Y-86431009D01*
X173040476Y-86431009D02*
X172992857Y-86383390D01*
X172992857Y-86383390D02*
X172897619Y-86335771D01*
X172897619Y-86335771D02*
X172707143Y-86335771D01*
X172707143Y-86335771D02*
X172611905Y-86383390D01*
X172611905Y-86383390D02*
X172564286Y-86431009D01*
X172564286Y-86431009D02*
X172516667Y-86526247D01*
X133346775Y-104568448D02*
X133493239Y-104603435D01*
X133493239Y-104603435D02*
X133730428Y-104582684D01*
X133730428Y-104582684D02*
X133821153Y-104526945D01*
X133821153Y-104526945D02*
X133864441Y-104475357D01*
X133864441Y-104475357D02*
X133903578Y-104376331D01*
X133903578Y-104376331D02*
X133895278Y-104281456D01*
X133895278Y-104281456D02*
X133839539Y-104190730D01*
X133839539Y-104190730D02*
X133787951Y-104147443D01*
X133787951Y-104147443D02*
X133688925Y-104108305D01*
X133688925Y-104108305D02*
X133495023Y-104077469D01*
X133495023Y-104077469D02*
X133395998Y-104038331D01*
X133395998Y-104038331D02*
X133344409Y-103995044D01*
X133344409Y-103995044D02*
X133288671Y-103904318D01*
X133288671Y-103904318D02*
X133280370Y-103809443D01*
X133280370Y-103809443D02*
X133319508Y-103710417D01*
X133319508Y-103710417D02*
X133362795Y-103658828D01*
X133362795Y-103658828D02*
X133453521Y-103603090D01*
X133453521Y-103603090D02*
X133690710Y-103582339D01*
X133690710Y-103582339D02*
X133837174Y-103617326D01*
X134868936Y-104483077D02*
X134299682Y-104532880D01*
X134584309Y-104507979D02*
X134497153Y-103511784D01*
X134497153Y-103511784D02*
X134414728Y-103662398D01*
X134414728Y-103662398D02*
X134328153Y-103765574D01*
X134328153Y-103765574D02*
X134237428Y-103821313D01*
X135388387Y-103864020D02*
X135289361Y-103824882D01*
X135289361Y-103824882D02*
X135237773Y-103781595D01*
X135237773Y-103781595D02*
X135182035Y-103690869D01*
X135182035Y-103690869D02*
X135177884Y-103643432D01*
X135177884Y-103643432D02*
X135217022Y-103544406D01*
X135217022Y-103544406D02*
X135260309Y-103492818D01*
X135260309Y-103492818D02*
X135351035Y-103437079D01*
X135351035Y-103437079D02*
X135540786Y-103420478D01*
X135540786Y-103420478D02*
X135639812Y-103459615D01*
X135639812Y-103459615D02*
X135691400Y-103502903D01*
X135691400Y-103502903D02*
X135747138Y-103593628D01*
X135747138Y-103593628D02*
X135751289Y-103641066D01*
X135751289Y-103641066D02*
X135712151Y-103740092D01*
X135712151Y-103740092D02*
X135668864Y-103791680D01*
X135668864Y-103791680D02*
X135578138Y-103847419D01*
X135578138Y-103847419D02*
X135388387Y-103864020D01*
X135388387Y-103864020D02*
X135297662Y-103919758D01*
X135297662Y-103919758D02*
X135254374Y-103971346D01*
X135254374Y-103971346D02*
X135215237Y-104070372D01*
X135215237Y-104070372D02*
X135231838Y-104260124D01*
X135231838Y-104260124D02*
X135287576Y-104350849D01*
X135287576Y-104350849D02*
X135339164Y-104394137D01*
X135339164Y-104394137D02*
X135438190Y-104433274D01*
X135438190Y-104433274D02*
X135627942Y-104416673D01*
X135627942Y-104416673D02*
X135718667Y-104360934D01*
X135718667Y-104360934D02*
X135761955Y-104309346D01*
X135761955Y-104309346D02*
X135801092Y-104210320D01*
X135801092Y-104210320D02*
X135784491Y-104020569D01*
X135784491Y-104020569D02*
X135728752Y-103929844D01*
X135728752Y-103929844D02*
X135677164Y-103886556D01*
X135677164Y-103886556D02*
X135578138Y-103847419D01*
D11*
%TO.C,S12*%
X125595607Y-89111948D02*
X126920376Y-104254107D01*
X126920376Y-104254107D02*
X142062535Y-102929338D01*
X140737766Y-87787179D02*
X125595607Y-89111948D01*
X142062535Y-102929338D02*
X140737766Y-87787179D01*
%TO.C,S20*%
X110045735Y-128835187D02*
X112685187Y-143804265D01*
X112685187Y-143804265D02*
X127654265Y-141164813D01*
X125014813Y-126195735D02*
X110045735Y-128835187D01*
X127654265Y-141164813D02*
X125014813Y-126195735D01*
%TO.C,S17*%
X144616536Y-104591305D02*
X145941305Y-119733464D01*
X145941305Y-119733464D02*
X161083464Y-118408695D01*
X159758695Y-103266536D02*
X144616536Y-104591305D01*
X161083464Y-118408695D02*
X159758695Y-103266536D01*
%TO.C,S10*%
X164250000Y-71400000D02*
X164250000Y-86600000D01*
X164250000Y-86600000D02*
X179450000Y-86600000D01*
X179450000Y-71400000D02*
X164250000Y-71400000D01*
X179450000Y-86600000D02*
X179450000Y-71400000D01*
%TO.C,S5*%
X141360497Y-70878511D02*
X142685266Y-86020670D01*
X142685266Y-86020670D02*
X157827425Y-84695901D01*
X156502656Y-69553742D02*
X141360497Y-70878511D01*
X157827425Y-84695901D02*
X156502656Y-69553742D01*
%TO.C,S1*%
X218250000Y-68400000D02*
X218250000Y-83600000D01*
X218250000Y-83600000D02*
X233450000Y-83600000D01*
X233450000Y-68400000D02*
X218250000Y-68400000D01*
X233450000Y-83600000D02*
X233450000Y-68400000D01*
%TO.C,S11*%
X143095607Y-88111948D02*
X144420376Y-103254107D01*
X144420376Y-103254107D02*
X159562535Y-101929338D01*
X158237766Y-86787179D02*
X143095607Y-88111948D01*
X159562535Y-101929338D02*
X158237766Y-86787179D01*
%TO.C,S19*%
X127323098Y-125835187D02*
X129962550Y-140804265D01*
X129962550Y-140804265D02*
X144931628Y-138164813D01*
X142292176Y-123195735D02*
X127323098Y-125835187D01*
X144931628Y-138164813D02*
X142292176Y-123195735D01*
%TO.C,S8*%
X200250000Y-84900000D02*
X200250000Y-100100000D01*
X200250000Y-100100000D02*
X215450000Y-100100000D01*
X215450000Y-84900000D02*
X200250000Y-84900000D01*
X215450000Y-100100000D02*
X215450000Y-84900000D01*
%TO.C,S4*%
X164250000Y-53600000D02*
X164250000Y-68800000D01*
X164250000Y-68800000D02*
X179450000Y-68800000D01*
X179450000Y-53600000D02*
X164250000Y-53600000D01*
X179450000Y-68800000D02*
X179450000Y-53600000D01*
%TO.C,S6*%
X123616536Y-72591305D02*
X124941305Y-87733464D01*
X124941305Y-87733464D02*
X140083464Y-86408695D01*
X138758695Y-71266536D02*
X123616536Y-72591305D01*
X140083464Y-86408695D02*
X138758695Y-71266536D01*
%TO.C,S13*%
X218025000Y-101950000D02*
X218025000Y-117150000D01*
X218025000Y-117150000D02*
X233225000Y-117150000D01*
X233225000Y-101950000D02*
X218025000Y-101950000D01*
X233225000Y-117150000D02*
X233225000Y-101950000D01*
%TO.C,S15*%
X182250000Y-93900000D02*
X182250000Y-109100000D01*
X182250000Y-109100000D02*
X197450000Y-109100000D01*
X197450000Y-93900000D02*
X182250000Y-93900000D01*
X197450000Y-109100000D02*
X197450000Y-93900000D01*
%TO.C,J1*%
X94797957Y-75470612D02*
X96693329Y-75338075D01*
X95791291Y-89675923D02*
X94797957Y-75470612D01*
X96414303Y-71347819D02*
X102639104Y-70912539D01*
X96693329Y-75338075D02*
X96414303Y-71347819D01*
X102639104Y-70912539D02*
X102918129Y-74902794D01*
X102918129Y-74902794D02*
X103217398Y-74881868D01*
X103217398Y-74881868D02*
X104210730Y-89087180D01*
X104210730Y-89087180D02*
X95791291Y-89675923D01*
%TO.C,S3*%
X181750000Y-60400000D02*
X181750000Y-75600000D01*
X181750000Y-75600000D02*
X196950000Y-75600000D01*
X196950000Y-60400000D02*
X181750000Y-60400000D01*
X196950000Y-75600000D02*
X196950000Y-60400000D01*
%TO.C,S9*%
X182250000Y-77400000D02*
X182250000Y-92600000D01*
X182250000Y-92600000D02*
X197450000Y-92600000D01*
X197450000Y-77400000D02*
X182250000Y-77400000D01*
X197450000Y-92600000D02*
X197450000Y-77400000D01*
%TO.C,S7*%
X218250000Y-84900000D02*
X218250000Y-100100000D01*
X218250000Y-100100000D02*
X233450000Y-100100000D01*
X233450000Y-84900000D02*
X218250000Y-84900000D01*
X233450000Y-100100000D02*
X233450000Y-84900000D01*
%TO.C,S14*%
X200250000Y-101900000D02*
X200250000Y-117100000D01*
X200250000Y-117100000D02*
X215450000Y-117100000D01*
X215450000Y-101900000D02*
X200250000Y-101900000D01*
X215450000Y-117100000D02*
X215450000Y-101900000D01*
%TO.C,S2*%
X200250000Y-67900000D02*
X200250000Y-83100000D01*
X200250000Y-83100000D02*
X215450000Y-83100000D01*
X215450000Y-67900000D02*
X200250000Y-67900000D01*
X215450000Y-83100000D02*
X215450000Y-67900000D01*
%TO.C,SW1*%
X106448490Y-113816744D02*
X107039374Y-113712554D01*
X106796029Y-114060093D02*
X106448490Y-113816744D01*
X107039374Y-113712554D02*
X106796029Y-114060093D01*
X107810097Y-111748887D02*
X109859144Y-123369620D01*
X111847806Y-111036931D02*
X107810097Y-111748887D01*
X113896859Y-122657662D02*
X109859144Y-123369620D01*
X114349544Y-116586824D02*
X115334352Y-116413176D01*
X114755124Y-116007596D02*
X114928772Y-116992404D01*
X115787036Y-110342337D02*
X119824752Y-109630380D01*
X119824752Y-109630380D02*
X120241510Y-111993918D01*
X120623536Y-114160497D02*
X121075016Y-116720997D01*
X121457041Y-118887574D02*
X121873799Y-121251113D01*
X121873799Y-121251113D02*
X117836090Y-121963069D01*
X117841946Y-116500000D02*
G75*
G02*
X111841950Y-116500000I-2999998J0D01*
G01*
X111841950Y-116500000D02*
G75*
G02*
X117841946Y-116500000I2999998J0D01*
G01*
%TO.C,S16*%
X164250000Y-87900000D02*
X164250000Y-103100000D01*
X164250000Y-103100000D02*
X179450000Y-103100000D01*
X179450000Y-87900000D02*
X164250000Y-87900000D01*
X179450000Y-103100000D02*
X179450000Y-87900000D01*
%TO.C,S18*%
X127095607Y-106111948D02*
X128420376Y-121254107D01*
X128420376Y-121254107D02*
X143562535Y-119929338D01*
X142237766Y-104787179D02*
X127095607Y-106111948D01*
X143562535Y-119929338D02*
X142237766Y-104787179D01*
%TD*%
M02*
