%TF.GenerationSoftware,KiCad,Pcbnew,9.0.6-1.fc43*%
%TF.CreationDate,2026-01-15T13:14:43-05:00*%
%TF.ProjectId,Right,52696768-742e-46b6-9963-61645f706362,rev?*%
%TF.SameCoordinates,Original*%
%TF.FileFunction,Copper,L1,Top*%
%TF.FilePolarity,Positive*%
%FSLAX46Y46*%
G04 Gerber Fmt 4.6, Leading zero omitted, Abs format (unit mm)*
G04 Created by KiCad (PCBNEW 9.0.6-1.fc43) date 2026-01-15 13:14:43*
%MOMM*%
%LPD*%
G01*
G04 APERTURE LIST*
G04 Aperture macros list*
%AMHorizOval*
0 Thick line with rounded ends*
0 $1 width*
0 $2 $3 position (X,Y) of the first rounded end (center of the circle)*
0 $4 $5 position (X,Y) of the second rounded end (center of the circle)*
0 Add line between two ends*
20,1,$1,$2,$3,$4,$5,0*
0 Add two circle primitives to create the rounded ends*
1,1,$1,$2,$3*
1,1,$1,$4,$5*%
%AMRotRect*
0 Rectangle, with rotation*
0 The origin of the aperture is its center*
0 $1 length*
0 $2 width*
0 $3 Rotation angle, in degrees counterclockwise*
0 Add horizontal line*
21,1,$1,$2,0,0,$3*%
G04 Aperture macros list end*
%TA.AperFunction,ComponentPad*%
%ADD10C,2.800000*%
%TD*%
%TA.AperFunction,ComponentPad*%
%ADD11RotRect,2.000000X2.000000X10.000000*%
%TD*%
%TA.AperFunction,ComponentPad*%
%ADD12C,2.000000*%
%TD*%
%TA.AperFunction,ComponentPad*%
%ADD13RotRect,3.200000X2.000000X10.000000*%
%TD*%
%TA.AperFunction,ComponentPad*%
%ADD14RotRect,1.600000X1.600000X4.000000*%
%TD*%
%TA.AperFunction,ComponentPad*%
%ADD15HorizOval,1.600000X0.000000X0.000000X0.000000X0.000000X0*%
%TD*%
%TA.AperFunction,ComponentPad*%
%ADD16R,2.250000X2.250000*%
%TD*%
%TA.AperFunction,ComponentPad*%
%ADD17C,2.250000*%
%TD*%
%TA.AperFunction,ViaPad*%
%ADD18C,0.600000*%
%TD*%
%TA.AperFunction,Conductor*%
%ADD19C,0.200000*%
%TD*%
G04 APERTURE END LIST*
D10*
%TO.P,J1,R*%
%TO.N,Serial*%
X101546203Y-84241244D03*
%TO.P,J1,S*%
%TO.N,VCC*%
X99000000Y-76500000D03*
%TO.P,J1,T*%
%TO.N,GND*%
X101162543Y-78754641D03*
%TD*%
D11*
%TO.P,SW1,A,A*%
%TO.N,Net-(U1-4{slash}PD4)*%
X107021771Y-115340340D03*
D12*
%TO.P,SW1,B,B*%
%TO.N,Net-(U1-5{slash}PC6)*%
X107890008Y-120264380D03*
%TO.P,SW1,C,C*%
%TO.N,GND*%
X107455890Y-117802361D03*
D13*
%TO.P,SW1,MP,MP*%
X113869517Y-110985076D03*
X115814378Y-122014923D03*
D12*
%TO.P,SW1,S1,S1*%
%TO.N,Net-(U1-A3{slash}PF4)*%
X122169723Y-117746483D03*
%TO.P,SW1,S2,S2*%
%TO.N,GND*%
X121301483Y-112822444D03*
%TD*%
D14*
%TO.P,U1,1,TX0/PD3*%
%TO.N,Serial*%
X120350000Y-75898562D03*
D15*
%TO.P,U1,2,RX1/PD2*%
%TO.N,unconnected-(U1-RX1{slash}PD2-Pad2)*%
X120527181Y-78432375D03*
%TO.P,U1,3,GND*%
%TO.N,GND*%
X120704362Y-80966186D03*
%TO.P,U1,4,GND*%
X120881543Y-83500000D03*
%TO.P,U1,5,2/PD1*%
%TO.N,unconnected-(U1-2{slash}PD1-Pad5)*%
X121058726Y-86033812D03*
%TO.P,U1,6,3/PD0*%
%TO.N,unconnected-(U1-3{slash}PD0-Pad6)*%
X121235906Y-88567624D03*
%TO.P,U1,7,4/PD4*%
%TO.N,Net-(U1-4{slash}PD4)*%
X121413087Y-91101439D03*
%TO.P,U1,8,5/PC6*%
%TO.N,Net-(U1-5{slash}PC6)*%
X121590269Y-93635251D03*
%TO.P,U1,9,6/PD7*%
%TO.N,5 Column*%
X121767452Y-96169063D03*
%TO.P,U1,10,7/PE6*%
%TO.N,4 Column*%
X121944633Y-98702876D03*
%TO.P,U1,11,8/PB4*%
%TO.N,3 Column*%
X122121814Y-101236689D03*
%TO.P,U1,12,9/PB5*%
%TO.N,2 Column*%
X122298995Y-103770500D03*
%TO.P,U1,13,10/PB6*%
%TO.N,unconnected-(U1-10{slash}PB6-Pad13)*%
X107096119Y-104833590D03*
%TO.P,U1,14,16/PB2*%
%TO.N,0 Column*%
X106918937Y-102299777D03*
%TO.P,U1,15,14/PB3*%
%TO.N,1 Column*%
X106741757Y-99765965D03*
%TO.P,U1,16,15/PB1*%
%TO.N,3 Row*%
X106564575Y-97232152D03*
%TO.P,U1,17,A0/PF7*%
%TO.N,2 Row*%
X106387395Y-94698339D03*
%TO.P,U1,18,A1/PF6*%
%TO.N,1 Row*%
X106210211Y-92164526D03*
%TO.P,U1,19,A2/PF5*%
%TO.N,0 Row*%
X106033029Y-89630714D03*
%TO.P,U1,20,A3/PF4*%
%TO.N,Net-(U1-A3{slash}PF4)*%
X105855849Y-87096901D03*
%TO.P,U1,21,VCC*%
%TO.N,VCC*%
X105678667Y-84563088D03*
%TO.P,U1,22,RST*%
%TO.N,RST*%
X105501487Y-82029276D03*
%TO.P,U1,23,GND*%
%TO.N,GND*%
X105324305Y-79495463D03*
%TO.P,U1,24,RAW*%
%TO.N,unconnected-(U1-RAW-Pad24)*%
X105147123Y-76961651D03*
%TD*%
D16*
%TO.P,SW2,1,1*%
%TO.N,GND*%
X153350000Y-60500000D03*
D17*
%TO.P,SW2,2,2*%
%TO.N,RST*%
X146850000Y-60500000D03*
%TD*%
D18*
%TO.N,0 Row*%
X128500000Y-85000000D03*
%TO.N,1 Row*%
X130500000Y-104000000D03*
%TO.N,0 Column*%
X222350000Y-70000000D03*
X222000000Y-103500000D03*
X222350000Y-86500000D03*
%TO.N,1 Column*%
X204500000Y-77500000D03*
X204350000Y-86500000D03*
X204350000Y-103500000D03*
%TO.N,2 Column*%
X186350000Y-95500000D03*
X124000000Y-99500000D03*
X185500000Y-63000000D03*
X186350000Y-79000000D03*
%TO.N,3 Column*%
X147900000Y-97500000D03*
X149100000Y-97500000D03*
X168350000Y-73000000D03*
X168500000Y-67500000D03*
X119000000Y-99000000D03*
X168350000Y-89500000D03*
%TO.N,4 Column*%
X143000000Y-119000000D03*
X147319457Y-89348521D03*
X145500000Y-112000000D03*
X145584347Y-72115084D03*
X126500000Y-110500000D03*
X148500000Y-102000000D03*
%TO.N,5 Column*%
X114361288Y-129698922D03*
X127500000Y-112500000D03*
%TO.N,GND*%
X118000000Y-104000000D03*
X119500000Y-110000000D03*
X116500000Y-107000000D03*
%TO.N,Net-(U1-5{slash}PC6)*%
X109500000Y-99500000D03*
X110500000Y-97500000D03*
X111418793Y-94500000D03*
X109000000Y-107500000D03*
%TO.N,Net-(U1-A3{slash}PF4)*%
X110500000Y-101000000D03*
X112018793Y-99481207D03*
%TD*%
D19*
%TO.N,0 Row*%
X126033376Y-87466624D02*
X108197119Y-87466624D01*
X128500000Y-85000000D02*
X126033376Y-87466624D01*
X108197119Y-87466624D02*
X106033029Y-89630714D01*
%TO.N,1 Row*%
X130500000Y-104000000D02*
X126635689Y-100135689D01*
X126635689Y-100135689D02*
X114181374Y-100135689D01*
X114181374Y-100135689D02*
X106210211Y-92164526D01*
%TO.N,0 Column*%
X113638254Y-109019094D02*
X106918937Y-102299777D01*
X135591917Y-109019094D02*
X113638254Y-109019094D01*
X210914093Y-103500000D02*
X207914093Y-106500000D01*
X153112846Y-107498451D02*
X146498451Y-107498451D01*
X159374163Y-106500000D02*
X158276846Y-105402683D01*
X144500000Y-105500000D02*
X139111011Y-105500000D01*
X155208614Y-105402683D02*
X153112846Y-107498451D01*
X222350000Y-86500000D02*
X222350000Y-70000000D01*
X158276846Y-105402683D02*
X155208614Y-105402683D01*
X222000000Y-103500000D02*
X222000000Y-86850000D01*
X139111011Y-105500000D02*
X135591917Y-109019094D01*
X207914093Y-106500000D02*
X159374163Y-106500000D01*
X222000000Y-86850000D02*
X222350000Y-86500000D01*
X222000000Y-103500000D02*
X210914093Y-103500000D01*
X146498451Y-107498451D02*
X144500000Y-105500000D01*
%TO.N,1 Column*%
X109313481Y-102337689D02*
X106741757Y-99765965D01*
X204350000Y-103500000D02*
X204274000Y-103576000D01*
X122577864Y-102337689D02*
X109313481Y-102337689D01*
X130748943Y-104601000D02*
X124841175Y-104601000D01*
X204500000Y-77500000D02*
X204500000Y-86350000D01*
X204274000Y-103576000D02*
X131773943Y-103576000D01*
X204350000Y-86500000D02*
X204350000Y-103500000D01*
X204500000Y-86350000D02*
X204350000Y-86500000D01*
X131773943Y-103576000D02*
X130748943Y-104601000D01*
X124841175Y-104601000D02*
X122577864Y-102337689D01*
%TO.N,2 Column*%
X185500000Y-78150000D02*
X186350000Y-79000000D01*
X129668100Y-102601000D02*
X126567100Y-99500000D01*
X185500000Y-63000000D02*
X185500000Y-78150000D01*
X186350000Y-95500000D02*
X179249000Y-102601000D01*
X186350000Y-79000000D02*
X186350000Y-95500000D01*
X179249000Y-102601000D02*
X129668100Y-102601000D01*
X126567100Y-99500000D02*
X124000000Y-99500000D01*
%TO.N,3 Column*%
X160350000Y-97500000D02*
X149100000Y-97500000D01*
X122400683Y-97601876D02*
X120398124Y-97601876D01*
X147303357Y-98096643D02*
X122895450Y-98096643D01*
X168350000Y-89500000D02*
X160350000Y-97500000D01*
X168500000Y-67500000D02*
X168500000Y-72850000D01*
X120398124Y-97601876D02*
X119000000Y-99000000D01*
X168500000Y-72850000D02*
X168350000Y-73000000D01*
X147900000Y-97500000D02*
X147303357Y-98096643D01*
X122895450Y-98096643D02*
X122400683Y-97601876D01*
X168350000Y-73000000D02*
X168350000Y-89500000D01*
%TO.N,4 Column*%
X143000000Y-114500000D02*
X139744335Y-114500000D01*
X148500000Y-90529064D02*
X147319457Y-89348521D01*
X135744335Y-110500000D02*
X126500000Y-110500000D01*
X147319457Y-89348521D02*
X147319457Y-73850194D01*
X139744335Y-114500000D02*
X135744335Y-110500000D01*
X143000000Y-114500000D02*
X145500000Y-112000000D01*
X147319457Y-73850194D02*
X145584347Y-72115084D01*
X148500000Y-102000000D02*
X148500000Y-90529064D01*
X143000000Y-119000000D02*
X143000000Y-114500000D01*
%TO.N,5 Column*%
X114663123Y-129698922D02*
X114361288Y-129698922D01*
X127500000Y-112500000D02*
X127500000Y-116862045D01*
X127500000Y-116862045D02*
X114663123Y-129698922D01*
%TO.N,GND*%
X101162543Y-78754641D02*
X104583483Y-78754641D01*
X120704362Y-80966186D02*
X125614800Y-76055748D01*
X133069651Y-76055748D02*
X135722716Y-73402683D01*
X135722716Y-73402683D02*
X140447317Y-73402683D01*
X119464115Y-110985076D02*
X113869517Y-110985076D01*
X118000000Y-105500000D02*
X118000000Y-104000000D01*
X140447317Y-73402683D02*
X153350000Y-60500000D01*
X125614800Y-76055748D02*
X133069651Y-76055748D01*
X104583483Y-78754641D02*
X105324305Y-79495463D01*
X121301483Y-112822444D02*
X119464115Y-110985076D01*
X119500000Y-110949191D02*
X119500000Y-110000000D01*
X119464115Y-110985076D02*
X119500000Y-110949191D01*
X116500000Y-107000000D02*
X118000000Y-105500000D01*
%TO.N,Net-(U1-5{slash}PC6)*%
X109500000Y-98500000D02*
X110500000Y-97500000D01*
X112283542Y-93635251D02*
X121590269Y-93635251D01*
X107890008Y-120264380D02*
X109000000Y-119154388D01*
X111418793Y-94500000D02*
X112283542Y-93635251D01*
X109500000Y-99500000D02*
X109500000Y-98500000D01*
X109000000Y-119154388D02*
X109000000Y-107500000D01*
%TO.N,Net-(U1-A3{slash}PF4)*%
X112018793Y-99481207D02*
X110500000Y-101000000D01*
%TO.N,Net-(U1-4{slash}PD4)*%
X105109211Y-113427780D02*
X105109211Y-91708476D01*
X107021771Y-115340340D02*
X105109211Y-113427780D01*
X105109211Y-91708476D02*
X105754161Y-91063526D01*
X121375174Y-91063526D02*
X121413087Y-91101439D01*
X105754161Y-91063526D02*
X121375174Y-91063526D01*
%TO.N,RST*%
X105550204Y-82029276D02*
X117681076Y-69898404D01*
X122601596Y-69898404D02*
X132000000Y-60500000D01*
X105501487Y-82029276D02*
X105550204Y-82029276D01*
X132000000Y-60500000D02*
X146850000Y-60500000D01*
X117681076Y-69898404D02*
X122601596Y-69898404D01*
%TO.N,VCC*%
X99000000Y-79289463D02*
X104273625Y-84563088D01*
X104273625Y-84563088D02*
X105678667Y-84563088D01*
X99000000Y-76500000D02*
X99000000Y-79289463D01*
%TD*%
M02*
