%TF.GenerationSoftware,KiCad,Pcbnew,9.0.6-1.fc43*%
%TF.CreationDate,2026-01-15T13:14:43-05:00*%
%TF.ProjectId,Right,52696768-742e-46b6-9963-61645f706362,rev?*%
%TF.SameCoordinates,Original*%
%TF.FileFunction,Copper,L2,Bot*%
%TF.FilePolarity,Positive*%
%FSLAX46Y46*%
G04 Gerber Fmt 4.6, Leading zero omitted, Abs format (unit mm)*
G04 Created by KiCad (PCBNEW 9.0.6-1.fc43) date 2026-01-15 13:14:43*
%MOMM*%
%LPD*%
G01*
G04 APERTURE LIST*
G04 Aperture macros list*
%AMRoundRect*
0 Rectangle with rounded corners*
0 $1 Rounding radius*
0 $2 $3 $4 $5 $6 $7 $8 $9 X,Y pos of 4 corners*
0 Add a 4 corners polygon primitive as box body*
4,1,4,$2,$3,$4,$5,$6,$7,$8,$9,$2,$3,0*
0 Add four circle primitives for the rounded corners*
1,1,$1+$1,$2,$3*
1,1,$1+$1,$4,$5*
1,1,$1+$1,$6,$7*
1,1,$1+$1,$8,$9*
0 Add four rect primitives between the rounded corners*
20,1,$1+$1,$2,$3,$4,$5,0*
20,1,$1+$1,$4,$5,$6,$7,0*
20,1,$1+$1,$6,$7,$8,$9,0*
20,1,$1+$1,$8,$9,$2,$3,0*%
%AMHorizOval*
0 Thick line with rounded ends*
0 $1 width*
0 $2 $3 position (X,Y) of the first rounded end (center of the circle)*
0 $4 $5 position (X,Y) of the second rounded end (center of the circle)*
0 Add line between two ends*
20,1,$1,$2,$3,$4,$5,0*
0 Add two circle primitives to create the rounded ends*
1,1,$1,$2,$3*
1,1,$1,$4,$5*%
%AMRotRect*
0 Rectangle, with rotation*
0 The origin of the aperture is its center*
0 $1 length*
0 $2 width*
0 $3 Rotation angle, in degrees counterclockwise*
0 Add horizontal line*
21,1,$1,$2,0,0,$3*%
G04 Aperture macros list end*
%TA.AperFunction,SMDPad,CuDef*%
%ADD10RoundRect,0.250000X-0.933944X-1.085529X1.108255X-0.906860X0.933944X1.085529X-1.108255X0.906860X0*%
%TD*%
%TA.AperFunction,SMDPad,CuDef*%
%ADD11RoundRect,0.250000X-0.835780X-1.162797X1.183076X-0.806818X0.835780X1.162797X-1.183076X0.806818X0*%
%TD*%
%TA.AperFunction,SMDPad,CuDef*%
%ADD12RoundRect,0.250000X-1.025000X-1.000000X1.025000X-1.000000X1.025000X1.000000X-1.025000X1.000000X0*%
%TD*%
%TA.AperFunction,ComponentPad*%
%ADD13C,2.800000*%
%TD*%
%TA.AperFunction,ComponentPad*%
%ADD14RotRect,2.000000X2.000000X10.000000*%
%TD*%
%TA.AperFunction,ComponentPad*%
%ADD15C,2.000000*%
%TD*%
%TA.AperFunction,ComponentPad*%
%ADD16RotRect,3.200000X2.000000X10.000000*%
%TD*%
%TA.AperFunction,SMDPad,CuDef*%
%ADD17RoundRect,0.225000X0.225000X0.375000X-0.225000X0.375000X-0.225000X-0.375000X0.225000X-0.375000X0*%
%TD*%
%TA.AperFunction,ComponentPad*%
%ADD18RotRect,1.600000X1.600000X4.000000*%
%TD*%
%TA.AperFunction,ComponentPad*%
%ADD19HorizOval,1.600000X0.000000X0.000000X0.000000X0.000000X0*%
%TD*%
%TA.AperFunction,ComponentPad*%
%ADD20R,2.250000X2.250000*%
%TD*%
%TA.AperFunction,ComponentPad*%
%ADD21C,2.250000*%
%TD*%
%TA.AperFunction,ViaPad*%
%ADD22C,0.600000*%
%TD*%
%TA.AperFunction,Conductor*%
%ADD23C,0.200000*%
%TD*%
G04 APERTURE END LIST*
D10*
%TO.P,S12,1,1*%
%TO.N,5 Column*%
X129819457Y-90348521D03*
%TO.P,S12,2,2*%
%TO.N,Net-(D12-A)*%
X141965532Y-91494280D03*
%TD*%
D11*
%TO.P,S20,1,1*%
%TO.N,5 Column*%
X114361288Y-129698922D03*
%TO.P,S20,2,2*%
%TO.N,Net-(D20-A)*%
X126561000Y-129781721D03*
%TD*%
D10*
%TO.P,S17,1,1*%
%TO.N,4 Column*%
X148840386Y-105827878D03*
%TO.P,S17,2,2*%
%TO.N,Net-(D17-A)*%
X160986461Y-106973637D03*
%TD*%
D12*
%TO.P,S10,1,1*%
%TO.N,3 Column*%
X168350000Y-73000000D03*
%TO.P,S10,2,2*%
%TO.N,Net-(D10-A)*%
X180350000Y-75200000D03*
%TD*%
D10*
%TO.P,S5,1,1*%
%TO.N,4 Column*%
X145584347Y-72115084D03*
%TO.P,S5,2,2*%
%TO.N,Net-(D5-A)*%
X157730422Y-73260843D03*
%TD*%
D12*
%TO.P,S1,1,1*%
%TO.N,0 Column*%
X222350000Y-70000000D03*
%TO.P,S1,2,2*%
%TO.N,Net-(D1-A)*%
X234350000Y-72200000D03*
%TD*%
D10*
%TO.P,S11,1,1*%
%TO.N,4 Column*%
X147319457Y-89348521D03*
%TO.P,S11,2,2*%
%TO.N,Net-(D11-A)*%
X159465532Y-90494280D03*
%TD*%
D11*
%TO.P,S19,1,1*%
%TO.N,4 Column*%
X131638651Y-126698922D03*
%TO.P,S19,2,2*%
%TO.N,Net-(D19-A)*%
X143838363Y-126781721D03*
%TD*%
D12*
%TO.P,S8,1,1*%
%TO.N,1 Column*%
X204350000Y-86500000D03*
%TO.P,S8,2,2*%
%TO.N,Net-(D8-A)*%
X216350000Y-88700000D03*
%TD*%
%TO.P,S4,1,1*%
%TO.N,3 Column*%
X168350000Y-55200000D03*
%TO.P,S4,2,2*%
%TO.N,Net-(D4-A)*%
X180350000Y-57400000D03*
%TD*%
D10*
%TO.P,S6,1,1*%
%TO.N,5 Column*%
X127840386Y-73827878D03*
%TO.P,S6,2,2*%
%TO.N,Net-(D6-A)*%
X139986461Y-74973637D03*
%TD*%
D12*
%TO.P,S13,1,1*%
%TO.N,0 Column*%
X222125000Y-103550000D03*
%TO.P,S13,2,2*%
%TO.N,Net-(D13-A)*%
X234125000Y-105750000D03*
%TD*%
%TO.P,S15,1,1*%
%TO.N,2 Column*%
X186350000Y-95500000D03*
%TO.P,S15,2,2*%
%TO.N,Net-(D15-A)*%
X198350000Y-97700000D03*
%TD*%
D13*
%TO.P,J1,R*%
%TO.N,Serial*%
X101546203Y-84241244D03*
%TO.P,J1,S*%
%TO.N,VCC*%
X99000000Y-76500000D03*
%TO.P,J1,T*%
%TO.N,GND*%
X101162543Y-78754641D03*
%TD*%
D12*
%TO.P,S3,1,1*%
%TO.N,2 Column*%
X185850000Y-62000000D03*
%TO.P,S3,2,2*%
%TO.N,Net-(D3-A)*%
X197850000Y-64200000D03*
%TD*%
%TO.P,S9,1,1*%
%TO.N,2 Column*%
X186350000Y-79000000D03*
%TO.P,S9,2,2*%
%TO.N,Net-(D9-A)*%
X198350000Y-81200000D03*
%TD*%
%TO.P,S7,1,1*%
%TO.N,0 Column*%
X222350000Y-86500000D03*
%TO.P,S7,2,2*%
%TO.N,Net-(D7-A)*%
X234350000Y-88700000D03*
%TD*%
%TO.P,S14,1,1*%
%TO.N,1 Column*%
X204350000Y-103500000D03*
%TO.P,S14,2,2*%
%TO.N,Net-(D14-A)*%
X216350000Y-105700000D03*
%TD*%
%TO.P,S2,1,1*%
%TO.N,1 Column*%
X204350000Y-69500000D03*
%TO.P,S2,2,2*%
%TO.N,Net-(D2-A)*%
X216350000Y-71700000D03*
%TD*%
D14*
%TO.P,SW1,A,A*%
%TO.N,Net-(U1-4{slash}PD4)*%
X107021771Y-115340340D03*
D15*
%TO.P,SW1,B,B*%
%TO.N,Net-(U1-5{slash}PC6)*%
X107890008Y-120264380D03*
%TO.P,SW1,C,C*%
%TO.N,GND*%
X107455890Y-117802361D03*
D16*
%TO.P,SW1,MP,MP*%
X113869517Y-110985076D03*
X115814378Y-122014923D03*
D15*
%TO.P,SW1,S1,S1*%
%TO.N,Net-(U1-A3{slash}PF4)*%
X122169723Y-117746483D03*
%TO.P,SW1,S2,S2*%
%TO.N,GND*%
X121301483Y-112822444D03*
%TD*%
D12*
%TO.P,S16,1,1*%
%TO.N,3 Column*%
X168350000Y-89500000D03*
%TO.P,S16,2,2*%
%TO.N,Net-(D16-A)*%
X180350000Y-91700000D03*
%TD*%
D10*
%TO.P,S18,1,1*%
%TO.N,5 Column*%
X131319457Y-107348521D03*
%TO.P,S18,2,2*%
%TO.N,Net-(D18-A)*%
X143465532Y-108494280D03*
%TD*%
D17*
%TO.P,D5,1,K*%
%TO.N,0 Row*%
X152000000Y-82500000D03*
%TO.P,D5,2,A*%
%TO.N,Net-(D5-A)*%
X148700000Y-82500000D03*
%TD*%
%TO.P,D10,1,K*%
%TO.N,1 Row*%
X174500000Y-83000000D03*
%TO.P,D10,2,A*%
%TO.N,Net-(D10-A)*%
X171200000Y-83000000D03*
%TD*%
%TO.P,D7,1,K*%
%TO.N,1 Row*%
X228500000Y-97000000D03*
%TO.P,D7,2,A*%
%TO.N,Net-(D7-A)*%
X225200000Y-97000000D03*
%TD*%
%TO.P,D16,1,K*%
%TO.N,2 Row*%
X174500000Y-100000000D03*
%TO.P,D16,2,A*%
%TO.N,Net-(D16-A)*%
X171200000Y-100000000D03*
%TD*%
%TO.P,D3,1,K*%
%TO.N,0 Row*%
X192000000Y-72500000D03*
%TO.P,D3,2,A*%
%TO.N,Net-(D3-A)*%
X188700000Y-72500000D03*
%TD*%
%TO.P,D6,1,K*%
%TO.N,0 Row*%
X134000000Y-84000000D03*
%TO.P,D6,2,A*%
%TO.N,Net-(D6-A)*%
X130700000Y-84000000D03*
%TD*%
%TO.P,D15,1,K*%
%TO.N,2 Row*%
X192500000Y-106000000D03*
%TO.P,D15,2,A*%
%TO.N,Net-(D15-A)*%
X189200000Y-106000000D03*
%TD*%
%TO.P,D11,1,K*%
%TO.N,1 Row*%
X153000000Y-99500000D03*
%TO.P,D11,2,A*%
%TO.N,Net-(D11-A)*%
X149700000Y-99500000D03*
%TD*%
%TO.P,D18,1,K*%
%TO.N,2 Row*%
X137000000Y-117500000D03*
%TO.P,D18,2,A*%
%TO.N,Net-(D18-A)*%
X133700000Y-117500000D03*
%TD*%
%TO.P,D8,1,K*%
%TO.N,1 Row*%
X210500000Y-97000000D03*
%TO.P,D8,2,A*%
%TO.N,Net-(D8-A)*%
X207200000Y-97000000D03*
%TD*%
%TO.P,D14,1,K*%
%TO.N,2 Row*%
X210000000Y-114000000D03*
%TO.P,D14,2,A*%
%TO.N,Net-(D14-A)*%
X206700000Y-114000000D03*
%TD*%
D18*
%TO.P,U1,1,TX0/PD3*%
%TO.N,Serial*%
X120350000Y-75898562D03*
D19*
%TO.P,U1,2,RX1/PD2*%
%TO.N,unconnected-(U1-RX1{slash}PD2-Pad2)*%
X120527181Y-78432375D03*
%TO.P,U1,3,GND*%
%TO.N,GND*%
X120704362Y-80966186D03*
%TO.P,U1,4,GND*%
X120881543Y-83500000D03*
%TO.P,U1,5,2/PD1*%
%TO.N,unconnected-(U1-2{slash}PD1-Pad5)*%
X121058726Y-86033812D03*
%TO.P,U1,6,3/PD0*%
%TO.N,unconnected-(U1-3{slash}PD0-Pad6)*%
X121235906Y-88567624D03*
%TO.P,U1,7,4/PD4*%
%TO.N,Net-(U1-4{slash}PD4)*%
X121413087Y-91101439D03*
%TO.P,U1,8,5/PC6*%
%TO.N,Net-(U1-5{slash}PC6)*%
X121590269Y-93635251D03*
%TO.P,U1,9,6/PD7*%
%TO.N,5 Column*%
X121767452Y-96169063D03*
%TO.P,U1,10,7/PE6*%
%TO.N,4 Column*%
X121944633Y-98702876D03*
%TO.P,U1,11,8/PB4*%
%TO.N,3 Column*%
X122121814Y-101236689D03*
%TO.P,U1,12,9/PB5*%
%TO.N,2 Column*%
X122298995Y-103770500D03*
%TO.P,U1,13,10/PB6*%
%TO.N,unconnected-(U1-10{slash}PB6-Pad13)*%
X107096119Y-104833590D03*
%TO.P,U1,14,16/PB2*%
%TO.N,0 Column*%
X106918937Y-102299777D03*
%TO.P,U1,15,14/PB3*%
%TO.N,1 Column*%
X106741757Y-99765965D03*
%TO.P,U1,16,15/PB1*%
%TO.N,3 Row*%
X106564575Y-97232152D03*
%TO.P,U1,17,A0/PF7*%
%TO.N,2 Row*%
X106387395Y-94698339D03*
%TO.P,U1,18,A1/PF6*%
%TO.N,1 Row*%
X106210211Y-92164526D03*
%TO.P,U1,19,A2/PF5*%
%TO.N,0 Row*%
X106033029Y-89630714D03*
%TO.P,U1,20,A3/PF4*%
%TO.N,Net-(U1-A3{slash}PF4)*%
X105855849Y-87096901D03*
%TO.P,U1,21,VCC*%
%TO.N,VCC*%
X105678667Y-84563088D03*
%TO.P,U1,22,RST*%
%TO.N,RST*%
X105501487Y-82029276D03*
%TO.P,U1,23,GND*%
%TO.N,GND*%
X105324305Y-79495463D03*
%TO.P,U1,24,RAW*%
%TO.N,unconnected-(U1-RAW-Pad24)*%
X105147123Y-76961651D03*
%TD*%
D17*
%TO.P,D13,1,K*%
%TO.N,2 Row*%
X228000000Y-114000000D03*
%TO.P,D13,2,A*%
%TO.N,Net-(D13-A)*%
X224700000Y-114000000D03*
%TD*%
%TO.P,D20,1,K*%
%TO.N,3 Row*%
X120500000Y-139500000D03*
%TO.P,D20,2,A*%
%TO.N,Net-(D20-A)*%
X117200000Y-139500000D03*
%TD*%
D20*
%TO.P,SW2,1,1*%
%TO.N,GND*%
X153350000Y-60500000D03*
D21*
%TO.P,SW2,2,2*%
%TO.N,RST*%
X146850000Y-60500000D03*
%TD*%
D17*
%TO.P,D2,1,K*%
%TO.N,0 Row*%
X210500000Y-80500000D03*
%TO.P,D2,2,A*%
%TO.N,Net-(D2-A)*%
X207200000Y-80500000D03*
%TD*%
%TO.P,D4,1,K*%
%TO.N,0 Row*%
X174500000Y-66000000D03*
%TO.P,D4,2,A*%
%TO.N,Net-(D4-A)*%
X171200000Y-66000000D03*
%TD*%
%TO.P,D17,1,K*%
%TO.N,2 Row*%
X154500000Y-116000000D03*
%TO.P,D17,2,A*%
%TO.N,Net-(D17-A)*%
X151200000Y-116000000D03*
%TD*%
%TO.P,D9,1,K*%
%TO.N,1 Row*%
X192500000Y-89500000D03*
%TO.P,D9,2,A*%
%TO.N,Net-(D9-A)*%
X189200000Y-89500000D03*
%TD*%
%TO.P,D1,1,K*%
%TO.N,0 Row*%
X228500000Y-81000000D03*
%TO.P,D1,2,A*%
%TO.N,Net-(D1-A)*%
X225200000Y-81000000D03*
%TD*%
%TO.P,D12,1,K*%
%TO.N,1 Row*%
X136000000Y-101000000D03*
%TO.P,D12,2,A*%
%TO.N,Net-(D12-A)*%
X132700000Y-101000000D03*
%TD*%
%TO.P,D19,1,K*%
%TO.N,3 Row*%
X138000000Y-136500000D03*
%TO.P,D19,2,A*%
%TO.N,Net-(D19-A)*%
X134700000Y-136500000D03*
%TD*%
D22*
%TO.N,0 Row*%
X128500000Y-85000000D03*
%TO.N,1 Row*%
X130500000Y-104000000D03*
%TO.N,0 Column*%
X222350000Y-70000000D03*
X222000000Y-103500000D03*
X222350000Y-86500000D03*
%TO.N,1 Column*%
X204500000Y-77500000D03*
X204350000Y-86500000D03*
X204350000Y-103500000D03*
%TO.N,2 Column*%
X186350000Y-95500000D03*
X124000000Y-99500000D03*
X185500000Y-63000000D03*
X186350000Y-79000000D03*
%TO.N,3 Column*%
X147900000Y-97500000D03*
X149100000Y-97500000D03*
X168350000Y-73000000D03*
X168500000Y-67500000D03*
X119000000Y-99000000D03*
X168350000Y-89500000D03*
%TO.N,4 Column*%
X143000000Y-119000000D03*
X147319457Y-89348521D03*
X145500000Y-112000000D03*
X145584347Y-72115084D03*
X126500000Y-110500000D03*
X148500000Y-102000000D03*
%TO.N,5 Column*%
X114361288Y-129698922D03*
X127500000Y-112500000D03*
%TO.N,GND*%
X118000000Y-104000000D03*
X119500000Y-110000000D03*
X116500000Y-107000000D03*
%TO.N,Net-(U1-5{slash}PC6)*%
X109500000Y-99500000D03*
X110500000Y-97500000D03*
X111418793Y-94500000D03*
X109000000Y-107500000D03*
%TO.N,Net-(U1-A3{slash}PF4)*%
X110500000Y-101000000D03*
X112018793Y-99481207D03*
%TD*%
D23*
%TO.N,0 Row*%
X212000000Y-82000000D02*
X210500000Y-80500000D01*
X209599000Y-81401000D02*
X206750890Y-81401000D01*
X228500000Y-81000000D02*
X227500000Y-82000000D01*
X191099000Y-73401000D02*
X181901000Y-73401000D01*
X134000000Y-84000000D02*
X133000000Y-85000000D01*
X206750890Y-81401000D02*
X204998890Y-79649000D01*
X150500000Y-84000000D02*
X134000000Y-84000000D01*
X133000000Y-85000000D02*
X128500000Y-85000000D01*
X204998890Y-79649000D02*
X199149000Y-79649000D01*
X152000000Y-82500000D02*
X150500000Y-84000000D01*
X210500000Y-80500000D02*
X209599000Y-81401000D01*
X174500000Y-66000000D02*
X169051000Y-71449000D01*
X181901000Y-73401000D02*
X174500000Y-66000000D01*
X227500000Y-82000000D02*
X212000000Y-82000000D01*
X199149000Y-79649000D02*
X192000000Y-72500000D01*
X163051000Y-71449000D02*
X152000000Y-82500000D01*
X169051000Y-71449000D02*
X163051000Y-71449000D01*
X192000000Y-72500000D02*
X191099000Y-73401000D01*
%TO.N,Net-(D1-A)*%
X232040948Y-77301000D02*
X233749000Y-75592948D01*
X233749000Y-75592948D02*
X233749000Y-72200000D01*
X228899000Y-77301000D02*
X232040948Y-77301000D01*
X225200000Y-81000000D02*
X228899000Y-77301000D01*
%TO.N,Net-(D2-A)*%
X216350000Y-74491948D02*
X211242948Y-79599000D01*
X216350000Y-71700000D02*
X216350000Y-74491948D01*
X211242948Y-79599000D02*
X208101000Y-79599000D01*
X208101000Y-79599000D02*
X207200000Y-80500000D01*
%TO.N,Net-(D3-A)*%
X193090892Y-71599000D02*
X189601000Y-71599000D01*
X197850000Y-66839892D02*
X193090892Y-71599000D01*
X189601000Y-71599000D02*
X188700000Y-72500000D01*
X197850000Y-64200000D02*
X197850000Y-66839892D01*
%TO.N,Net-(D4-A)*%
X177851000Y-59899000D02*
X176701000Y-59899000D01*
X176701000Y-59899000D02*
X171200000Y-65400000D01*
X171200000Y-65400000D02*
X171200000Y-66000000D01*
X180350000Y-57400000D02*
X177851000Y-59899000D01*
%TO.N,Net-(D5-A)*%
X148700000Y-81840989D02*
X148700000Y-82500000D01*
X157280146Y-73260843D02*
X148700000Y-81840989D01*
X157730422Y-73260843D02*
X157280146Y-73260843D01*
%TO.N,Net-(D6-A)*%
X139986461Y-74973637D02*
X139536185Y-74973637D01*
X130700000Y-83809822D02*
X130700000Y-84000000D01*
X139536185Y-74973637D02*
X130700000Y-83809822D01*
%TO.N,1 Row*%
X151500000Y-101000000D02*
X153000000Y-99500000D01*
X206750890Y-97901000D02*
X209599000Y-97901000D01*
X205774000Y-96924110D02*
X206750890Y-97901000D01*
X136000000Y-101000000D02*
X151500000Y-101000000D01*
X173599000Y-83901000D02*
X174500000Y-83000000D01*
X153000000Y-99500000D02*
X155151890Y-99500000D01*
X210500000Y-97000000D02*
X211401000Y-97901000D01*
X155151890Y-99500000D02*
X170750890Y-83901000D01*
X203000000Y-89500000D02*
X205774000Y-92274000D01*
X181901000Y-90401000D02*
X191599000Y-90401000D01*
X211401000Y-97901000D02*
X227599000Y-97901000D01*
X170750890Y-83901000D02*
X173599000Y-83901000D01*
X192500000Y-89500000D02*
X203000000Y-89500000D01*
X209599000Y-97901000D02*
X210500000Y-97000000D01*
X191599000Y-90401000D02*
X192500000Y-89500000D01*
X133000000Y-104000000D02*
X130500000Y-104000000D01*
X136000000Y-101000000D02*
X133000000Y-104000000D01*
X227599000Y-97901000D02*
X228500000Y-97000000D01*
X174500000Y-83000000D02*
X181901000Y-90401000D01*
X205774000Y-92274000D02*
X205774000Y-96924110D01*
%TO.N,Net-(D7-A)*%
X231851000Y-91199000D02*
X230811108Y-91199000D01*
X234350000Y-88700000D02*
X231851000Y-91199000D01*
X225200000Y-96810108D02*
X225200000Y-97000000D01*
X230811108Y-91199000D02*
X225200000Y-96810108D01*
%TO.N,Net-(D8-A)*%
X216350000Y-88700000D02*
X213851000Y-91199000D01*
X207200000Y-96810108D02*
X207200000Y-97000000D01*
X212811108Y-91199000D02*
X207200000Y-96810108D01*
X213851000Y-91199000D02*
X212811108Y-91199000D01*
%TO.N,Net-(D9-A)*%
X189200000Y-88585907D02*
X189200000Y-89500000D01*
X195851000Y-83699000D02*
X194086907Y-83699000D01*
X198350000Y-81200000D02*
X195851000Y-83699000D01*
X194086907Y-83699000D02*
X189200000Y-88585907D01*
%TO.N,Net-(D10-A)*%
X180350000Y-75200000D02*
X178474000Y-77076000D01*
X178474000Y-77076000D02*
X177124000Y-77076000D01*
X177124000Y-77076000D02*
X171200000Y-83000000D01*
%TO.N,Net-(D11-A)*%
X149785621Y-99500000D02*
X149700000Y-99500000D01*
X156610296Y-92675325D02*
X149785621Y-99500000D01*
X157284487Y-92675325D02*
X156610296Y-92675325D01*
X159465532Y-90494280D02*
X157284487Y-92675325D01*
%TO.N,Net-(D12-A)*%
X141965532Y-91494280D02*
X141515256Y-91494280D01*
X141515256Y-91494280D02*
X132700000Y-100309536D01*
X132700000Y-100309536D02*
X132700000Y-101000000D01*
%TO.N,Net-(D13-A)*%
X230451000Y-108249000D02*
X224700000Y-114000000D01*
X234125000Y-105750000D02*
X231626000Y-108249000D01*
X231626000Y-108249000D02*
X230451000Y-108249000D01*
%TO.N,2 Row*%
X154500000Y-116000000D02*
X153000000Y-117500000D01*
X210901000Y-114901000D02*
X210000000Y-114000000D01*
X209099000Y-114901000D02*
X201401000Y-114901000D01*
X137000000Y-117500000D02*
X136099000Y-118401000D01*
X181401000Y-106901000D02*
X174500000Y-100000000D01*
X227099000Y-114901000D02*
X210901000Y-114901000D01*
X130090056Y-118401000D02*
X106387395Y-94698339D01*
X201401000Y-114901000D02*
X192500000Y-106000000D01*
X210000000Y-114000000D02*
X209099000Y-114901000D01*
X192500000Y-106000000D02*
X191599000Y-106901000D01*
X191599000Y-106901000D02*
X181401000Y-106901000D01*
X174500000Y-100000000D02*
X158500000Y-116000000D01*
X158500000Y-116000000D02*
X154500000Y-116000000D01*
X153000000Y-117500000D02*
X137000000Y-117500000D01*
X228000000Y-114000000D02*
X227099000Y-114901000D01*
X136099000Y-118401000D02*
X130090056Y-118401000D01*
%TO.N,Net-(D14-A)*%
X213851000Y-108199000D02*
X212501000Y-108199000D01*
X212501000Y-108199000D02*
X206700000Y-114000000D01*
X216350000Y-105700000D02*
X213851000Y-108199000D01*
%TO.N,Net-(D15-A)*%
X198350000Y-97700000D02*
X196192953Y-99857047D01*
X189200000Y-105085907D02*
X189200000Y-106000000D01*
X194428860Y-99857047D02*
X189200000Y-105085907D01*
X196192953Y-99857047D02*
X194428860Y-99857047D01*
%TO.N,Net-(D16-A)*%
X180350000Y-91700000D02*
X177851000Y-94199000D01*
X171200000Y-99810108D02*
X171200000Y-100000000D01*
X176811108Y-94199000D02*
X171200000Y-99810108D01*
X177851000Y-94199000D02*
X176811108Y-94199000D01*
%TO.N,Net-(D17-A)*%
X151509822Y-116000000D02*
X151200000Y-116000000D01*
X160536185Y-106973637D02*
X151509822Y-116000000D01*
X160986461Y-106973637D02*
X160536185Y-106973637D01*
%TO.N,Net-(D18-A)*%
X140610296Y-110675325D02*
X133785621Y-117500000D01*
X143465532Y-108494280D02*
X141284487Y-110675325D01*
X141284487Y-110675325D02*
X140610296Y-110675325D01*
X133785621Y-117500000D02*
X133700000Y-117500000D01*
%TO.N,3 Row*%
X103000000Y-97500000D02*
X103267848Y-97232152D01*
X102500000Y-120616893D02*
X102500000Y-97500000D01*
X102500000Y-97500000D02*
X103000000Y-97500000D01*
X120500000Y-139500000D02*
X119599000Y-140401000D01*
X103267848Y-97232152D02*
X106564575Y-97232152D01*
X119599000Y-140401000D02*
X116750890Y-140401000D01*
X116750890Y-140401000D02*
X116449000Y-140099110D01*
X116449000Y-140099110D02*
X116449000Y-134565893D01*
X138000000Y-136500000D02*
X135000000Y-139500000D01*
X135000000Y-139500000D02*
X120500000Y-139500000D01*
X116449000Y-134565893D02*
X102500000Y-120616893D01*
%TO.N,Net-(D19-A)*%
X138203363Y-132996637D02*
X134700000Y-136500000D01*
X138203363Y-132416721D02*
X138203363Y-132996637D01*
X143838363Y-126781721D02*
X138203363Y-132416721D01*
%TO.N,Net-(D20-A)*%
X117650000Y-139500000D02*
X117200000Y-139500000D01*
X122965444Y-134184556D02*
X117650000Y-139500000D01*
X126561000Y-129781721D02*
X122965444Y-133377277D01*
X122965444Y-133377277D02*
X122965444Y-134184556D01*
%TO.N,0 Column*%
X222050000Y-103550000D02*
X222000000Y-103500000D01*
X222125000Y-103550000D02*
X222050000Y-103550000D01*
%TO.N,1 Column*%
X204350000Y-69500000D02*
X204350000Y-77350000D01*
X204350000Y-77350000D02*
X204500000Y-77500000D01*
%TO.N,2 Column*%
X185850000Y-62650000D02*
X185500000Y-63000000D01*
X124000000Y-102069495D02*
X122298995Y-103770500D01*
X124000000Y-99500000D02*
X124000000Y-102069495D01*
X185850000Y-62000000D02*
X185850000Y-62650000D01*
%TO.N,3 Column*%
X149100000Y-97500000D02*
X147900000Y-97500000D01*
X168350000Y-55200000D02*
X168350000Y-67350000D01*
X119885125Y-99000000D02*
X122121814Y-101236689D01*
X119000000Y-99000000D02*
X119885125Y-99000000D01*
X168350000Y-67350000D02*
X168500000Y-67500000D01*
%TO.N,4 Column*%
X145500000Y-112000000D02*
X148840386Y-108659614D01*
X131638651Y-126698922D02*
X139337573Y-119000000D01*
X119247180Y-97902877D02*
X121144634Y-97902877D01*
X139337573Y-119000000D02*
X143000000Y-119000000D01*
X121144634Y-97902877D02*
X121944633Y-98702876D01*
X126500000Y-110500000D02*
X118399000Y-102399000D01*
X118399000Y-98751057D02*
X119247180Y-97902877D01*
X148840386Y-108659614D02*
X148840386Y-105827878D01*
X118399000Y-102399000D02*
X118399000Y-98751057D01*
X148840386Y-102340386D02*
X148500000Y-102000000D01*
X148840386Y-105827878D02*
X148840386Y-102340386D01*
%TO.N,5 Column*%
X131319457Y-107348521D02*
X131319457Y-108680543D01*
X130000000Y-91000000D02*
X130000000Y-91500000D01*
X125330937Y-96169063D02*
X121767452Y-96169063D01*
X127840386Y-73827878D02*
X127840386Y-88840386D01*
X130000000Y-91500000D02*
X125330937Y-96169063D01*
X131319457Y-108680543D02*
X127500000Y-112500000D01*
X131319457Y-105721068D02*
X131319457Y-107348521D01*
X121767452Y-96169063D02*
X131319457Y-105721068D01*
X127840386Y-88840386D02*
X130000000Y-91000000D01*
%TO.N,GND*%
X118000000Y-104000000D02*
X117998000Y-103998000D01*
X119233639Y-79495463D02*
X120704362Y-80966186D01*
X107455890Y-117802361D02*
X113869517Y-111388734D01*
X105324305Y-79495463D02*
X119233639Y-79495463D01*
X120881543Y-81381543D02*
X120881543Y-83500000D01*
X120704362Y-81204362D02*
X120881543Y-81381543D01*
X115814378Y-122014923D02*
X111668452Y-122014923D01*
X117998000Y-103998000D02*
X117998000Y-86383543D01*
X113869517Y-111388734D02*
X113869517Y-110985076D01*
X119500000Y-110000000D02*
X116500000Y-107000000D01*
X120704362Y-80966186D02*
X120704362Y-81204362D01*
X111668452Y-122014923D02*
X107455890Y-117802361D01*
X117998000Y-86383543D02*
X120881543Y-83500000D01*
%TO.N,Net-(U1-5{slash}PC6)*%
X109000000Y-107500000D02*
X109500000Y-107000000D01*
X109500000Y-107000000D02*
X109500000Y-99500000D01*
X110500000Y-95418793D02*
X111418793Y-94500000D01*
X110500000Y-97500000D02*
X110500000Y-95418793D01*
%TO.N,Net-(U1-A3{slash}PF4)*%
X105855849Y-87096901D02*
X112018793Y-93259845D01*
X112018793Y-93259845D02*
X112018793Y-99481207D01*
X122169723Y-115530576D02*
X122169723Y-117746483D01*
X110500000Y-101000000D02*
X110500000Y-103860853D01*
X110500000Y-103860853D02*
X122169723Y-115530576D01*
%TO.N,Serial*%
X109398562Y-75898562D02*
X120350000Y-75898562D01*
X101546203Y-84241244D02*
X103000000Y-82787447D01*
X103000000Y-77551724D02*
X105051724Y-75500000D01*
X109000000Y-75500000D02*
X109398562Y-75898562D01*
X105051724Y-75500000D02*
X109000000Y-75500000D01*
X103000000Y-82787447D02*
X103000000Y-77551724D01*
%TD*%
M02*
